<?xml version="1.0" encoding="utf-8"?>
<!-- Generator: Adobe Illustrator 22.1.0, SVG Export Plug-In . SVG Version: 6.00 Build 0)  -->
<svg version="1.1" id="Layer_1" xmlns="http://www.w3.org/2000/svg" xmlns:xlink="http://www.w3.org/1999/xlink" x="0px" y="0px"
	 viewBox="0 0 803 421.8" style="enable-background:new 0 0 803 421.8;" xml:space="preserve">
<style type="text/css">
	.st0{fill:#FFFFFF;}
	.st1{stroke:#000000;stroke-width:0.8;stroke-linejoin:round;}
	.st2{clip-path:url(#SVGID_2_);fill:none;stroke:#1A00E6;stroke-width:1.5;stroke-linecap:square;stroke-linejoin:round;}
	.st3{clip-path:url(#SVGID_4_);fill:none;stroke:#1A00E6;stroke-width:1.5;stroke-linecap:square;stroke-linejoin:round;}
	.st4{clip-path:url(#SVGID_6_);fill:none;stroke:#1A00E6;stroke-width:1.5;stroke-linecap:square;stroke-linejoin:round;}
	.st5{clip-path:url(#SVGID_8_);fill:none;stroke:#3300CC;stroke-width:1.5;stroke-linecap:square;stroke-linejoin:round;}
	.st6{clip-path:url(#SVGID_10_);fill:none;stroke:#3300CC;stroke-width:1.5;stroke-linecap:square;stroke-linejoin:round;}
	.st7{clip-path:url(#SVGID_12_);fill:none;stroke:#3300CC;stroke-width:1.5;stroke-linecap:square;stroke-linejoin:round;}
	.st8{clip-path:url(#SVGID_14_);fill:none;stroke:#4C00B2;stroke-width:1.5;stroke-linecap:square;stroke-linejoin:round;}
	.st9{clip-path:url(#SVGID_16_);fill:none;stroke:#4C00B2;stroke-width:1.5;stroke-linecap:square;stroke-linejoin:round;}
	.st10{clip-path:url(#SVGID_18_);fill:none;stroke:#4C00B2;stroke-width:1.5;stroke-linecap:square;stroke-linejoin:round;}
	.st11{clip-path:url(#SVGID_20_);fill:none;stroke:#660099;stroke-width:1.5;stroke-linecap:square;stroke-linejoin:round;}
	.st12{clip-path:url(#SVGID_22_);fill:none;stroke:#660099;stroke-width:1.5;stroke-linecap:square;stroke-linejoin:round;}
	.st13{clip-path:url(#SVGID_24_);fill:none;stroke:#660099;stroke-width:1.5;stroke-linecap:square;stroke-linejoin:round;}
	.st14{clip-path:url(#SVGID_26_);fill:none;stroke:#800080;stroke-width:1.5;stroke-linecap:square;stroke-linejoin:round;}
	.st15{clip-path:url(#SVGID_28_);fill:none;stroke:#800080;stroke-width:1.5;stroke-linecap:square;stroke-linejoin:round;}
	.st16{clip-path:url(#SVGID_30_);fill:none;stroke:#800080;stroke-width:1.5;stroke-linecap:square;stroke-linejoin:round;}
	.st17{clip-path:url(#SVGID_32_);fill:none;stroke:#990066;stroke-width:1.5;stroke-linecap:square;stroke-linejoin:round;}
	.st18{clip-path:url(#SVGID_34_);fill:none;stroke:#990066;stroke-width:1.5;stroke-linecap:square;stroke-linejoin:round;}
	.st19{clip-path:url(#SVGID_36_);fill:none;stroke:#990066;stroke-width:1.5;stroke-linecap:square;stroke-linejoin:round;}
	.st20{clip-path:url(#SVGID_38_);fill:none;stroke:#B2004D;stroke-width:1.5;stroke-linecap:square;stroke-linejoin:round;}
	.st21{clip-path:url(#SVGID_40_);fill:none;stroke:#B2004D;stroke-width:1.5;stroke-linecap:square;stroke-linejoin:round;}
	.st22{clip-path:url(#SVGID_42_);fill:none;stroke:#B2004D;stroke-width:1.5;stroke-linecap:square;stroke-linejoin:round;}
	.st23{clip-path:url(#SVGID_44_);fill:none;stroke:#CC0033;stroke-width:1.5;stroke-linecap:square;stroke-linejoin:round;}
	.st24{clip-path:url(#SVGID_46_);fill:none;stroke:#CC0033;stroke-width:1.5;stroke-linecap:square;stroke-linejoin:round;}
	.st25{clip-path:url(#SVGID_48_);fill:none;stroke:#CC0033;stroke-width:1.5;stroke-linecap:square;stroke-linejoin:round;}
	.st26{clip-path:url(#SVGID_50_);fill:none;stroke:#E60019;stroke-width:1.5;stroke-linecap:square;stroke-linejoin:round;}
	.st27{clip-path:url(#SVGID_52_);fill:none;stroke:#E60019;stroke-width:1.5;stroke-linecap:square;stroke-linejoin:round;}
	.st28{clip-path:url(#SVGID_54_);fill:none;stroke:#E60019;stroke-width:1.5;stroke-linecap:square;stroke-linejoin:round;}
	.st29{clip-path:url(#SVGID_56_);fill:none;stroke:#FF0000;stroke-width:1.5;stroke-linecap:square;stroke-linejoin:round;}
	.st30{clip-path:url(#SVGID_58_);fill:none;stroke:#FF0000;stroke-width:1.5;stroke-linecap:square;stroke-linejoin:round;}
	.st31{clip-path:url(#SVGID_60_);fill:none;stroke:#FF0000;stroke-width:1.5;stroke-linecap:square;stroke-linejoin:round;}
	.st32{fill:none;stroke:#000000;stroke-width:0.8;stroke-linecap:square;}
	.st33{fill:url(#SVGID_61_);}
	.st34{font-family:'MyriadPro-Regular';}
	.st35{font-size:12px;}
</style>
<g id="patch_1">
	<path class="st0" d="M-61,448.8h864v-504H-61V448.8z"/>
</g>
<g id="patch_2">
	<path class="st0" d="M47,385.8h669.6V5.3H47V385.8z"/>
</g>
<g id="matplotlib.axis_1">
	<g id="xtick_1">
		<g id="line2d_1">
			<g>
				<g>
					<path id="m26ab6ff80f" class="st1" d="M75.4,385.8v3.5"/>
				</g>
			</g>
		</g>
		<g id="text_1">
			<g transform="translate(133.219236 455.598437)scale(0.1 -0.1)">
				<g>
					<path id="DejaVuSans-48" d="M-578.2,618.2c-5.1,0-8.9-2.5-11.5-7.5c-2.6-5-3.8-12.5-3.8-22.5c0-10,1.3-17.5,3.8-22.5
						c2.6-5,6.4-7.5,11.5-7.5c5.1,0,8.9,2.5,11.5,7.5c2.6,5,3.8,12.5,3.8,22.5c0,10-1.3,17.5-3.8,22.5
						C-569.3,615.7-573.1,618.2-578.2,618.2z M-578.2,626c8.2,0,14.4-3.2,18.7-9.7c4.3-6.5,6.5-15.8,6.5-28.1
						c0-12.3-2.2-21.6-6.5-28.1c-4.3-6.5-10.6-9.7-18.7-9.7c-8.2,0-14.4,3.2-18.7,9.7c-4.3,6.5-6.5,15.8-6.5,28.1
						c0,12.3,2.2,21.7,6.5,28.1C-592.6,622.8-586.4,626-578.2,626z"/>
				</g>
			</g>
		</g>
	</g>
	<g id="xtick_2">
		<g id="line2d_2">
			<g>
				<g>
					<path id="m26ab6ff80f_1_" class="st1" d="M177.2,385.8v3.5"/>
				</g>
			</g>
		</g>
		<g id="text_2">
			<g transform="translate(231.831845 455.598437)scale(0.1 -0.1)">
				<g>
					<path id="DejaVuSans-53" d="M-599.2,624.7h38.7v-8.3h-29.7v-17.9c1.4,0.5,2.9,0.9,4.3,1.1c1.4,0.2,2.9,0.4,4.3,0.4
						c8.1,0,14.6-2.2,19.3-6.7c4.8-4.5,7.1-10.5,7.1-18.1c0-7.8-2.4-13.9-7.3-18.3c-4.9-4.3-11.8-6.5-20.7-6.5
						c-3.1,0-6.2,0.3-9.4,0.8c-3.2,0.5-6.4,1.3-9.8,2.3v9.9c2.9-1.6,6-2.8,9.1-3.6s6.4-1.2,9.9-1.2c5.6,0,10.1,1.5,13.4,4.4
						c3.3,3,4.9,7,4.9,12.1c0,5.1-1.6,9.1-4.9,12c-3.3,3-7.7,4.5-13.4,4.5c-2.6,0-5.3-0.3-7.9-0.9c-2.6-0.6-5.3-1.5-8-2.7V624.7z"/>
				</g>
				<g>
					<path id="DejaVuSans-48_1_" d="M-514.6,618.2c-5.1,0-8.9-2.5-11.5-7.5c-2.6-5-3.8-12.5-3.8-22.5c0-10,1.3-17.5,3.8-22.5
						c2.6-5,6.4-7.5,11.5-7.5c5.1,0,8.9,2.5,11.5,7.5c2.6,5,3.8,12.5,3.8,22.5c0,10-1.3,17.5-3.8,22.5
						C-505.6,615.7-509.5,618.2-514.6,618.2z M-514.6,626c8.2,0,14.4-3.2,18.7-9.7c4.3-6.5,6.5-15.8,6.5-28.1
						c0-12.3-2.2-21.6-6.5-28.1c-4.3-6.5-10.6-9.7-18.7-9.7c-8.2,0-14.4,3.2-18.7,9.7c-4.3,6.5-6.5,15.8-6.5,28.1
						c0,12.3,2.2,21.7,6.5,28.1C-529,622.8-522.8,626-514.6,626z"/>
				</g>
			</g>
		</g>
	</g>
	<g id="xtick_3">
		<g id="line2d_3">
			<g>
				<g>
					<path id="m26ab6ff80f_2_" class="st1" d="M279,385.8v3.5"/>
				</g>
			</g>
		</g>
		<g id="text_3">
			<g transform="translate(330.444453 455.598437)scale(0.1 -0.1)">
				<g>
					<path id="DejaVuSans-49" d="M-597.6,560.1h16.1v55.6l-17.5-3.5v9l17.4,3.5h9.9v-64.6h16.1v-8.3h-42V560.1z"/>
				</g>
				<g>
					<path id="DejaVuSans-48_2_" d="M-514.6,618.2c-5.1,0-8.9-2.5-11.5-7.5c-2.6-5-3.8-12.5-3.8-22.5c0-10,1.3-17.5,3.8-22.5
						c2.6-5,6.4-7.5,11.5-7.5c5.1,0,8.9,2.5,11.5,7.5c2.6,5,3.8,12.5,3.8,22.5c0,10-1.3,17.5-3.8,22.5
						C-505.6,615.7-509.5,618.2-514.6,618.2z M-514.6,626c8.2,0,14.4-3.2,18.7-9.7c4.3-6.5,6.5-15.8,6.5-28.1
						c0-12.3-2.2-21.6-6.5-28.1c-4.3-6.5-10.6-9.7-18.7-9.7c-8.2,0-14.4,3.2-18.7,9.7c-4.3,6.5-6.5,15.8-6.5,28.1
						c0,12.3,2.2,21.7,6.5,28.1C-529,622.8-522.8,626-514.6,626z"/>
				</g>
				<g>
					<path id="DejaVuSans-48_3_" d="M-451,618.2c-5.1,0-8.9-2.5-11.5-7.5c-2.6-5-3.8-12.5-3.8-22.5c0-10,1.3-17.5,3.8-22.5
						c2.6-5,6.4-7.5,11.5-7.5c5.1,0,8.9,2.5,11.5,7.5c2.6,5,3.8,12.5,3.8,22.5c0,10-1.3,17.5-3.8,22.5
						C-442,615.7-445.9,618.2-451,618.2z M-451,626c8.2,0,14.4-3.2,18.7-9.7c4.3-6.5,6.5-15.8,6.5-28.1c0-12.3-2.2-21.6-6.5-28.1
						c-4.3-6.5-10.6-9.7-18.7-9.7c-8.2,0-14.4,3.2-18.7,9.7c-4.3,6.5-6.5,15.8-6.5,28.1c0,12.3,2.2,21.7,6.5,28.1
						C-465.4,622.8-459.1,626-451,626z"/>
				</g>
			</g>
		</g>
	</g>
	<g id="xtick_4">
		<g id="line2d_4">
			<g>
				<g>
					<path id="m26ab6ff80f_3_" class="st1" d="M380.8,385.8v3.5"/>
				</g>
			</g>
		</g>
		<g id="text_4">
			<g transform="translate(432.238311 455.598437)scale(0.1 -0.1)">
				<g>
					<path id="DejaVuSans-49_1_" d="M-597.6,560.1h16.1v55.6l-17.5-3.5v9l17.4,3.5h9.9v-64.6h16.1v-8.3h-42V560.1z"/>
				</g>
				<g>
					<path id="DejaVuSans-53_1_" d="M-535.6,624.7h38.7v-8.3h-29.7v-17.9c1.4,0.5,2.9,0.9,4.3,1.1c1.4,0.2,2.9,0.4,4.3,0.4
						c8.1,0,14.6-2.2,19.3-6.7c4.8-4.5,7.1-10.5,7.1-18.1c0-7.8-2.4-13.9-7.3-18.3c-4.9-4.3-11.8-6.5-20.7-6.5
						c-3.1,0-6.2,0.3-9.4,0.8c-3.2,0.5-6.4,1.3-9.8,2.3v9.9c2.9-1.6,6-2.8,9.1-3.6s6.4-1.2,9.9-1.2c5.6,0,10.1,1.5,13.4,4.4
						c3.3,3,4.9,7,4.9,12.1c0,5.1-1.6,9.1-4.9,12c-3.3,3-7.7,4.5-13.4,4.5c-2.6,0-5.3-0.3-7.9-0.9c-2.6-0.6-5.3-1.5-8-2.7V624.7z"/>
				</g>
				<g>
					<path id="DejaVuSans-48_4_" d="M-451,618.2c-5.1,0-8.9-2.5-11.5-7.5c-2.6-5-3.8-12.5-3.8-22.5c0-10,1.3-17.5,3.8-22.5
						c2.6-5,6.4-7.5,11.5-7.5c5.1,0,8.9,2.5,11.5,7.5c2.6,5,3.8,12.5,3.8,22.5c0,10-1.3,17.5-3.8,22.5
						C-442,615.7-445.9,618.2-451,618.2z M-451,626c8.2,0,14.4-3.2,18.7-9.7c4.3-6.5,6.5-15.8,6.5-28.1c0-12.3-2.2-21.6-6.5-28.1
						c-4.3-6.5-10.6-9.7-18.7-9.7c-8.2,0-14.4,3.2-18.7,9.7c-4.3,6.5-6.5,15.8-6.5,28.1c0,12.3,2.2,21.7,6.5,28.1
						C-465.4,622.8-459.1,626-451,626z"/>
				</g>
			</g>
		</g>
	</g>
	<g id="xtick_5">
		<g id="line2d_5">
			<g>
				<g>
					<path id="m26ab6ff80f_4_" class="st1" d="M482.6,385.8v3.5"/>
				</g>
			</g>
		</g>
		<g id="text_5">
			<g transform="translate(534.03217 455.598437)scale(0.1 -0.1)">
				<g>
					<path id="DejaVuSans-50" d="M-590.8,560.1h34.4v-8.3h-46.3v8.3c3.7,3.9,8.8,9.1,15.3,15.6c6.5,6.5,10.5,10.7,12.2,12.6
						c3.2,3.5,5.4,6.5,6.6,9c1.3,2.5,1.9,4.9,1.9,7.2c0,3.9-1.4,7-4.1,9.5c-2.7,2.4-6.3,3.7-10.6,3.7c-3.1,0-6.4-0.5-9.8-1.6
						c-3.4-1.1-7.1-2.7-11-4.9v10c4,1.6,7.7,2.8,11.1,3.6c3.5,0.8,6.6,1.2,9.5,1.2c7.6,0,13.6-1.9,18.1-5.7
						c4.5-3.8,6.7-8.8,6.7-15.1c0-3-0.6-5.8-1.7-8.5c-1.1-2.7-3.2-5.8-6.1-9.5c-0.8-0.9-3.4-3.7-7.8-8.2
						C-576.7,574.5-582.9,568.2-590.8,560.1z"/>
				</g>
				<g>
					<path id="DejaVuSans-48_5_" d="M-514.6,618.2c-5.1,0-8.9-2.5-11.5-7.5c-2.6-5-3.8-12.5-3.8-22.5c0-10,1.3-17.5,3.8-22.5
						c2.6-5,6.4-7.5,11.5-7.5c5.1,0,8.9,2.5,11.5,7.5c2.6,5,3.8,12.5,3.8,22.5c0,10-1.3,17.5-3.8,22.5
						C-505.6,615.7-509.5,618.2-514.6,618.2z M-514.6,626c8.2,0,14.4-3.2,18.7-9.7c4.3-6.5,6.5-15.8,6.5-28.1
						c0-12.3-2.2-21.6-6.5-28.1c-4.3-6.5-10.6-9.7-18.7-9.7c-8.2,0-14.4,3.2-18.7,9.7c-4.3,6.5-6.5,15.8-6.5,28.1
						c0,12.3,2.2,21.7,6.5,28.1C-529,622.8-522.8,626-514.6,626z"/>
				</g>
				<g>
					<path id="DejaVuSans-48_6_" d="M-451,618.2c-5.1,0-8.9-2.5-11.5-7.5c-2.6-5-3.8-12.5-3.8-22.5c0-10,1.3-17.5,3.8-22.5
						c2.6-5,6.4-7.5,11.5-7.5c5.1,0,8.9,2.5,11.5,7.5c2.6,5,3.8,12.5,3.8,22.5c0,10-1.3,17.5-3.8,22.5
						C-442,615.7-445.9,618.2-451,618.2z M-451,626c8.2,0,14.4-3.2,18.7-9.7c4.3-6.5,6.5-15.8,6.5-28.1c0-12.3-2.2-21.6-6.5-28.1
						c-4.3-6.5-10.6-9.7-18.7-9.7c-8.2,0-14.4,3.2-18.7,9.7c-4.3,6.5-6.5,15.8-6.5,28.1c0,12.3,2.2,21.7,6.5,28.1
						C-465.4,622.8-459.1,626-451,626z"/>
				</g>
			</g>
		</g>
	</g>
	<g id="xtick_6">
		<g id="line2d_6">
			<g>
				<g>
					<path id="m26ab6ff80f_5_" class="st1" d="M584.4,385.8v3.5"/>
				</g>
			</g>
		</g>
		<g id="text_6">
			<g transform="translate(635.826028 455.598437)scale(0.1 -0.1)">
				<g>
					<path id="DejaVuSans-50_1_" d="M-590.8,560.1h34.4v-8.3h-46.3v8.3c3.7,3.9,8.8,9.1,15.3,15.6c6.5,6.5,10.5,10.7,12.2,12.6
						c3.2,3.5,5.4,6.5,6.6,9c1.3,2.5,1.9,4.9,1.9,7.2c0,3.9-1.4,7-4.1,9.5c-2.7,2.4-6.3,3.7-10.6,3.7c-3.1,0-6.4-0.5-9.8-1.6
						c-3.4-1.1-7.1-2.7-11-4.9v10c4,1.6,7.7,2.8,11.1,3.6c3.5,0.8,6.6,1.2,9.5,1.2c7.6,0,13.6-1.9,18.1-5.7
						c4.5-3.8,6.7-8.8,6.7-15.1c0-3-0.6-5.8-1.7-8.5c-1.1-2.7-3.2-5.8-6.1-9.5c-0.8-0.9-3.4-3.7-7.8-8.2
						C-576.7,574.5-582.9,568.2-590.8,560.1z"/>
				</g>
				<g>
					<path id="DejaVuSans-53_2_" d="M-535.6,624.7h38.7v-8.3h-29.7v-17.9c1.4,0.5,2.9,0.9,4.3,1.1c1.4,0.2,2.9,0.4,4.3,0.4
						c8.1,0,14.6-2.2,19.3-6.7c4.8-4.5,7.1-10.5,7.1-18.1c0-7.8-2.4-13.9-7.3-18.3c-4.9-4.3-11.8-6.5-20.7-6.5
						c-3.1,0-6.2,0.3-9.4,0.8c-3.2,0.5-6.4,1.3-9.8,2.3v9.9c2.9-1.6,6-2.8,9.1-3.6s6.4-1.2,9.9-1.2c5.6,0,10.1,1.5,13.4,4.4
						c3.3,3,4.9,7,4.9,12.1c0,5.1-1.6,9.1-4.9,12c-3.3,3-7.7,4.5-13.4,4.5c-2.6,0-5.3-0.3-7.9-0.9c-2.6-0.6-5.3-1.5-8-2.7V624.7z"/>
				</g>
				<g>
					<path id="DejaVuSans-48_7_" d="M-451,618.2c-5.1,0-8.9-2.5-11.5-7.5c-2.6-5-3.8-12.5-3.8-22.5c0-10,1.3-17.5,3.8-22.5
						c2.6-5,6.4-7.5,11.5-7.5c5.1,0,8.9,2.5,11.5,7.5c2.6,5,3.8,12.5,3.8,22.5c0,10-1.3,17.5-3.8,22.5
						C-442,615.7-445.9,618.2-451,618.2z M-451,626c8.2,0,14.4-3.2,18.7-9.7c4.3-6.5,6.5-15.8,6.5-28.1c0-12.3-2.2-21.6-6.5-28.1
						c-4.3-6.5-10.6-9.7-18.7-9.7c-8.2,0-14.4,3.2-18.7,9.7c-4.3,6.5-6.5,15.8-6.5,28.1c0,12.3,2.2,21.7,6.5,28.1
						C-465.4,622.8-459.1,626-451,626z"/>
				</g>
			</g>
		</g>
	</g>
	<g id="xtick_7">
		<g id="line2d_7">
			<g>
				<g>
					<path id="m26ab6ff80f_6_" class="st1" d="M686.2,385.8v3.5"/>
				</g>
			</g>
		</g>
		<g id="text_7">
			<g transform="translate(737.619886 455.598437)scale(0.1 -0.1)">
				<g>
					<path id="DejaVuSans-51" d="M-569.4,591.1c4.7-1,8.4-3.1,11-6.3c2.7-3.2,4-7.1,4-11.8c0-7.2-2.5-12.8-7.4-16.7
						c-4.9-3.9-12-5.9-21.1-5.9c-3.1,0-6.2,0.3-9.4,0.9c-3.2,0.6-6.6,1.5-10,2.7v9.5c2.7-1.6,5.7-2.8,9-3.6
						c3.3-0.8,6.7-1.2,10.2-1.2c6.2,0,10.9,1.2,14.1,3.7s4.9,6,4.9,10.6c0,4.3-1.5,7.7-4.5,10.1c-3,2.4-7.2,3.6-12.6,3.6h-8.5v8.1
						h8.9c4.8,0,8.6,1,11.1,2.9s3.9,4.7,3.9,8.4c0,3.7-1.3,6.6-4,8.6c-2.6,2-6.4,3-11.4,3c-2.7,0-5.6-0.3-8.7-0.9
						c-3.1-0.6-6.5-1.5-10.2-2.7v8.8c3.8,1,7.3,1.8,10.5,2.3c3.3,0.5,6.4,0.8,9.2,0.8c7.5,0,13.4-1.7,17.8-5.1
						c4.4-3.4,6.5-8,6.5-13.8c0-4-1.2-7.5-3.5-10.2S-565.2,592.2-569.4,591.1z"/>
				</g>
				<g>
					<path id="DejaVuSans-48_8_" d="M-514.6,618.2c-5.1,0-8.9-2.5-11.5-7.5c-2.6-5-3.8-12.5-3.8-22.5c0-10,1.3-17.5,3.8-22.5
						c2.6-5,6.4-7.5,11.5-7.5c5.1,0,8.9,2.5,11.5,7.5c2.6,5,3.8,12.5,3.8,22.5c0,10-1.3,17.5-3.8,22.5
						C-505.6,615.7-509.5,618.2-514.6,618.2z M-514.6,626c8.2,0,14.4-3.2,18.7-9.7c4.3-6.5,6.5-15.8,6.5-28.1
						c0-12.3-2.2-21.6-6.5-28.1c-4.3-6.5-10.6-9.7-18.7-9.7c-8.2,0-14.4,3.2-18.7,9.7c-4.3,6.5-6.5,15.8-6.5,28.1
						c0,12.3,2.2,21.7,6.5,28.1C-529,622.8-522.8,626-514.6,626z"/>
				</g>
				<g>
					<path id="DejaVuSans-48_9_" d="M-451,618.2c-5.1,0-8.9-2.5-11.5-7.5c-2.6-5-3.8-12.5-3.8-22.5c0-10,1.3-17.5,3.8-22.5
						c2.6-5,6.4-7.5,11.5-7.5c5.1,0,8.9,2.5,11.5,7.5c2.6,5,3.8,12.5,3.8,22.5c0,10-1.3,17.5-3.8,22.5
						C-442,615.7-445.9,618.2-451,618.2z M-451,626c8.2,0,14.4-3.2,18.7-9.7c4.3-6.5,6.5-15.8,6.5-28.1c0-12.3-2.2-21.6-6.5-28.1
						c-4.3-6.5-10.6-9.7-18.7-9.7c-8.2,0-14.4,3.2-18.7,9.7c-4.3,6.5-6.5,15.8-6.5,28.1c0,12.3,2.2,21.7,6.5,28.1
						C-465.4,622.8-459.1,626-451,626z"/>
				</g>
			</g>
		</g>
	</g>
	<g id="text_8">
		<g transform="translate(408.173438 469.276563)scale(0.1 -0.1)">
			<g>
				<path id="DejaVuSans-66" d="M-590.3,586.6v-26.7h15.8c5.3,0,9.2,1.1,11.8,3.3c2.6,2.2,3.8,5.6,3.8,10.1c0,4.6-1.3,7.9-3.8,10.1
					c-2.6,2.2-6.5,3.2-11.8,3.2H-590.3z M-590.3,616.6v-22h14.6c4.8,0,8.4,0.9,10.8,2.7c2.4,1.8,3.5,4.6,3.5,8.3
					c0,3.7-1.2,6.4-3.5,8.2c-2.4,1.8-5.9,2.7-10.8,2.7H-590.3z M-600.2,624.7h25.2c7.5,0,13.3-1.6,17.4-4.7
					c4.1-3.1,6.1-7.6,6.1-13.3c0-4.5-1-8-3.1-10.7s-5.1-4.3-9.2-4.9c4.9-1,8.6-3.2,11.3-6.5c2.7-3.3,4-7.4,4-12.4
					c0-6.5-2.2-11.5-6.6-15.1c-4.4-3.5-10.7-5.3-18.9-5.3h-26.2V624.7z"/>
			</g>
			<g>
				<path id="DejaVuSans-108" d="M-532,627.8h9v-76h-9V627.8z"/>
			</g>
			<g>
				<path id="DejaVuSans-111" d="M-483,600.2c-4.8,0-8.6-1.9-11.4-5.6s-4.2-8.9-4.2-15.5s1.4-11.7,4.2-15.5
					c2.8-3.8,6.6-5.6,11.5-5.6c4.8,0,8.6,1.9,11.4,5.7c2.8,3.8,4.2,8.9,4.2,15.4c0,6.5-1.4,11.6-4.2,15.4
					C-474.4,598.3-478.2,600.2-483,600.2z M-483,607.8c7.8,0,13.9-2.5,18.4-7.6c4.5-5.1,6.7-12.1,6.7-21.1c0-8.9-2.2-16-6.7-21.1
					c-4.5-5.1-10.6-7.6-18.4-7.6c-7.8,0-14,2.5-18.4,7.6c-4.4,5.1-6.7,12.1-6.7,21.1c0,9,2.2,16,6.7,21.1
					C-497,605.3-490.8,607.8-483,607.8z"/>
			</g>
			<g>
				<path id="DejaVuSans-99" d="M-403.7,604.4V596c-2.5,1.4-5.1,2.5-7.6,3.2c-2.6,0.7-5.1,1-7.7,1c-5.8,0-10.4-1.8-13.6-5.5
					c-3.2-3.7-4.8-8.9-4.8-15.5s1.6-11.9,4.8-15.6c3.2-3.7,7.8-5.5,13.6-5.5c2.6,0,5.2,0.3,7.7,1c2.6,0.7,5.1,1.8,7.6,3.2v-8.3
					c-2.5-1.2-5.1-2-7.8-2.6c-2.7-0.6-5.5-0.9-8.6-0.9c-8.2,0-14.8,2.6-19.6,7.8c-4.8,5.2-7.3,12.2-7.3,21c0,8.9,2.4,15.9,7.3,21
					c4.9,5.1,11.6,7.7,20.2,7.7c2.8,0,5.5-0.3,8.1-0.9C-408.7,606.4-406.1,605.6-403.7,604.4z"/>
			</g>
			<g>
				<path id="DejaVuSans-107" d="M-388.4,627.8h9v-44.9l26.8,23.6h11.5l-29-25.6l30.2-29.1h-11.7l-27.8,26.7v-26.7h-9V627.8z"/>
			</g>
			<g>
				<path id="DejaVuSans-32" d="M-339.5,551.8"/>
			</g>
			<g>
				<path id="DejaVuSans-110" d="M-252.9,584.8v-33h-9v32.7c0,5.2-1,9-3,11.6c-2,2.6-5,3.9-9.1,3.9c-4.9,0-8.7-1.5-11.5-4.6
					c-2.8-3.1-4.2-7.3-4.2-12.6v-30.9h-9v54.7h9V598c2.2,3.3,4.7,5.8,7.6,7.4c2.9,1.6,6.3,2.4,10.1,2.4c6.3,0,11-1.9,14.2-5.8
					C-254.5,598.1-252.9,592.4-252.9,584.8z"/>
			</g>
			<g>
				<path id="DejaVuSans-117" d="M-235.9,573.4v33.1h9v-32.8c0-5.2,1-9.1,3-11.7c2-2.6,5.1-3.9,9.1-3.9c4.8,0,8.7,1.5,11.5,4.6
					c2.8,3.1,4.2,7.3,4.2,12.7v31h9v-54.7h-9v8.4c-2.2-3.3-4.7-5.8-7.6-7.4c-2.9-1.6-6.2-2.4-10-2.4c-6.3,0-11.1,2-14.3,5.9
					C-234.2,560.2-235.9,565.9-235.9,573.4z"/>
			</g>
			<g>
				<path id="DejaVuSans-109" d="M-129,596c2.2,4,4.9,7,8.1,8.9s6.8,2.9,11,2.9c5.7,0,10.1-2,13.2-6c3.1-4,4.6-9.6,4.6-17v-33h-9
					v32.7c0,5.2-0.9,9.1-2.8,11.7c-1.9,2.5-4.7,3.8-8.5,3.8c-4.7,0-8.3-1.5-11-4.6c-2.7-3.1-4-7.3-4-12.6v-30.9h-9v32.7
					c0,5.3-0.9,9.2-2.8,11.7c-1.9,2.5-4.7,3.8-8.6,3.8c-4.6,0-8.2-1.6-11-4.7c-2.7-3.1-4-7.3-4-12.6v-30.9h-9v54.7h9V598
					c2.1,3.4,4.5,5.8,7.4,7.4c2.9,1.6,6.3,2.4,10.2,2.4c4,0,7.4-1,10.1-3C-132.4,602.8-130.3,599.9-129,596z"/>
			</g>
			<g>
				<path id="DejaVuSans-98" d="M-34.9,579.1c0,6.6-1.4,11.8-4.1,15.5s-6.5,5.6-11.2,5.6c-4.8,0-8.5-1.9-11.2-5.6
					c-2.7-3.8-4.1-8.9-4.1-15.5s1.4-11.8,4.1-15.5c2.7-3.8,6.5-5.6,11.2-5.6c4.8,0,8.5,1.9,11.2,5.6S-34.9,572.5-34.9,579.1z
					 M-65.5,598.2c1.9,3.2,4.3,5.7,7.2,7.2c2.9,1.6,6.3,2.4,10.3,2.4c6.6,0,12-2.6,16.2-7.9c4.2-5.3,6.2-12.2,6.2-20.8
					s-2.1-15.5-6.2-20.8c-4.1-5.3-9.5-7.9-16.2-7.9c-4,0-7.4,0.8-10.3,2.4c-2.9,1.6-5.3,4-7.2,7.2v-8.2h-9v76h9V598.2z"/>
			</g>
			<g>
				<path id="DejaVuSans-101" d="M36.1,581.4V577H-5.2c0.4-6.2,2.3-10.9,5.6-14.1s8-4.9,13.9-4.9c3.4,0,6.8,0.4,10,1.3
					s6.5,2.1,9.7,3.8v-8.5c-3.2-1.4-6.5-2.4-9.9-3.1s-6.8-1.1-10.3-1.1c-8.7,0-15.6,2.5-20.7,7.6c-5.1,5.1-7.6,12-7.6,20.6
					c0,8.9,2.4,16,7.3,21.3c4.8,5.3,11.4,7.9,19.6,7.9c7.4,0,13.2-2.4,17.5-7.1C34,596,36.1,589.6,36.1,581.4z M27.1,584.1
					c-0.1,4.9-1.4,8.8-4.1,11.8c-2.7,2.9-6.2,4.4-10.7,4.4c-5,0-9-1.4-12-4.2s-4.7-6.8-5.2-12L27.1,584.1z"/>
			</g>
			<g>
				<path id="DejaVuSans-114" d="M82.5,598.1c-1,0.6-2.1,1-3.3,1.3c-1.2,0.3-2.5,0.4-3.9,0.4c-5.1,0-9-1.7-11.7-5s-4.1-8-4.1-14.2
					v-28.8h-9v54.7h9V598c1.9,3.3,4.4,5.8,7.4,7.4c3,1.6,6.7,2.4,11,2.4c0.6,0,1.3,0,2-0.1c0.8-0.1,1.6-0.2,2.5-0.4L82.5,598.1z"/>
			</g>
		</g>
	</g>
</g>
<g id="matplotlib.axis_2">
	<g id="ytick_1">
		<g id="line2d_8">
			<g>
				<g>
					<path id="mebeeabb7ea" class="st1" d="M47,368.5h-3.5"/>
				</g>
			</g>
		</g>
		<g id="text_9">
			<g transform="translate(85.096875 427.502855)scale(0.1 -0.1)">
				<g>
					<path id="DejaVuSans-48_10_" d="M-578.2,618.2c-5.1,0-8.9-2.5-11.5-7.5c-2.6-5-3.8-12.5-3.8-22.5c0-10,1.3-17.5,3.8-22.5
						c2.6-5,6.4-7.5,11.5-7.5c5.1,0,8.9,2.5,11.5,7.5c2.6,5,3.8,12.5,3.8,22.5c0,10-1.3,17.5-3.8,22.5
						C-569.3,615.7-573.1,618.2-578.2,618.2z M-578.2,626c8.2,0,14.4-3.2,18.7-9.7c4.3-6.5,6.5-15.8,6.5-28.1
						c0-12.3-2.2-21.6-6.5-28.1c-4.3-6.5-10.6-9.7-18.7-9.7c-8.2,0-14.4,3.2-18.7,9.7c-4.3,6.5-6.5,15.8-6.5,28.1
						c0,12.3,2.2,21.7,6.5,28.1C-592.6,622.8-586.4,626-578.2,626z"/>
				</g>
				<g>
					<path id="DejaVuSans-46" d="M-535.7,564.2h10.3v-12.4h-10.3V564.2z"/>
				</g>
				<g>
					<path id="DejaVuSans-48_11_" d="M-482.8,618.2c-5.1,0-8.9-2.5-11.5-7.5c-2.6-5-3.8-12.5-3.8-22.5c0-10,1.3-17.5,3.8-22.5
						c2.6-5,6.4-7.5,11.5-7.5c5.1,0,8.9,2.5,11.5,7.5c2.6,5,3.8,12.5,3.8,22.5c0,10-1.3,17.5-3.8,22.5
						C-473.9,615.7-477.7,618.2-482.8,618.2z M-482.8,626c8.2,0,14.4-3.2,18.7-9.7c4.3-6.5,6.5-15.8,6.5-28.1
						c0-12.3-2.2-21.6-6.5-28.1c-4.3-6.5-10.6-9.7-18.7-9.7c-8.2,0-14.4,3.2-18.7,9.7c-4.3,6.5-6.5,15.8-6.5,28.1
						c0,12.3,2.2,21.7,6.5,28.1C-497.2,622.8-491,626-482.8,626z"/>
				</g>
			</g>
		</g>
	</g>
	<g id="ytick_2">
		<g id="line2d_9">
			<g>
				<g>
					<path id="mebeeabb7ea_1_" class="st1" d="M47,295.3h-3.5"/>
				</g>
			</g>
		</g>
		<g id="text_10">
			<g transform="translate(85.096875 354.316549)scale(0.1 -0.1)">
				<g>
					<path id="DejaVuSans-48_12_" d="M-578.2,618.2c-5.1,0-8.9-2.5-11.5-7.5c-2.6-5-3.8-12.5-3.8-22.5c0-10,1.3-17.5,3.8-22.5
						c2.6-5,6.4-7.5,11.5-7.5c5.1,0,8.9,2.5,11.5,7.5c2.6,5,3.8,12.5,3.8,22.5c0,10-1.3,17.5-3.8,22.5
						C-569.3,615.7-573.1,618.2-578.2,618.2z M-578.2,626c8.2,0,14.4-3.2,18.7-9.7c4.3-6.5,6.5-15.8,6.5-28.1
						c0-12.3-2.2-21.6-6.5-28.1c-4.3-6.5-10.6-9.7-18.7-9.7c-8.2,0-14.4,3.2-18.7,9.7c-4.3,6.5-6.5,15.8-6.5,28.1
						c0,12.3,2.2,21.7,6.5,28.1C-592.6,622.8-586.4,626-578.2,626z"/>
				</g>
				<g>
					<path id="DejaVuSans-46_1_" d="M-535.7,564.2h10.3v-12.4h-10.3V564.2z"/>
				</g>
				<g>
					<path id="DejaVuSans-50_2_" d="M-495.4,560.1h34.4v-8.3h-46.3v8.3c3.7,3.9,8.8,9.1,15.3,15.6c6.5,6.5,10.5,10.7,12.2,12.6
						c3.2,3.5,5.4,6.5,6.6,9c1.3,2.5,1.9,4.9,1.9,7.2c0,3.9-1.4,7-4.1,9.5c-2.7,2.4-6.3,3.7-10.6,3.7c-3.1,0-6.4-0.5-9.8-1.6
						c-3.4-1.1-7.1-2.7-11-4.9v10c4,1.6,7.7,2.8,11.1,3.6c3.5,0.8,6.6,1.2,9.5,1.2c7.6,0,13.6-1.9,18.1-5.7
						c4.5-3.8,6.7-8.8,6.7-15.1c0-3-0.6-5.8-1.7-8.5c-1.1-2.7-3.2-5.8-6.1-9.5c-0.8-0.9-3.4-3.7-7.8-8.2
						C-481.3,574.5-487.5,568.2-495.4,560.1z"/>
				</g>
			</g>
		</g>
	</g>
	<g id="ytick_3">
		<g id="line2d_10">
			<g>
				<g>
					<path id="mebeeabb7ea_2_" class="st1" d="M47,222.1h-3.5"/>
				</g>
			</g>
		</g>
		<g id="text_11">
			<g transform="translate(85.096875 281.130243)scale(0.1 -0.1)">
				<g>
					<path id="DejaVuSans-48_13_" d="M-578.2,618.2c-5.1,0-8.9-2.5-11.5-7.5c-2.6-5-3.8-12.5-3.8-22.5c0-10,1.3-17.5,3.8-22.5
						c2.6-5,6.4-7.5,11.5-7.5c5.1,0,8.9,2.5,11.5,7.5c2.6,5,3.8,12.5,3.8,22.5c0,10-1.3,17.5-3.8,22.5
						C-569.3,615.7-573.1,618.2-578.2,618.2z M-578.2,626c8.2,0,14.4-3.2,18.7-9.7c4.3-6.5,6.5-15.8,6.5-28.1
						c0-12.3-2.2-21.6-6.5-28.1c-4.3-6.5-10.6-9.7-18.7-9.7c-8.2,0-14.4,3.2-18.7,9.7c-4.3,6.5-6.5,15.8-6.5,28.1
						c0,12.3,2.2,21.7,6.5,28.1C-592.6,622.8-586.4,626-578.2,626z"/>
				</g>
				<g>
					<path id="DejaVuSans-46_2_" d="M-535.7,564.2h10.3v-12.4h-10.3V564.2z"/>
				</g>
				<g>
					<path id="DejaVuSans-52" d="M-476.8,616.1l-24.9-38.9h24.9V616.1z M-479.4,624.7h12.4v-47.5h10.4V569H-467v-17.2h-9.8V569
						h-32.9v9.5L-479.4,624.7z"/>
				</g>
			</g>
		</g>
	</g>
	<g id="ytick_4">
		<g id="line2d_11">
			<g>
				<g>
					<path id="mebeeabb7ea_3_" class="st1" d="M47,149h-3.5"/>
				</g>
			</g>
		</g>
		<g id="text_12">
			<g transform="translate(85.096875 207.943937)scale(0.1 -0.1)">
				<g>
					<path id="DejaVuSans-48_14_" d="M-578.2,618.2c-5.1,0-8.9-2.5-11.5-7.5c-2.6-5-3.8-12.5-3.8-22.5c0-10,1.3-17.5,3.8-22.5
						c2.6-5,6.4-7.5,11.5-7.5c5.1,0,8.9,2.5,11.5,7.5c2.6,5,3.8,12.5,3.8,22.5c0,10-1.3,17.5-3.8,22.5
						C-569.3,615.7-573.1,618.2-578.2,618.2z M-578.2,626c8.2,0,14.4-3.2,18.7-9.7c4.3-6.5,6.5-15.8,6.5-28.1
						c0-12.3-2.2-21.6-6.5-28.1c-4.3-6.5-10.6-9.7-18.7-9.7c-8.2,0-14.4,3.2-18.7,9.7c-4.3,6.5-6.5,15.8-6.5,28.1
						c0,12.3,2.2,21.7,6.5,28.1C-592.6,622.8-586.4,626-578.2,626z"/>
				</g>
				<g>
					<path id="DejaVuSans-46_3_" d="M-535.7,564.2h10.3v-12.4h-10.3V564.2z"/>
				</g>
				<g>
					<path id="DejaVuSans-54" d="M-481.6,592.2c-4.4,0-7.9-1.5-10.5-4.5c-2.6-3-3.9-7.2-3.9-12.4c0-5.2,1.3-9.4,3.9-12.4
						c2.6-3,6.1-4.6,10.5-4.6s7.9,1.5,10.5,4.6c2.6,3.1,3.9,7.2,3.9,12.4c0,5.3-1.3,9.4-3.9,12.4
						C-473.6,590.7-477.1,592.2-481.6,592.2z M-462,623.1v-9c-2.5,1.2-5,2.1-7.5,2.7c-2.5,0.6-5,0.9-7.5,0.9
						c-6.5,0-11.5-2.2-14.9-6.6c-3.4-4.4-5.4-11-5.9-19.9c1.9,2.8,4.3,5,7.2,6.5c2.9,1.5,6.1,2.3,9.6,2.3c7.3,0,13.1-2.2,17.4-6.7
						c4.2-4.4,6.4-10.5,6.4-18.1c0-7.5-2.2-13.5-6.6-18c-4.4-4.5-10.3-6.8-17.7-6.8c-8.4,0-14.9,3.2-19.3,9.7
						c-4.5,6.5-6.7,15.8-6.7,28.1c0,11.5,2.7,20.7,8.2,27.6s12.8,10.3,22,10.3c2.5,0,5-0.2,7.5-0.7S-464.7,624.1-462,623.1z"/>
				</g>
			</g>
		</g>
	</g>
	<g id="ytick_5">
		<g id="line2d_12">
			<g>
				<g>
					<path id="mebeeabb7ea_4_" class="st1" d="M47,75.8h-3.5"/>
				</g>
			</g>
		</g>
		<g id="text_13">
			<g transform="translate(85.096875 134.757631)scale(0.1 -0.1)">
				<g>
					<path id="DejaVuSans-48_15_" d="M-578.2,618.2c-5.1,0-8.9-2.5-11.5-7.5c-2.6-5-3.8-12.5-3.8-22.5c0-10,1.3-17.5,3.8-22.5
						c2.6-5,6.4-7.5,11.5-7.5c5.1,0,8.9,2.5,11.5,7.5c2.6,5,3.8,12.5,3.8,22.5c0,10-1.3,17.5-3.8,22.5
						C-569.3,615.7-573.1,618.2-578.2,618.2z M-578.2,626c8.2,0,14.4-3.2,18.7-9.7c4.3-6.5,6.5-15.8,6.5-28.1
						c0-12.3-2.2-21.6-6.5-28.1c-4.3-6.5-10.6-9.7-18.7-9.7c-8.2,0-14.4,3.2-18.7,9.7c-4.3,6.5-6.5,15.8-6.5,28.1
						c0,12.3,2.2,21.7,6.5,28.1C-592.6,622.8-586.4,626-578.2,626z"/>
				</g>
				<g>
					<path id="DejaVuSans-46_4_" d="M-535.7,564.2h10.3v-12.4h-10.3V564.2z"/>
				</g>
				<g>
					<path id="DejaVuSans-56" d="M-482.8,586.5c-4.7,0-8.4-1.3-11.1-3.8c-2.7-2.5-4-6-4-10.3c0-4.4,1.3-7.8,4-10.4
						c2.7-2.5,6.4-3.8,11.1-3.8s8.4,1.3,11.1,3.8c2.7,2.5,4.1,6,4.1,10.3c0,4.4-1.3,7.8-4,10.3
						C-474.4,585.2-478.1,586.5-482.8,586.5z M-492.7,590.6c-4.2,1-7.5,3-9.9,5.9c-2.4,2.9-3.5,6.4-3.5,10.6
						c0,5.8,2.1,10.4,6.2,13.8c4.2,3.4,9.8,5.1,17.1,5.1c7.3,0,13-1.7,17.1-5.1s6.2-8,6.2-13.8c0-4.2-1.2-7.7-3.5-10.6
						c-2.4-2.9-5.6-4.9-9.8-5.9c4.8-1.1,8.4-3.3,11.1-6.5c2.7-3.2,4-7.2,4-11.8c0-7.1-2.2-12.5-6.5-16.3c-4.3-3.8-10.5-5.7-18.5-5.7
						c-8,0-14.2,1.9-18.5,5.7c-4.3,3.8-6.5,9.2-6.5,16.3c0,4.6,1.3,8.6,4,11.8C-501.1,587.4-497.4,589.5-492.7,590.6z M-496.3,606.2
						c0-3.8,1.2-6.7,3.5-8.8c2.4-2.1,5.7-3.2,9.9-3.2c4.2,0,7.6,1.1,9.9,3.2c2.4,2.1,3.6,5.1,3.6,8.8c0,3.8-1.2,6.7-3.6,8.8
						c-2.4,2.1-5.7,3.2-9.9,3.2c-4.3,0-7.6-1.1-9.9-3.2C-495.1,613-496.3,610-496.3,606.2z"/>
				</g>
			</g>
		</g>
	</g>
	<g id="text_14">
		<g transform="translate(79.017187 330.172031)rotate(-90)scale(0.1 -0.1)">
			<g>
				<path id="DejaVuSans-78" d="M561.6,682.9h13.3l32.3-61v61h9.6V610h-13.3l-32.3,61v-61h-9.6V682.9z"/>
			</g>
			<g>
				<path id="DejaVuSans-101_1_" d="M682.8,639.6v-4.4h-41.3c0.4-6.2,2.3-10.9,5.6-14.1c3.3-3.2,8-4.9,13.9-4.9
					c3.4,0,6.8,0.4,10,1.3c3.2,0.8,6.5,2.1,9.7,3.8v-8.5c-3.2-1.4-6.5-2.4-9.9-3.1c-3.4-0.7-6.8-1.1-10.3-1.1
					c-8.7,0-15.6,2.5-20.7,7.6c-5.1,5.1-7.6,12-7.6,20.6c0,8.9,2.4,16,7.2,21.3c4.8,5.3,11.4,7.9,19.6,7.9c7.4,0,13.2-2.4,17.5-7.1
					C680.7,654.2,682.8,647.7,682.8,639.6z M673.9,642.2c-0.1,4.9-1.4,8.8-4.1,11.8c-2.7,2.9-6.2,4.4-10.7,4.4c-5,0-9-1.4-12-4.2
					c-3-2.8-4.7-6.8-5.2-12L673.9,642.2z"/>
			</g>
			<g>
				<path id="DejaVuSans-116" d="M706.5,680.2v-15.5H725v-7h-18.5V628c0-4.5,0.6-7.3,1.8-8.6s3.7-1.9,7.5-1.9h9.2V610h-9.2
					c-6.9,0-11.7,1.3-14.4,3.9c-2.6,2.6-4,7.3-4,14.1v29.7h-6.6v7h6.6v15.5H706.5z"/>
			</g>
			<g>
				<path id="DejaVuSans-119" d="M731.6,664.7h9l11.2-42.7l11.2,42.7h10.6l11.2-42.7l11.2,42.7h9L790.6,610h-10.6l-11.8,44.8
					L756.5,610h-10.6L731.6,664.7z"/>
			</g>
			<g>
				<path id="DejaVuSans-111_1_" d="M839.8,658.4c-4.8,0-8.6-1.9-11.4-5.6c-2.8-3.8-4.2-8.9-4.2-15.5s1.4-11.7,4.2-15.5
					c2.8-3.8,6.6-5.6,11.5-5.6c4.8,0,8.6,1.9,11.4,5.7c2.8,3.8,4.2,8.9,4.2,15.4c0,6.5-1.4,11.6-4.2,15.4
					C848.3,656.5,844.6,658.4,839.8,658.4z M839.8,666c7.8,0,13.9-2.5,18.4-7.6c4.5-5.1,6.7-12.1,6.7-21.1c0-8.9-2.2-16-6.7-21.1
					c-4.5-5.1-10.6-7.6-18.4-7.6c-7.8,0-14,2.5-18.4,7.6c-4.4,5.1-6.7,12.1-6.7,21.1c0,9,2.2,16,6.7,21.1
					C825.8,663.5,831.9,666,839.8,666z"/>
			</g>
			<g>
				<path id="DejaVuSans-114_1_" d="M911.4,656.3c-1,0.6-2.1,1-3.3,1.3c-1.2,0.3-2.5,0.4-3.9,0.4c-5.1,0-9-1.7-11.7-5
					s-4.1-8-4.1-14.2V610h-9v54.7h9v-8.5c1.9,3.3,4.4,5.8,7.4,7.4c3,1.6,6.7,2.4,11,2.4c0.6,0,1.3,0,2-0.1c0.8-0.1,1.6-0.2,2.5-0.4
					L911.4,656.3z"/>
			</g>
			<g>
				<path id="DejaVuSans-107_1_" d="M920.5,686h9v-44.9l26.8,23.6h11.5l-29-25.6l30.2-29.1h-11.7l-27.8,26.7V610h-9V686z"/>
			</g>
			<g>
				<path id="DejaVuSans-32_1_" d="M969.4,610"/>
			</g>
			<g>
				<path id="DejaVuSans-105" d="M1010.6,664.7h9V610h-9V664.7z M1010.6,686h9v-11.4h-9V686z"/>
			</g>
			<g>
				<path id="DejaVuSans-110_1_" d="M1083.8,643v-33h-9v32.7c0,5.2-1,9-3,11.6c-2,2.6-5,3.9-9.1,3.9c-4.9,0-8.7-1.5-11.5-4.6
					c-2.8-3.1-4.2-7.3-4.2-12.6V610h-9v54.7h9v-8.5c2.2,3.3,4.7,5.8,7.6,7.4c2.9,1.6,6.3,2.4,10.1,2.4c6.3,0,11-1.9,14.2-5.8
					C1082.2,656.3,1083.8,650.6,1083.8,643z"/>
			</g>
			<g>
				<path id="DejaVuSans-102" d="M1129.4,686v-7.5h-8.6c-3.2,0-5.5-0.7-6.7-2c-1.2-1.3-1.9-3.6-1.9-7v-4.8h14.8v-7h-14.8V610h-9
					v47.7h-8.6v7h8.6v3.8c0,6.1,1.4,10.5,4.2,13.3c2.8,2.8,7.3,4.2,13.5,4.2H1129.4z"/>
			</g>
			<g>
				<path id="DejaVuSans-111_2_" d="M1158.1,658.4c-4.8,0-8.6-1.9-11.4-5.6c-2.8-3.8-4.2-8.9-4.2-15.5s1.4-11.7,4.2-15.5
					c2.8-3.8,6.6-5.6,11.5-5.6c4.8,0,8.6,1.9,11.4,5.7c2.8,3.8,4.2,8.9,4.2,15.4c0,6.5-1.4,11.6-4.2,15.4
					C1166.7,656.5,1162.9,658.4,1158.1,658.4z M1158.1,666c7.8,0,13.9-2.5,18.4-7.6c4.5-5.1,6.7-12.1,6.7-21.1
					c0-8.9-2.2-16-6.7-21.1c-4.5-5.1-10.6-7.6-18.4-7.6c-7.8,0-14,2.5-18.4,7.6c-4.4,5.1-6.7,12.1-6.7,21.1c0,9,2.2,16,6.7,21.1
					C1144.1,663.5,1150.3,666,1158.1,666z"/>
			</g>
			<g>
				<path id="DejaVuSans-114_2_" d="M1229.8,656.3c-1,0.6-2.1,1-3.3,1.3c-1.2,0.3-2.5,0.4-3.9,0.4c-5.1,0-9-1.7-11.7-5
					s-4.1-8-4.1-14.2V610h-9v54.7h9v-8.5c1.9,3.3,4.4,5.8,7.4,7.4c3,1.6,6.7,2.4,11,2.4c0.6,0,1.3,0,2-0.1c0.8-0.1,1.6-0.2,2.5-0.4
					L1229.8,656.3z"/>
			</g>
			<g>
				<path id="DejaVuSans-109_1_" d="M1281.8,654.2c2.2,4,4.9,7,8.1,8.9s6.8,2.9,11,2.9c5.7,0,10.1-2,13.2-6c3.1-4,4.6-9.6,4.6-17
					v-33h-9v32.7c0,5.2-0.9,9.1-2.8,11.7c-1.9,2.5-4.7,3.8-8.5,3.8c-4.7,0-8.3-1.5-11-4.6c-2.7-3.1-4-7.3-4-12.6V610h-9v32.7
					c0,5.3-0.9,9.2-2.8,11.7c-1.9,2.5-4.7,3.8-8.6,3.8c-4.6,0-8.2-1.6-11-4.7c-2.7-3.1-4-7.3-4-12.6V610h-9v54.7h9v-8.5
					c2.1,3.4,4.5,5.8,7.4,7.4c2.9,1.6,6.3,2.4,10.2,2.4c4,0,7.4-1,10.1-3C1278.4,661,1280.5,658,1281.8,654.2z"/>
			</g>
			<g>
				<path id="DejaVuSans-97" d="M1361.5,637.5c-7.3,0-12.3-0.8-15.1-2.5c-2.8-1.7-4.2-4.5-4.2-8.5c0-3.2,1.1-5.7,3.2-7.6
					c2.1-1.9,5-2.8,8.6-2.8c5,0,9,1.8,12,5.3c3,3.5,4.5,8.2,4.5,14.1v2H1361.5z M1379.4,641.2V610h-9v8.3c-2.1-3.3-4.6-5.8-7.7-7.3
					s-6.8-2.4-11.2-2.4c-5.6,0-10,1.6-13.4,4.7c-3.3,3.1-5,7.4-5,12.6c0,6.1,2.1,10.8,6.2,13.9c4.1,3.1,10.3,4.7,18.4,4.7h12.6v0.9
					c0,4.1-1.4,7.3-4.1,9.6s-6.5,3.4-11.5,3.4c-3.1,0-6.2-0.4-9.1-1.1c-3-0.8-5.8-1.9-8.5-3.4v8.3c3.3,1.3,6.5,2.2,9.6,2.8
					c3.1,0.6,6.1,1,9,1c7.9,0,13.8-2.1,17.7-6.2C1377.5,655.8,1379.4,649.5,1379.4,641.2z"/>
			</g>
			<g>
				<path id="DejaVuSans-116_1_" d="M1406.8,680.2v-15.5h18.5v-7h-18.5V628c0-4.5,0.6-7.3,1.8-8.6s3.7-1.9,7.5-1.9h9.2V610h-9.2
					c-6.9,0-11.7,1.3-14.4,3.9c-2.6,2.6-4,7.3-4,14.1v29.7h-6.6v7h6.6v15.5H1406.8z"/>
			</g>
			<g>
				<path id="DejaVuSans-105_1_" d="M1437.1,664.7h9V610h-9V664.7z M1437.1,686h9v-11.4h-9V686z"/>
			</g>
			<g>
				<path id="DejaVuSans-111_3_" d="M1486.1,658.4c-4.8,0-8.6-1.9-11.4-5.6c-2.8-3.8-4.2-8.9-4.2-15.5s1.4-11.7,4.2-15.5
					c2.8-3.8,6.6-5.6,11.5-5.6c4.8,0,8.6,1.9,11.4,5.7c2.8,3.8,4.2,8.9,4.2,15.4c0,6.5-1.4,11.6-4.2,15.4
					C1494.7,656.5,1490.9,658.4,1486.1,658.4z M1486.1,666c7.8,0,13.9-2.5,18.4-7.6c4.5-5.1,6.7-12.1,6.7-21.1
					c0-8.9-2.2-16-6.7-21.1c-4.5-5.1-10.6-7.6-18.4-7.6c-7.8,0-14,2.5-18.4,7.6c-4.4,5.1-6.7,12.1-6.7,21.1c0,9,2.2,16,6.7,21.1
					C1472.1,663.5,1478.2,666,1486.1,666z"/>
			</g>
			<g>
				<path id="DejaVuSans-110_2_" d="M1571.6,643v-33h-9v32.7c0,5.2-1,9-3,11.6c-2,2.6-5,3.9-9.1,3.9c-4.9,0-8.7-1.5-11.5-4.6
					c-2.8-3.1-4.2-7.3-4.2-12.6V610h-9v54.7h9v-8.5c2.2,3.3,4.7,5.8,7.6,7.4c2.9,1.6,6.3,2.4,10.1,2.4c6.3,0,11-1.9,14.2-5.8
					C1569.9,656.3,1571.6,650.6,1571.6,643z"/>
			</g>
			<g>
				<path id="DejaVuSans-97_1_" d="M1614.3,637.5c-7.3,0-12.3-0.8-15.1-2.5c-2.8-1.7-4.2-4.5-4.2-8.5c0-3.2,1.1-5.7,3.2-7.6
					c2.1-1.9,5-2.8,8.6-2.8c5,0,9,1.8,12,5.3c3,3.5,4.5,8.2,4.5,14.1v2H1614.3z M1632.2,641.2V610h-9v8.3c-2.1-3.3-4.6-5.8-7.7-7.3
					s-6.8-2.4-11.2-2.4c-5.6,0-10,1.6-13.4,4.7c-3.3,3.1-5,7.4-5,12.6c0,6.1,2.1,10.8,6.2,13.9c4.1,3.1,10.3,4.7,18.4,4.7h12.6v0.9
					c0,4.1-1.4,7.3-4.1,9.6s-6.5,3.4-11.5,3.4c-3.1,0-6.2-0.4-9.1-1.1c-3-0.8-5.8-1.9-8.5-3.4v8.3c3.3,1.3,6.5,2.2,9.6,2.8
					c3.1,0.6,6.1,1,9,1c7.9,0,13.8-2.1,17.7-6.2C1630.3,655.8,1632.2,649.5,1632.2,641.2z"/>
			</g>
			<g>
				<path id="DejaVuSans-108_1_" d="M1650.7,686h9v-76h-9V686z"/>
			</g>
			<g>
				<path id="DejaVuSans-32_2_" d="M1669.1,610"/>
			</g>
			<g>
				<path id="DejaVuSans-99_1_" d="M1749.7,662.6v-8.4c-2.5,1.4-5.1,2.5-7.6,3.2c-2.6,0.7-5.1,1-7.7,1c-5.8,0-10.4-1.8-13.6-5.5
					c-3.2-3.7-4.8-8.9-4.8-15.5s1.6-11.9,4.8-15.6c3.2-3.7,7.8-5.5,13.6-5.5c2.6,0,5.2,0.3,7.7,1c2.6,0.7,5.1,1.8,7.6,3.2v-8.3
					c-2.5-1.2-5.1-2-7.8-2.6c-2.7-0.6-5.5-0.9-8.6-0.9c-8.2,0-14.8,2.6-19.6,7.8c-4.8,5.2-7.3,12.2-7.3,21c0,8.9,2.4,15.9,7.3,21
					c4.9,5.1,11.6,7.7,20.2,7.7c2.8,0,5.5-0.3,8.1-0.9C1744.6,664.6,1747.2,663.7,1749.7,662.6z"/>
			</g>
			<g>
				<path id="DejaVuSans-117_1_" d="M1764.4,631.6v33.1h9v-32.8c0-5.2,1-9.1,3-11.7c2-2.6,5.1-3.9,9.1-3.9c4.8,0,8.7,1.5,11.5,4.6
					c2.8,3.1,4.2,7.3,4.2,12.7v31h9V610h-9v8.4c-2.2-3.3-4.7-5.8-7.6-7.4c-2.9-1.6-6.2-2.4-10-2.4c-6.3,0-11.1,2-14.3,5.9
					C1766,618.3,1764.4,624.1,1764.4,631.6z"/>
			</g>
			<g>
				<path id="DejaVuSans-114_3_" d="M1860.4,656.3c-1,0.6-2.1,1-3.3,1.3c-1.2,0.3-2.5,0.4-3.9,0.4c-5.1,0-9-1.7-11.7-5
					s-4.1-8-4.1-14.2V610h-9v54.7h9v-8.5c1.9,3.3,4.4,5.8,7.4,7.4c3,1.6,6.7,2.4,11,2.4c0.6,0,1.3,0,2-0.1c0.8-0.1,1.6-0.2,2.5-0.4
					L1860.4,656.3z"/>
			</g>
			<g>
				<path id="DejaVuSans-114_4_" d="M1901.5,656.3c-1,0.6-2.1,1-3.3,1.3c-1.2,0.3-2.5,0.4-3.9,0.4c-5.1,0-9-1.7-11.7-5
					s-4.1-8-4.1-14.2V610h-9v54.7h9v-8.5c1.9,3.3,4.4,5.8,7.4,7.4c3,1.6,6.7,2.4,11,2.4c0.6,0,1.3,0,2-0.1c0.8-0.1,1.6-0.2,2.5-0.4
					L1901.5,656.3z"/>
			</g>
			<g>
				<path id="DejaVuSans-101_2_" d="M1957.6,639.6v-4.4h-41.3c0.4-6.2,2.3-10.9,5.6-14.1c3.3-3.2,8-4.9,13.9-4.9
					c3.4,0,6.8,0.4,10,1.3c3.2,0.8,6.5,2.1,9.7,3.8v-8.5c-3.2-1.4-6.5-2.4-9.9-3.1c-3.4-0.7-6.8-1.1-10.3-1.1
					c-8.7,0-15.6,2.5-20.7,7.6c-5.1,5.1-7.6,12-7.6,20.6c0,8.9,2.4,16,7.2,21.3c4.8,5.3,11.4,7.9,19.6,7.9c7.4,0,13.2-2.4,17.5-7.1
					C1955.5,654.2,1957.6,647.7,1957.6,639.6z M1948.6,642.2c-0.1,4.9-1.4,8.8-4.1,11.8c-2.7,2.9-6.2,4.4-10.7,4.4
					c-5,0-9-1.4-12-4.2c-3-2.8-4.7-6.8-5.2-12L1948.6,642.2z"/>
			</g>
			<g>
				<path id="DejaVuSans-110_3_" d="M2017.8,643v-33h-9v32.7c0,5.2-1,9-3,11.6c-2,2.6-5,3.9-9.1,3.9c-4.9,0-8.7-1.5-11.5-4.6
					c-2.8-3.1-4.2-7.3-4.2-12.6V610h-9v54.7h9v-8.5c2.2,3.3,4.7,5.8,7.6,7.4c2.9,1.6,6.3,2.4,10.1,2.4c6.3,0,11-1.9,14.2-5.8
					C2016.2,656.3,2017.8,650.6,2017.8,643z"/>
			</g>
			<g>
				<path id="DejaVuSans-99_2_" d="M2075.1,662.6v-8.4c-2.5,1.4-5.1,2.5-7.6,3.2s-5.1,1-7.7,1c-5.8,0-10.4-1.8-13.6-5.5
					c-3.2-3.7-4.8-8.9-4.8-15.5s1.6-11.9,4.8-15.6c3.2-3.7,7.8-5.5,13.6-5.5c2.6,0,5.2,0.3,7.7,1s5.1,1.8,7.6,3.2v-8.3
					c-2.5-1.2-5.1-2-7.8-2.6c-2.7-0.6-5.5-0.9-8.6-0.9c-8.2,0-14.8,2.6-19.6,7.8c-4.8,5.2-7.3,12.2-7.3,21c0,8.9,2.4,15.9,7.3,21
					c4.9,5.1,11.6,7.7,20.2,7.7c2.8,0,5.5-0.3,8.1-0.9C2070.1,664.6,2072.6,663.7,2075.1,662.6z"/>
			</g>
			<g>
				<path id="DejaVuSans-121" d="M2113.5,604.9c-2.5-6.5-5-10.8-7.4-12.7c-2.4-2-5.6-3-9.7-3h-7.2v7.5h5.3c2.5,0,4.4,0.6,5.8,1.8
					c1.4,1.2,2.9,3.9,4.5,8.3l1.6,4.1l-22.1,53.8h9.5l17.1-42.8l17.1,42.8h9.5L2113.5,604.9z"/>
			</g>
		</g>
	</g>
</g>
<g id="line2d_13">
	<g>
		<defs>
			<rect id="SVGID_1_" x="47" y="5.3" width="669.6" height="380.5"/>
		</defs>
		<clipPath id="SVGID_2_">
			<use xlink:href="#SVGID_1_"  style="overflow:visible;"/>
		</clipPath>
		<path class="st2" d="M77.4,368.5l2-112.2l2-70.7l2-19l2-17.6l2-10.5l2-23.4l2-17.4l2-10.2l2,0.9l2-7.8l2-4.3l2-11.5l2-5.6l2,4.7
			l2-0.2l2-4.2l2-3.8l2-0.8l2-3.2l2-4.6l2-1.6l2,1.6l2,0.6l2-8.8l2-1.6l2-1l2-4.4l2,0.7l2,0.2l2-0.5l2-0.2l2-1.2h2l2,6.3l2,1.5
			l2-3.7l2,2.9l2-9.3l2,2.7l2,3.2l2-1.7l2-1.2l2,2l2,3.4l2,3.2l2,5.1l2-6.1l2-2l2,2.2l2,0.2l2-2.7l2-3.2l2-2.7l2,1.5l4.1,7.3l2,1
			l2-1.5l2-4.9l2-1.5l2-2.2l2-2.7l2,2l2,1.5l2,5.1l4.1,4.9l2-1.7l2-5.9l2,0.5l2,2.4l2,1.2l2,3.2l2-10l2,6.1l2-0.5l2-1l2-2l2,2l2,0.5
			l2-5.1l2,2.4l2-0.5l2,3.2l2-6.3l2,0.2l2-2.4l2,2.2l2,0.2l2,4.4h2l2-2l2,1.2l2,3.9l2-1l2,1.5l2-4.6h2l2,0.7l2,6.6l2,2.9l2-4.4
			l2,0.5l2,0.2l2-5.4l2-2l2-2.9l4.1-0.5l2,3.9l2,4.1l2-2.4l2,3.2l2,0.5l2-1.5l2-0.5l2-2.9l2-3.7l4.1-2.9l2,2.9l2,1.7l2,3.2l2,1.5
			l2,1.2l2-3.2l2-1.2l2,0.5l2,1.2l2,1.5l2,4.1h4.1l4.1-8.5l2,5.4l2,0.7l2-0.5l2,3.9h2l2-0.5l2-7.6l2,4.1l2-1.5l2-5.4l2,3.9l2,2.4
			l2-2.7l2-0.7l2,3.4l2-5.6l2,2.7l2-1l2,0.7l2-3.7l2-0.2l2,4.4l2,1.2h2l2-0.5l2-1l2,4.1l2-0.7l2-3.4l2-0.2l2-3.7l2,3.7l2,2.9l2,1.2
			l2-3.2l2-3.7l2,2l4.1-0.5l2,2l2-1.5l2-6.6l2,2.2l2,3.7l2,1.7l2,2l2-2.4l2-6.6l2,1.7l2,1l2,4.4l4.1,0.5l2-3.4l2,1.5l2,4.9l2-1.7
			l2-3.7l2,1l2-0.2l2,1.2l2,0.2l2,2h2l2,1.2l2-4.1l2-1.2l4.1,6.3l2-1l2-0.7l2-3.9l2,0.5l2-1l2,3.7l2,4.6l2-2l2,5.1l2-3.9l2-5.1
			l2,2.4l2-1.7l2,4.1l2-2.4l2,0.2l2,1.7l2-3.7l2-5.1l2-2.4l2,1.2l2,2.9l2-0.7l2,4.9l2,4.1l2-2.4l2,2.9l2,3.7l2-1.7l2-3.2l2,0.2l2,2
			l2-3.4l2,0.5l2-7.8l2,1.2l4.1,1.5l2-5.4l2-2.2l2,4.6l2,5.4l2-0.7l2,1l2,2.2l2,1l2,3.2l2,0.7l2,1.2l4.1-7.8l2,0.5l2,0.2l2,1.2
			l2,3.9l2,1l2-6.3l2,1l2,2l2-0.7l2-1.7l2-2.4l2,2.4l2,5.4l4.1,2.4l2-8.1l2,1.5l2-5.4l2-2l2,2l2,0.5l2,2.9l2,1.2l2-1.5l2-0.7l2-1.7
			l2,2.2h2l2,2.4l2,0.7l2-2.9l2,3.2l2-9l2-0.7l2,2l2,3.9l2-0.7l2-3.4l2,3.7l2,3.9l2,2l2,2.2l2-0.5l2-3.9l0,0"/>
	</g>
</g>
<g id="line2d_14">
	<g>
		<defs>
			<rect id="SVGID_3_" x="47" y="5.3" width="669.6" height="380.5"/>
		</defs>
		<clipPath id="SVGID_4_">
			<use xlink:href="#SVGID_3_"  style="overflow:visible;"/>
		</clipPath>
		<path class="st3" d="M77.4,368.5l2-122l2-48.2l4.1-47l2-24.4l2-29.3l2-16.3l2-10.8l2,3.8l4.1,10.9l2-7l2-6.5l2-3.4l2-3l2,0.6
			l2-5.6l2-3.3l2-13.1l2-5.2l2,0.3l2-1.2l2,3.3l2-0.4l2-0.9l2,1.3l2-3.1l2-3.9l2,2.2l2-0.5l2,0.7l2,2.2l2,2l2,1.7l2-5.1l2-6.3l2,2.9
			l2,4.9l2-7.3l2-1.7h2l2,2l2-5.4l2,2l2,2.2l2,1l2,3.2l2-2.4l2,1.2l2-0.7l2,0.5l2-0.7l2-3.7l2,2.2l2,4.1l2-1.5l2,1.2l2-5.6l2-2
			l2,0.5l2,2.4l2,2.9l2,2.7h2l2,5.9l2-1.2l2-3.9l2,0.5l2-8.8l2-1l2-0.2l2-1.7l2,3.9l2,1.7h2l2,4.9l2,5.4l2-4.1l2-2.2l2-3.7l2,3.4
			l2-1.2l2,0.2l2,2.7h2l2,2.9l2-3.2l2,2.2l2,2.7l2-4.1l2-2l2-2.2l2,1l2-1.7h4.1l4.1,1.5l2,2.2l2,0.5l2-4.1l4.1,1l2-3.4l2-1.2l2-2.7
			l2,0.2l2,1.7l2,2.2l2-0.7l2,1.7l2,2l2,2.4h2l2,1.7l2-1.5l2-3.4l2,1l2-2.7l2-0.7l2,4.1l2,2.4l2-2.7l2,0.7l2,1.5l2,0.5l2,3.7l2-3.2
			l2-1.5l2,1.5l2-0.5l2-1.5l2-4.1l2-3.4l2,1.5l2,2.4l2,4.1l2,2.7l2,1.5l2-3.4l2-4.1l2-2l2,2.2l2,0.5l2,4.4l2-1l2-4.4l2,2.2l2,1
			l2,1.2h2l2,3.4l2,2.4h2l2-6.1l2,2.7l2,0.5l2-5.9l2-2l4.1-2.4l2,2.2l2,3.7l2-2.9l2,3.7l2-2.2l2-1.5l2,2.7l2,0.2l2-1.5l2-2.7l2,0.2
			l2,1.5l2,4.9l2,1.2l2-2.2l2,2.7l2-3.9l2-0.5l2,4.6l2-2.7l4.1-1l2-1.7l2,4.9l2-1l2-0.7l2,1.7l2-6.8l2-2.4l2,0.7l2,2.9l2-3.9l2,4.4
			l4.1,1.5l2,5.4l2,0.7l2-8.3l2-2.9h4.1l4.1,7.3l4.1,10l2-1.5l2-4.9l2-0.5l2-2l2,4.6l2,1.7h4.1l2-0.2l2,0.7l2-4.1l2,3.4l2-7.1l2-9.8
			l2,3.2l2,5.6l2,2h2l2,3.2l2,0.5l2-0.2l2-2.7l2,1.2l2-7.1l2,5.4l2,1.2l2-2.2l2,6.6l2-2.7l2-2l2-4.1l2-3.2l2,4.4l2,5.4l2-1l2-2.4
			l2-0.7l2,3.9l2-6.1l2,2l2,3.2l2-2.4l2-2.9l2,1.2l2-1.5l2-0.7l2,3.7l2,0.5l2,3.4l2-1.2l2,1l2-5.4h2l2-3.4l2,1.5l2,2.7l2,0.2l2-5.9
			h2l2,2l2-0.2l2,2.2l2,1.5l2,0.7l2-2.9l2-3.4l2-0.2l2-1l2,0.2l2,1l2,3.2l2,1.7l2,1.5l2-6.6l2,2l2-0.2l2,2.9l2-2.4l2-3.2l2,2.2
			l2,1.7l2,1l4.1-3.9l2-0.2l2-2.4l2-5.6l2,2.7l2,1.7l2,0.7l2,3.2l2,2.4l2,0.5l0,0"/>
	</g>
</g>
<g id="line2d_15">
	<g>
		<defs>
			<rect id="SVGID_5_" x="47" y="5.3" width="669.6" height="380.5"/>
		</defs>
		<clipPath id="SVGID_6_">
			<use xlink:href="#SVGID_5_"  style="overflow:visible;"/>
		</clipPath>
		<path class="st4" d="M77.4,368.5l2-109.8l2-56.7l2-32.6l2-7.1l2-37.5l2-10.7l2-19.7l2-11.4l2,10l2-3.3l2-8.4l2,0.6l2-18.5l2,0.3
			l2-1.5l2-4.5l2-11l2-3.7l2-2.6l2,0.6l2-0.4l2-1l2-5.3l2,1.3l2,1.5l2-2l2-1.4l2,1.6l2,0.5l2,0.2l2,2.4l2-3.9l2,3.9l4.1-9l2,2.7
			l2-0.5l2,1.5l2,0.7l4.1-1.5l4.1,4.9l2,3.7l2,0.2l2-5.1l2-2.9l2-2l2,4.9l2,2.7l2-2.4l2,2.7l2,2l2,1l2-2.7l2-2.2l2,2.2h2l2-2l2-1.7
			l2-3.2l2-1.7l2-2.4l2,3.2l2,0.7l2-0.2l2-1.2h2l2,5.9l2,2.7l2-2.2l2-1.5l2,3.2l2,2.2l2-5.1l2-6.6l2,0.7l2,2.4l2,2.2l2,1.7l2,0.2
			l2-4.1l2-3.4l4.1,1h2l2,3.2l2,1.5l2-0.5h2l2-3.2l2-1l2,4.9l2-2.4l4.1,8.1l2-5.6l2-0.2l2,1l2,5.9l2-5.1l2-3.7l2-1.5l2-0.7l2,0.7
			l2,4.6l2,1.7l2,1.2l2,4.9l2,2.4l2-9.5l2-2.7l2,4.1l2,2l2-1.5l2-1l2,0.5l2-1.2l2,4.1l2,1.7l2-0.7l2,1.2l2,5.4h2l2-6.3l2,0.2l2,1.5
			l2-0.7l2-14.6l2,1h2l2-1.2l2,4.4l4.1-5.9l2,5.6l2-0.7l2,3.2l2,0.2l2-3.2l2-0.5l2-0.7l2,0.5l2,1.2l2-3.2l2,1.5l2,2.2l2-2.7l2,2.4
			l2-5.1l2-1.7l2,4.6l2,3.7l2,2.7l2-1l2-5.6l2,1.2h2l2,3.2l2,2.4l2,5.4l2-2.2l2-1.2l2-2.9l2-1.2l2,0.7l2-6.3l2,0.2l2,3.4l2,1.7
			l2,2.4l2-1l2,1.2l2,0.5l2-2.2l2-0.2l2,0.7l2,6.8l2-1.2l2-5.1l2,2.4l2-5.4l2-8.3l2,3.9l2,6.1l2,3.7l2,3.2l2-8.1l2,3.9l2,0.5l2-2.4
			l2,1l2-2.4l2,4.9l2,2.7l2-2.7l2,0.7l2-6.3l2-1l2-0.5l2-3.7l2,2.7l2,5.1l2-0.2l2-0.5l4.1-5.9l2-3.9l2-1.2l2,0.2l2-0.7l2,1l2,4.9
			l2,4.1l2,1.5l2-3.7l2-3.9l4.1,3.9l2-1l2,2l2,2.9l2,1.7l2,5.1l2,2.9l2-11.5l2-7.3l2,2l2,2.2l2,1.2l2-0.7l2,2.9l4.1-0.5l2-5.1l2,3.9
			l2,3.4l2,0.2l2-0.7l2-1.2l2-0.7l2-3.7l2,0.2l2,3.2l2,2.4l2-3.4l2-0.7l2-2l2,2.4l2,2l2-3.2l2,2.2l2-0.5l2-2.7l2,6.1l2-2.7l2,0.2
			l2,2l2,1.2l2,0.5l2-4.1l2,1.5h2l2,1l2-0.7l2,2.2l2-4.9h2l2-6.3l2,1.5l2,3.9l2,2.7l2,1.7l2,3.7l2-3.2l2,2.9l2,2.7l2-3.2l2-6.6l2,2
			l2-2.2l2-0.2l2,2.7l4.1-4.4l2,2l2-0.2l2,3.4l2,0.7l2,2.4l2,0.7l2,2.4l2-6.3l2-9.8l2,4.4l2,2.4l2-2l2,0.7l2-0.2l0,0"/>
	</g>
</g>
<g id="line2d_16">
	<g>
		<defs>
			<rect id="SVGID_7_" x="47" y="5.3" width="669.6" height="380.5"/>
		</defs>
		<clipPath id="SVGID_8_">
			<use xlink:href="#SVGID_7_"  style="overflow:visible;"/>
		</clipPath>
		<path class="st5" d="M77.4,368.5l2-65.9l2-38.4l2-32.6l2-18.7l2-22.2l2-17.6l2-5.5l2-13.2l2-7.8l2-10.2l2-1.9l4.1-18.1l2-5.3
			l4.1-4.1l2-2.4l2-0.2l2-9l2-3.1l2-1.2l2,1l2-0.1l2-0.8l2-4.2l2-3.8l2,0.6l2-2l2,3.2l2-2.3l2,2l2,1.2l2,2.7l2,0.9l2,1l2,3.5l2,0.5
			l2,3.4l2,2.9l2,0.2l2,2.4l2,1l2-2.6l2,2.2l2,1.1l2-2.2l2,3.4l2,0.9l2,1.1l2,3.2l2,0.5l2-3.2l2,0.6l2,0.2l2,2.7l2,1h4.1l2,2.3
			l2,3.5l2-1.1l2,3l2,0.9l2,1l2,4l2-2.6l2,1l2-0.1l2-0.7l2,0.9l2,2l2,0.1l2,1.1l2,1.6l2,0.7l2,2.6l2,3.8l2,1.5l2-2.8l2,1.2l2-2.3
			l2,2l2,0.4l2,3.4l2-1.5l2,1.5l2-1.3l2,3.8l2,5.1l2,1.5l2-1.1l2,1.8l2,1.6l2-5.1l2,0.5l2,3.9l2,1.2l2,3.7l2,0.6l2,0.7l2-1.2l2-2.8
			l2-0.5l2,2.1l2,1.2l2,1.7l2,2.8l2,0.9l2,1.2l2,0.6l2,1.8l2-0.4l2,0.7l2,1.1l4.1,3.5l2,1.7l2-1.5l2,1.6l2-1l2-1.6l2,2.4l2,1.1
			l2,0.6l2-0.7l2,2.1l2-1l2-1.8l2,1l2,0.2l2,2l2-0.9l2,1l2,0.7l2,2.2l2,0.7l2-1.1l2,1.3l2,3.4l2,1l2,2.6l4.1,2.7l2-0.9l2,0.4l2-0.6
			l2,2.4l2,0.1l2,2.6l2-1l2-0.2l2,2l2,0.1l2-1l2-0.4l2,2.3l2,1l2-1.7l2,1.7l2,1.1l2-2.1l2,1l2-1.7l2-1.3l2-2.6l2,1.1l2,0.5l2-3.3
			l2-0.2l2,1.1l2-4.1l2-1.5l2,0.2l2-2.9l2,0.4l2-0.6l2,1.6l2-1.7l2,2l2-0.2l2,0.7l2,2.6l2-2.1l2-0.2l2,0.2l2-0.1l2,3l2,2l2-2.4
			l2,0.7l2-0.2l2,1.5l2,3.3l2-0.7l2,1.5l2,0.9l2,0.4l2-0.4l2-1.2l2-3.3l2,4.4l2,5.4l2,2.7l2-0.1l2-2.7l2-4l2-1.7l2,2.2l2,1.3l2-0.5
			l2,1.7l2-5.1l2,0.1l2-2.8l2,2.4l2-1.2l2-2.1l2-1.1l2-0.6l2,1.6l2-3.3l2-1.2l2-0.6l2-3l2-1l2,0.7l2,2.7l2-0.2l2,3.7l2-0.9l2-1.6
			l2-2.6l2-1.7l4.1,1.5l4.1-6l2-2.2l2,1.8l2,1.3l2,1l2,3.2l2-1.6l2-0.4l2,3.9l2,0.9l2,1.8l2-0.1l2,0.4l6.1,4.8l2,0.2l2,1.6l2,0.1
			l2-0.5l2,0.2l2,0.7l2-0.4l2,4.3l2,2.1l2,3.4l4.1,2.1l2,1.1l2-1.5l2-3.8l2,0.6l2,2.1l2-2l2,0.4l2-2.2l2-2l4.1-0.7l2,2l2-0.9l2-2.1
			l2-1.8l2-0.7l2,3.3l2,1.2l4.1,1l2-0.5l2-3.2l2-0.1l2-2.9l4.1-5l2,1.3l2-2.1l2-1.3l2-1.1l2,0.6l2,0.1l2-1h2l2,0.2l0,0"/>
	</g>
</g>
<g id="line2d_17">
	<g>
		<defs>
			<rect id="SVGID_9_" x="47" y="5.3" width="669.6" height="380.5"/>
		</defs>
		<clipPath id="SVGID_10_">
			<use xlink:href="#SVGID_9_"  style="overflow:visible;"/>
		</clipPath>
		<path class="st6" d="M77.4,368.5l2-59.8l2-46.4l2-29.3l2-20.7l2-13.2l2-15l2-9.6l2-24.5l2-7.4l2-9.5l2-8.4l2-6.1l2-7.5l2-4.5
			l2-2.5l2-4.6l2-6.5l2-3.2l2,1.9l2-1.4h2l4.1,1l2-3.7l2-1.3l2,1.8l2-6.7l2,1.3l2,0.9l2-1.1l2,1.8l2,3.5l2-0.2l2,0.7l2-2.2l2,2.6
			l4.1,5.9l2-0.7l2,0.9l2,2.7l2,0.1l2,2.9l4.1,3.8l2-2.3l2,4.3l2-1.5l2,0.1l2,1.5l2,3.7l2,2l2,5.2l2-1.5l2,3.8l2,1.8l2,1l2-0.5
			l2,0.1l2,2.1l2,1.5l2,2.1l2,2.3l2,1l2-0.2l2,0.2l2,0.9l2,4.1l2-2.1h2l4.1,1.5l2-0.7l2,2.2l2,1.5l2-1.6l2-2l2,4.1l2,3.4l2,0.2
			l2,2.8l2,0.7l2,2.2l2-1.2l2,3.2l2,0.1l2-1.1l2,2.9h2l2,1.3l2,1.7l2-1l2,3.8l2,1l4.1-2.8l2,0.6l2-1.8l2-0.9l2,2.7l2,1.3l2-1.2
			l2-0.1l2,2l2,0.2l2-1.1l2,0.5l2,3l4.1-2.3l2,1.6l2-0.6l2,3.5l2,2.6l2-1l2,0.4l2,2l2,0.1l2-2.8l2,2.2l2,1.2l2,3.3l2-0.1l2,2l2,0.7
			l4.1,2.2l2,0.5l2,1.6l2,2.1l2-1.8l2-3l2-0.2l2,0.6l2-0.7l2-2.2l2,1.7l2,0.7l2,1.1l2,0.5l2,1.2l6.1,8.3l2,1.6l2,2.3l2,0.6l2-1.5
			l2,1.1l2-2l2-3.7l2,1.8l4.1-1.7l2,1.7l2-5.7l2-2.9l2-2.1l2,2.3l2,1.8l2,0.6l2-0.2l2-0.4l2,1.2l2-0.4l2,2.2l2,0.2l2-1.8l2,2.1
			l4.1-3.3l2,1.6l2-4.3l2,2.2l2,0.1l2,1.8l2,0.4l2-7.3l2-1.1l2,0.5l2,3.3l2,0.9l2-1l2,0.4l2-0.6l2-1.1l2,1.1l2-1.3l2,1.1l2,2l2,1.6
			l2,2l2-4.4l2-1l2-1.5l2,0.5l2,0.4l2-2.2l2,2.3l4.1,2.8l4.1,1.7l2,1.6l2,3l2-1.3l2-0.1l2,2.1l2,1.5l2-1.6l4.1,4.4l2,0.7l2,2.2
			l2,0.9l2-3.2l2,0.4l2,3.2l2-2.2l2,0.9l2,1.7l2-0.4l2-1.5l2-0.6l2-0.5l2-0.1l2,1.3l2-2.2l2-3l2-3.7l2-2.8l2-3l2-2.8l2,1.7l2-3.2
			l2,1.7l2-1.2l2,0.9l2,0.5l2,0.7l2-1.3l2,2.4l2,1.1l2,3.9l2,1.7l2-2.6l2-0.2l2,2.3l2,2.1l2-2.4l2,0.1l2-0.5l2-0.7l2,4.3l2-2.4
			l2,1.3l2-1.1l2,2.2l2-1.2l2,2.3l2,1.2l2-2.4l2,0.7l2,1l4.1-3.5l2,2.2l2,0.7l2,2.1l2,1.5l2-0.7l2-2.9l2-0.1l2,0.5l2-0.6l2,2l2-1
			l2-0.5l2,2.6l2-1.3l2,0.4l2-1l4.1,0.5l2,2.2l2,0.6l2-1l2-3.3l2-0.4l2,0.4l2-1.3l2,1.6l2-2h2l2-0.9l2,2.3l2-0.4l2,1.8l2,2.8l0,0"/>
	</g>
</g>
<g id="line2d_18">
	<g>
		<defs>
			<rect id="SVGID_11_" x="47" y="5.3" width="669.6" height="380.5"/>
		</defs>
		<clipPath id="SVGID_12_">
			<use xlink:href="#SVGID_11_"  style="overflow:visible;"/>
		</clipPath>
		<path class="st7" d="M77.4,368.5l2-59.8l2-34.5l4.1-64.3l2-15l2-12.2l2-20l2-6.1l2-8.7l2-11.2l2-6.1l2-9.4l2-5.7l2-4.5l2,0.3
			l2-2.6l2-4.8l2-1l2-1.6l2-3.7l2-5.6l2-3.3l2,2.6l2-3.7l2-6.5l2,0.7l2-4.6l2-0.2l2-2.2l2,2.8l2-3.9l2,4.4l2,0.9l2,3h2l2,0.6l2-2.4
			l2,2l2,1.5l2,2l2-2.1l2,0.7l2,5.6l2,1.7l2,0.4l2,1.5l2-0.7l2,1.1l2,4.1l2,2.2l2,2.7l2-0.4l2,0.1l2,1.5l2-0.5l2-4.4l2-1.7l2,0.4
			l2,2.6l2,1.5l2,0.7l2,2.8l2,1.2l2,1.6l4.1,4.5l2,1.1l2-1.2l2-0.6l2-0.1l2,0.2l2,1.3l2,3.2l2-0.4l2-2.9l2-0.4h2l2,0.4l2,3.3l2-1.7
			l2,2.9l2-0.5l2-1.7l2,3l2,2l2,0.6l2,0.1l2,1.8l2,0.4l2-0.1h2l4.1,2.8l2,3l2,2.3l2,0.6l4.1-0.5l2,0.7l2,2.1l2,2.6l2,2.3l2,0.4
			l2,2.2l2,1.6l2,0.9l2-0.2l2,1.8l2-1.7l2,0.7l2,1.5l2-1.5h2l2-0.6l4.1,3.2l2,1.2l2-0.6l2,0.2l2,3.3l2,1.3l2,2.1l2,3.2l2-1l2,0.4
			l2-2.6l2,1l2,1.5l2,0.2l2,3.4l2,2.4l2,1.3l2,1.1l2,1.5l2,2.7l2-1.1l2,0.6h2l2,2.9l2,1.1l2,2.3h2l2,1l2,0.4l4.1,5.2h2l2-0.1l2,0.2
			l2,3.2l2,2l2-0.1l2,0.5l2,2.2l2,0.6l2,0.4l2-1.5l2-0.6l2-1l2,1.2l2,0.2l2,2.1l2,0.5l2,1.1l2-0.4l2,1.5l2,0.6l2-2.7l2-0.5l2,1.3
			l2,2l2-1.7l2,1h2l2,1.3l2,2.2l2,0.4l2-2l2-1l2-0.1l2,0.7l4.1,5.7l2-2.3l2-0.4l2-1.2l2,0.5l2,0.1l2,0.6l2-1.5l2,2.4l2-3l2-4.9
			l2-0.6l2-2.7l2,2.2l2-0.6l2-0.2l2,2.4l2-0.6l2,1.3l2-3.9l2-0.5l2-1l2-3.8l2-0.2l2,0.1l2,1.8l2-1.8l2-1.5l2,0.4l2,2.8l2,3.8l2-2
			l2,1l2,4.5l2-3.8l2-0.1l2,1.2l2,2.1l2,0.2l2,1.8l2,2.3l2,0.7h2l2,1.2l2,0.4l4.1,1.8l2-2.9l2,0.7l2-0.2l2,3l2,1.8l2,0.7l2-1l2,0.9
			l2,1.6l2-2.9l2-2.2l2,1.2l2,3.2l2-0.4l2-0.1l2,3l2-1.7l2-0.6l2-2.2l2-0.9l2-2.6l2,2l2-1.2l2-5.4l2-0.1l2-1.6l2-2l2,0.7l2-0.9
			l2,0.4l4.1,3.3l2-2.9l2,0.1l2-5l2,0.7l2-2l2-0.7l2-1.6l2-2.3l2,1l2-1.2l2-2.3l4.1-4l2,0.4l2-4.3l2-3.2l2,2l2-0.6l2,1.5l2,1.1
			l2,1.5l2-1l2-1.2l2,2.2l2,0.6l2-3l2,0.2l2,1.5l2,3.7l2,2.1l2,0.5l2,0.7l2-0.5l2,2.4l2,0.7l2,1.6l2,1l2-1.3l0,0"/>
	</g>
</g>
<g id="line2d_19">
	<g>
		<defs>
			<rect id="SVGID_13_" x="47" y="5.3" width="669.6" height="380.5"/>
		</defs>
		<clipPath id="SVGID_14_">
			<use xlink:href="#SVGID_13_"  style="overflow:visible;"/>
		</clipPath>
		<path class="st8" d="M77.4,368.5l2-44.7l2-32.7l2-19.2l2-17.2l2-18.9l2-5.1l2-9.6l2-5.7l2-3.4l2-6.1l2-1.6l2-4.1l2-6.7l2-4.6
			l2-2.3l2-5.7l2,0.2l2-1.2l2-3.4l2-1.2l2-4.5l2,0.6l2-1.2l2-3.5l2-1.1l2-2.9l2-1.9l2-0.1l2,3.5l2,5.8l2,3.7l2,2.9l2,4.2l2,5.4
			l2,1.1l2,3.6l2,2l4.1,1.2l2,1l2-0.7l2-0.3l2,2l4.1-3.3l2-2.7l2,1.2l2-1.1l2-0.7l2,2.5l2-0.1l2,1.9l2,0.1l2-0.7l2,1.5l2-2.3l2,1.1
			l2,0.2l2-0.8l2,1.4l2,0.7l2-0.4l2-1.7l2,1.3l2,1.1l2,1.5l2-0.3l2-0.8l4.1-1.1h2l2,0.9l2,0.1l2,1.7h2l2-1.2l2-0.3l2-0.7l2,2.1
			l2,0.9l2-1.3l2-2.4l2,0.2l2,2.2l2-1.6l2,0.7l2,0.1l2,1.1l2-1.2l2-0.1l2,0.7l2,2.1l2,1.1l2-0.6l2,2l2,0.5l2-2.8l2,0.2l2-4.1l2-0.8
			l2-2.2l2,1.1l2,0.1l2-1.5l2,0.2l2-0.4l2-1l2,0.8l2-2.7l2,1.9l2,0.2l4.1,2.8l2-2.9l2-0.7l2,1.1l2-1l2-0.1l2-3.6l2,1.4l2,2.3l2,0.1
			l2-0.7l2-0.3l2,2.3l2-0.2l2,2.4l2-0.8l2-3.2l4.1-0.4l2,1.9l2,1.1l2,1.9l2,2l2-0.4l2,1.7l2-1.3l2,0.7l2-1.1l2-0.7l2,2.2l2-2l2,1.6
			l2-3.3l2-1.6h2l2-1.1l2,0.7l2,0.2l2-0.6l2,0.6l2-2.2l2-0.6l2-1.2l2-0.3l2-0.7l2,2.8l2-0.9l2,0.2l2-3.7l2-3.1l2-0.9l2-1.3l2-2.1
			l2,1.1l2-0.2l2,0.3l2-3.7l2-0.7l2,1.8l2-0.2l2,1.2l2,1.7l2-1.4l2,2.2l2,0.3l2-2.4l4.1,2.5l2-0.3l2,0.3l2,2.1l2,2.3l2,1.4l2,1.2
			l2-1.4l2,2.3l2,0.4l2-0.9l2,1.7l2,1.2l2-1.7l2,1l2,2.4l2-0.7l4.1,3.8l2-1.5l2,0.7l2-2l2,1.5l2,2.8l2,0.2l2,0.7l2,2.2l6.1,0.6
			l2-1.5l2,0.7l2,2.4l2,1.3l2,1.5l2,0.1l2,0.7l2-0.2l2,1.4l2-0.2l2-1.1l2-4.3l2-1.2l2,0.8l2,1.4l2,1.9l2,0.7l2-1.1l2,0.7l2-1.6
			l2,0.1l2-0.5l4.1-3.3l2,0.3l2-1.4l2-1.1l2,0.2l2,2.4l2,1l2,2.4l2-1.9l2-1l2-0.7l2-0.8l2-0.2l2,2l4.1-0.9l2-3.4l2-1.3l2-0.7l2-1.1
			l2,1.5l2-1.8l2-2l2,1.1l2-2l2,1.9l2,1.1l2,2l2,0.2l4.1,1.4l2-1.7l2,1.6l2-1l2-0.8l2,1.4l2-0.9l2-2l2-3l2-1.6l2,1.2l2,2l2-0.1
			l2,0.5l2,0.7l2-2.4l2,1.9l2,0.3l2,2.7l2-1.4l2-0.7l2-1.3l2-1.1l2-0.2l2-0.7l2,1.3l2-1.5l2,1.3l2-2l2-1l2-1.3l2,0.7l2,1.8l2-2.4
			l2,1l2-2.9l2,0.4l0,0"/>
	</g>
</g>
<g id="line2d_20">
	<g>
		<defs>
			<rect id="SVGID_15_" x="47" y="5.3" width="669.6" height="380.5"/>
		</defs>
		<clipPath id="SVGID_16_">
			<use xlink:href="#SVGID_15_"  style="overflow:visible;"/>
		</clipPath>
		<path class="st9" d="M77.4,368.5l2-40.7l2-33.1l2-20.9l2-19.2l2-12l2-12.6l2-10.4l2-1.5l2-4.1l2-6.2l2-4.7l2-7.7l4.1-6.6l2-0.8
			l2-2.6l2-4.4l2-3.4l2-4.5l4.1-0.4l2-2.9l2-1.7l4.1-3.9l2,0l2-1.6l2-0.2l6.1,8.2l2,3.3l2-0.2l2,3.3l2,0.6l2,2.2l2,1l2,1.4l2-0.1
			l2,2.1l2,0.9l2,1.1l2-0.8l2-0.2l2,1.5l2,0.5l2-1l2,1.5l2-2.2l2-0.2l2,2.2l4.1,1.1l2-0.2l2,1.9l2-3.5l4.1,2.7l2,0.7l2,2.6l4.1,2.5
			l2-1.5l2-0.6l2-1.5l2,0.1l2-0.6l2,1.5l2,1.4l2-0.2l2,2.4l2,0.7l2,0.5l4.1-2.1l2,1.3l2,0.6l2,2l2-0.8l2,1.4l2-1.1l2-1.3l2,2l2-0.2
			l2-0.5l2,2.2l2,1.5l2,0.2l2,2.4l2-3.3h2l2,1.8h2l2-4.4l2-0.2l2,1.3l2,0.5l2,0.2l2-0.9l4.1-4.8l2,0.4l2-2l2,1.4l2-1.5l2-1.6l2,1.8
			l2,1.1l2-0.7l2-4.2l2-1.1l2-0.8l2-1.6l2,0.7l2,1.1l2-0.2l2,1.4l2-0.5l2-1.8l2,0.8l4.1-1.7l2,0.6l2,0.4l2,2.7l2-0.7l2-1.5l2-0.9
			l2-1.5l2-0.8l2,1.2l2-0.2l2,0.2l2,1.6l4.1,2l2,0.7l4.1,2.8l2-0.7l2-1.5l2-2.3l2-1.1l2,0.2l2-1.3l2-3l2,1l2,0.3l4.1,4.1l2-0.5
			l2-0.7l2,1.4l2-1.1l2-0.7l2-1.5l2-0.1l2,0.5l2,1.1l2-0.2l2-2l2,0.7l2-1.1l2,1.1l2,1.9l2,0.7l2,1.1l2-2l2,1.1l2,0.2l2,0.7l2-0.7
			l2,0.5l2-1.5l2-2.8l2-1l2,0.2l2-0.1l2,1.6l2-1h2l2,0.7l2,1.2l2,2l2,3.7l2-0.2l2,2.2l2-1l2-3.4l2-0.6l2-0.2l2,0.3l2-1.1l2-0.1
			l2,0.9l2,0.2l2,1.1l2-0.2l2,2.4l2,1.4l2,0.7l2-2.4l2,0.7l2-1.8l2-0.2l2-0.7l2-2.8l2,1.1l4.1,4.4l2-1.8l2-1.3l2-0.6l2-1.5l2,0.3
			l2,0.8l2-2l2,0.3l2-1.7l2-1.5l2-1.1l2,0.2l2-1.1l2-1.3l2,1.1l2-1.2l2,2.4l2,4.1l2-0.2l2-1.2l2,1.1l2,1.5l2,0.2l2,1.7l2-0.1l2,0.2
			l2,0.5l2-1.5l2-0.9l2,2l2,1.5l4.1-0.8l2,1.2l2,0.2l2,2.3l2,1.3l2,2.4l2,0.3l2,2.4l2,0.1l2-1.6l2-0.4l2,0.1l2-1.5l6.1-0.2l2,0.3
			l2,0.2l2-0.8l2-0.3l2,1.1l2-0.8l2-1.1l2-0.7l2,0.2l2,0.5l2,0.8l2,1.3l2-2.8l2-0.1l2,2l2-0.2l2-4.3l2-1.9l2-1.4l2,1l2,1.9l2-1.1
			l2-1.5l4.1,1.5l2-5.9l2-0.9l2,1.1l2,3.1l2,1.8l2-0.3l2,1.5l2-0.7l2,2.2l2-0.7l2,2l4.1-0.2l2,0.9l2,1.5l2-1.3l0,0"/>
	</g>
</g>
<g id="line2d_21">
	<g>
		<defs>
			<rect id="SVGID_17_" x="47" y="5.3" width="669.6" height="380.5"/>
		</defs>
		<clipPath id="SVGID_18_">
			<use xlink:href="#SVGID_17_"  style="overflow:visible;"/>
		</clipPath>
		<path class="st10" d="M77.4,368.5l2-38.2l2-28.9l2-25.6l4.1-40.1l2-11.5l2-8.4l2-3.8l2-6.4l2-8.2l2-3.2l2-2.2l2-0.3l2-3.1l2,1.1
			l2-5.1l2-2.1l2-0.7l2-2l2-1.8l2-1.3l2-0.4l2-2l2,0.1l2-1.9l2-0.9l2,0l2-4l4.1,8.6l2,4.9l2,3.3l2,2.7l6.1,9.4l2-2.4l2-1.5l2-2.2
			l2,2l2,0.5l4.1-1.3l2-0.2l2,2.8l2-0.5l2,1.4l2-1.8l2,0.3l2,0.5l4.1-2.9l2,1l2-1.1l4.1-4.2l2,0.2l2-0.4l2-1.5l2,0.8l4.1,0.5l2-0.6
			l2-0.3l2-0.7l2,3.3l2-0.8l2,0.7l2,0.8l2,0.2l2-1.1l2-1.2l2,0.6l2-0.1l2-1.1l2,1.1h2l2-1.5l2,1.9l2-0.3l2,2.2l2,0.1l2,1.6l2,2
			l2,0.4l2-2.8l2,0.6l2,0.9l2,1.1l2-1l2-3l2,0.7l2,0.1l2-2.1l2-1.6l2-3.3l2-0.9l2,0.6l2,2.8l2-1.7l2,2l2-0.2l2-1.2l2-1.5l2-1.9
			l2,2.2l2-1.3l2-2.4l2-1.2l2,2.8l2,1.8l2,0.1l2-2.1l2-1.1l2,1l2,0.2l2,2.9l2,3.6l2-1.6l2,0.5l2,1.3l2,0.6l2,1.9l2,1.3l2,1.1l2-1.8
			l2,0.7l2-1.5l2,3.3l2-1.4l2,2.3l2-0.2l2,1.8l2,2.4l2,1.5l2,2.5l2-1.3l2,0.5l2-0.5l2,0.8l2-1l2-0.1l2-0.7l2,0.2l2-0.2l2,0.4l2-1.7
			l2,2.1l2-0.2l4.1,1.9l2-0.4l2-1.8l2-1.2l2,0.3l2,2.2l2,0.2l2-0.9l2,0.1l2-2.4l2-1.8l2-3.7l2,1.5l2,1.2l2-0.4l2,1.7l2,0.9l2-0.7
			l2,1.7l2,1l2-0.6l2,2l2-0.7l2-0.3l2,1.3l2-0.6l2-2.5l2,1.8l2-2.7l2-0.9l2,0.2l2-1.7l2,2l2-0.7l2,0.7l2,2.4l2,0.2l2-1.1l2,1.1
			l2-3.1l2-1l2-1.6h2l2-0.3l2,1l2,1.1l2-1.2l2-1.8l2-0.9l2-2.1l2-1l2-0.3l2,0.2l2,3l2-0.3l4.1-2.7l2,0.6h2l2-0.5l2,0.4l2-0.5l2,0.6
			l2,2.1l2-1.5l2,3.2l2,1.5l2-0.5l2-3.3l2,0.5l2-1.2l2,0.9l2,0.6h2l2,0.7l2-0.2l2-0.5l2-1l2-1.9l2,0.4l2-1.1l2-1.5l2,0.8l2-1.5
			l2,0.9l2,0.7l2-1.4l2,0.4l2,1.6l2-2.8l2,2.1l2-1l2-4.1h2l2,2.8l2-3l2,1.7l2,1.3l2,0.7l2,2.7l2,0.3l2-0.4l2-0.2l2-0.9l2-0.5l2,2
			l2-1l2-0.2l2-2l2-0.1l2,0.2l2,1.8l2-1.1l2,0.2l2-1.8l2,1.9l2,1.5l2,0.9l2,0.1l2-0.9l2-4l4.1-3.1l2-2.7l2,2.3l4.1,0.9l2,1.1l2,2
			l2,1.5l2-0.5l2,1.1l2,2.8l4.1,1.7l2,1.5l2,0.5h2l2,0.8h2l2-1.1h2l2,0.7l2,1.1l2,1.9l2,1l2,1.6l2,1.1h2l0,0"/>
	</g>
</g>
<g id="line2d_22">
	<g>
		<defs>
			<rect id="SVGID_19_" x="47" y="5.3" width="669.6" height="380.5"/>
		</defs>
		<clipPath id="SVGID_20_">
			<use xlink:href="#SVGID_19_"  style="overflow:visible;"/>
		</clipPath>
		<path class="st11" d="M77.4,368.5l2-28.1l2-21.8l2-14.5l2-16.1l4.1-23.6l2-6.1l2-5.3l4.1-13.2l2-1.5l2-3.6l2-2.5l2-1.2l2-2.1
			l2-2.7l2-0.5l2-1.7l2-0.3l2-1.5l2,0.6l2-0.6l2-3.1l2-1.6l2-1.9l2-0.7l2,0l2-0.4l4.1,0.4l2,1.1l2,0.7l2,1l2,0.2l2,1l2-0.1l2,0.4
			l2,1l2-0.8l2,1l2,0.5l2,2.4l2-0.5l2-0.2l2-0.9l2-1.2l2,1.2l2,0.7l2,1.2l2-0.1l2,0.4l2,0.5l2-0.2l2-0.5l2,0.9l2,0.7l2,0.2l6.1,3.5
			l2-0.8l2,0.2l2,0.9l4.1-0.4l2,0.6l2,0.2h2l2-0.5l2,1l6.1-0.6l2,0.9l2,2.5l2-1.2l2-0.1l2,1.2l4.1,3.7l2-0.4l4.1-0.1l2,0.4l4.1-2.5
			l2,0.5h2l2-2.6l2,0.9l2-1.2l2,0.4l4.1,2.2l2,0.9l2-0.9l2-0.7l2,0.4l2,0.7l2-0.5l2-1l2,2.2l2-0.4l2-1l4.1,0.9l2,1.3l2-1l2,1.1
			l2,0.8l2,2.1l2,0.6l2,0.3l2,0.2l2,0.9l2-0.4l2,0.2l2,1.5l2-1.8l2,1.3l4.1,0.9l2,1.4l2,0.7l2,1.5l2-1.2l2,0.8l2-0.1l2,0.1l2,1.2
			l2,0.3l2,1.3l2,2.4l2-0.2l2,0.2l2,0.5l2,2.1l2,0.8l2,2.1l2,1.6l2,0.1l2,1.5l2,1.7l2-1.2l2,0.4l2-0.5l2,0.4l2-0.4l2,0.9l2,0.8
			l4.1,1.3l2,1.3l2,0.2l2,1l2-0.4l2,0.2l2-0.5l2-1.2l2-0.6l2,0.6l2-0.2l2-1.6l2,0.6l2,0.8l2-1.2l2,0.9l2,0.1l2-0.3l2,1.1l2-0.3
			l2,0.9l2-1.1l4.1,4.5l2,0.5l2,2l2-0.1l2,0.4l2,0.7l2,2.4l2,1.8l2,0.9l2,1.2l2-1.8l2-0.1l6.1,4l2,1.1l2,0.1l2,1.2l2,1.3l2,0.7l2,1
			l2-0.8l2-0.3l2,1.6l2,0.7l2-0.6l2-0.1l2,0.2l2,1.3l2-0.4l2,0.9l2-0.4l4.1,0.5l2,2.6l2,0.4l2,1.2l2-2.3l2,0.9l2,0.4l2,1l2,0.2
			l2,0.8l2-0.1l2,1.6l2,1l2,0.7l2-1.2l2,1l2,0.2l4.1,2.3l4.1,4.5l2,1l2-0.2l2-0.4l2-1.3l2-1l2,2.1l2-0.4l2,0.2l2,0.9l2-0.8h2
			l4.1,3.7l2,0.2l2,1.6l2,0.1l2-0.1l2-0.5l2,1.3l2,0.6l2,2.1l2,0.7l2,1.3l4.1-1l2,0.2l2-0.8l2,0.7l2,0.4h2l2,1.5l2-0.1l2,0.1l2-0.9
			l2-0.2l2,2.6l2,0.4l2,0.2l2,1.6l2,0.7l2,1.2l4.1,2l2,0.1l2-0.5l2,0.7l2,1.7l2-0.4l2,0.4l2,0.8l2-0.8l2,0.6l2-0.2l2,0.6l2,0.5h2
			l2,0.7l2,0.2l2-0.1l2,0.4l2-0.1l2,1l2-0.1l2,1.7l2,1.2l2-0.1l2,0.2l2,0.4l2,1l2-1.6l2,0.8l0,0"/>
	</g>
</g>
<g id="line2d_23">
	<g>
		<defs>
			<rect id="SVGID_21_" x="47" y="5.3" width="669.6" height="380.5"/>
		</defs>
		<clipPath id="SVGID_22_">
			<use xlink:href="#SVGID_21_"  style="overflow:visible;"/>
		</clipPath>
		<path class="st12" d="M77.4,368.5l2-27.4l2-22.9l2-20.7l4.1-21.8l2-9.9l2-8.1l2-5.2l2-8.1l2-4.9l2-2.6l2-5.1l2-8.1l2-2.7l4.1-4.1
			l2-1l2-3.1l2-4.5l2-0.5l2-0.4l2-1.7l2-2.5l2-0.2l2-0.6l2-1.3l2-0.4l2-0.7l2,1.5l2,1.3l2-0.7l2,2.4l2-0.4l2,1.6l2,0.1l2,1.2l2-1.2
			l2,0.2l2,2.5l8.1,1.5l2,1.4l2-0.4l2,0.5l2,0.4l2,1.1l4.1-0.8l2,0.1l2,0.5l2-0.9l2-0.2l2,0.6l2-2.1l2-0.4l4.1,1l2-1l2,2.3l2-0.8
			l2,0.9l2,1l2,0.7l2,2l2,0.5l2-0.4l2-0.1l2-0.4l2-0.7l2-0.8l2-1l2,1.5l2,0.4l2-0.7l2,1l2-0.7l4.1,2.4l2-1.6l2,0.2l2,0.7l2,0.9
			l2,1.7l2-0.4l2,0.2l2,0.9l4.1,0.7l2-1.5l2,1l2-0.4l2-0.5l2,1l2-0.6l2,1.4l2,0.7l2,0.5l4.1,3.4l2,0.8l2-0.2l2,0.6l2,0.4l2-1.4
			l2,0.5l2,1.5l2-0.9l2,0.4l2-0.5l2,0.1l2-0.1l2,1.3l2-0.9l2-1.1l2,0.4l2-1.4l2,0.1l2-0.9l2,1.2l2,0.9l2,1.2l2,1.5l2,1.8l2-0.3
			l2-1.1l2,2.1l2,0.9l2-0.5l4.1,0.4l2-1.2h2l2-0.3l2,1.4l2,2.1l2,0.2l4.1,0.2l2-0.6l2-0.7l2,1.2l2-0.1l2,1.2l2-0.1l2,0.4l2-0.9
			l2,0.8l2,1.7l2-0.1l2,0.1l2-0.7l2-0.2l2-1.3l2-0.3l2,0.1l2-0.7l2-1.1l2,0.5l4.1-2.5l2-2.8l2-1.1h2l2-0.9l2,1.8l2,0.5l2,1.3l2,1.6
			l2,0.7l2,0.5l2,0.3l2-0.2l2-1.6l2-1.3l2-0.5l2-1l2-0.4l2-1l2,0.9l2,0.5l2,1.4l4.1,1.2l2-0.1l2-0.4l2,1l2-0.7h2l2,0.5l2,1.2l2,0.4
			l2,0.5l2,1.1l2,0.5l2,1.3l2-1.2l2,0.9l2-0.7l2-0.6l2,0.7l2-0.2l2,1l2,1.5l2,2.9l2,1l2-0.1l2-1.2l4.1,2.9h2l2,0.7l2,0.9l2-0.5
			l2,0.7l2,1.4l2,1l2-1.2l2,0.2l2-1.2l2-0.3l2,0.3l2-0.4l2-1l2,0.8l2-1.2l2,2.1l2-0.5l2,0.1l2,1.6l2,0.9l2-0.3l2,0.6l2,0.2l2-0.1
			l2,0.4l2-0.3l2,1.2l2,0.9l2-0.4l2-0.7l2,0.1l2,0.4l2-0.5l2,1l2-1.3h2l2,0.5l2-0.5l2,0.7l2-1.4l2,1.9l2,0.7l2,0.4l2,0.2l2-0.1
			l2-0.8l2,0.9l2,1.1l2,0.1l2-0.1l2,0.9l2-1.7l2,1.5l2,0.6l2,1l2-0.4l2,0.2l2-0.8l2,1.2l2,0.7h2l2,1.2l2,1l2-1.5l2,0.3l2,1.2l2-0.9
			l2,0.9l4.1,0.2l6.1,1.2l2,0.1l2-0.2l2-0.4l2-0.6l2,0.5l2-1.9l2,1.6l2,0.9l2-0.2l2,0.3l2,0.7l2,0.3l2,1.3l2,1.1l0,0"/>
	</g>
</g>
<g id="line2d_24">
	<g>
		<defs>
			<rect id="SVGID_23_" x="47" y="5.3" width="669.6" height="380.5"/>
		</defs>
		<clipPath id="SVGID_24_">
			<use xlink:href="#SVGID_23_"  style="overflow:visible;"/>
		</clipPath>
		<path class="st13" d="M77.4,368.5l2-28.7l2-21.2l4.1-36.4l2-12.2l2-7.8l2-3.2l2-13l2-5l4.1-7.8l2-4.6l2-2.5l2-3.3l2-1.2l2,0.1
			l2-1.7l2-2.9l2-4.2l2-1l2-0.3l2-1.5l2,0l2-3.1l2-2.1l2-1l2-0.4l6.1-0.8l2,1.9l2,0.8l4.1,2.6l2,0.4l2-0.4l2-0.1l2,1l2-0.3l2-0.1
			l2,1.1l2-0.8l2,0.5l2,1.2l2,0.5l4.1,2l2-0.9l2,0.4l2-0.3l2,2.4h2l2,0.2l2,0.1l2,0.7l2-2.1l2,0.4l2,0.6l2,1l2,1.3l2,1.5l2,2.5
			l2,1.6l2,0.7l4.1,2l2,1.2l2-1.8l2,0.1l2,1.2l2,0.1l6.1,2.8l2,0.7l2,0.4l2-1.5l2-0.3l2-1.6l2,1.8l2,0.2l6.1,4.8l2-1.5l2-0.4l2,0.5
			l2,2.4l2-0.4l2-0.1l2,0.2l2-1l4.1,1.1l2,2.2l2-0.3l2,2.5l2-0.1l2,0.3l2-1.8l2-0.6l4.1,0.2l4.1,2.1l2,2.6l2,1l2,1.2l2,0.7l2,0.2h2
			l2-0.9l2-1.1l2,0.8l2,0.2l2,0.5h2l2-0.9l4.1,1.2l2-0.5l2-0.4l2,0.1l2-0.2l2-1.5l2,0.1l2,2l2,0.2l2,2.3l4.1-0.5l2-1.8l4.1,1.3
			l2,0.1l2,1.2l2,0.1l2-0.1l2,1.9l2,0.2l2,0.9l2-1.3l4.1-3.2l2,0.5l2-0.4l2-0.2l2,1.5l2,1.1l2,1.3l2,0.8l2-0.9l2,0.2l2,0.1l2-0.5
			l2-0.4l2-2l2-0.4l2,1.1l2-0.7l2,0.5l2,0.4l2-1l2-0.1l2,0.5l2,1l2,0.8l2,1.3l2,1.8l2,1.3l2,0.1l2,0.3l2,0.8l4.1,0.4l2,0.6l2-1
			l2,1.1l2,0.4l2,0.2l2-2l2,0.1l4.1,1.7l2-0.1l2,1.2l2,1.7l2,1.3l2,0.5l2-1.6l2,0.3l2-2.1l2,1.7l2,0.8l2,0.4l2-0.8l2,0.6l2,0.1
			l2,0.7l2-0.5l2,0.5l2-3.5l2-0.6l2,0.2l2-0.9l2-1.2l2,0.9l2-1l2,2.6l2,1.2l4.1,2.7l2-0.2l2,2.4l2,0.2l2,1.2l2,0.9l2-0.9l2-0.2
			l2,0.4l6.1,3.1l2-0.1l2,0.2l2,0.5l2,0.7l2-0.9l2,1.8l2,0.2l2,1.5l2,0.3l2,1.5l2,0.4l2,1l2,0.7l2-0.8l2,2.7l2-0.5l2,1.3l4.1,0.4
			l2-0.5l2-0.2l2,0.2l4.1,1.4l2,1.1l4.1,2.8l2,2.3l2,0.1l2,1l2,0.6l2-1l2-0.4l2,0.5l2,1l2,0.2h2l2,1l2,0.2l2,0.4l2,0.7l2,1.2l2,0.4
			l2,2.4l2,0.3l2-0.5l2,1.3l2-0.1l2,0.5l2,0.7l2,1.4l2-0.8l2,0.5l2,0.6l2-0.4l2,0.4l2,0.2l2-0.2l2,1.6l2,0.1l2,1.8l2,0.9l2,0.1
			l2,1.7l2,0.3l2-0.1l2,0.9l2-0.2l2-1.2l4.1,2.1l2,0.4l2-1.2l2-0.6l2-0.4l2-0.9l0,0"/>
	</g>
</g>
<g id="line2d_25">
	<g>
		<defs>
			<rect id="SVGID_25_" x="47" y="5.3" width="669.6" height="380.5"/>
		</defs>
		<clipPath id="SVGID_26_">
			<use xlink:href="#SVGID_25_"  style="overflow:visible;"/>
		</clipPath>
		<path class="st14" d="M77.4,368.5l2-19.5l4.1-30.3l2-9.8l2-10.7l2-5.9l2-7.5l2-4.7l8.1-15.3l2-1.6l2-5l2-1l2-1.5l2-1l2-1.3l2-0.5
			l4.1-1.5l2-0.7l2-1.6l2-0.1l2-0.4l2-1.5l2-0.9l2-0.5l2,2.7l2,0.8l4.1,4.5l2,2.8l2,1.1l2,2l4.1,3l2,1.1l2,1.6l2,1.8l2,0.5l2,0
			l2,1.4l2,1.6l2,2.1l2,1.1l2,0.9l2,1.5l4.1,1.2l2,2.9l2,1.4l2-0.4l2,0.7l2,1.2l4.1,4.4l2,2.5l6.1,5.3l2,2.3l2,1.2l2,2.4l2,1.5
			l2,0.9l2,0.5l2,0.9l4.1,2.5l2,0.6l2,1.8l2,0.4l2,1.8l2,2.6l2,1.1l2,2.3l2,1.7l2,2.8l2,1.7l2,2.5l2,2.3l2,0.7l2,1.9l2,2.8l4.1,1.2
			l2,2.4l4.1,3.8l2,2l4.1,3.4l2,2l2,1.2l2,2l2,1.1l2,1.4l4.1,1.6l2,0.5l2,0.8l4.1,3.1l4.1,2.5l4.1,1.9l2,0.4l2,0.2l4.1,0.9l2,1
			l2,0.1h376.6l0,0"/>
	</g>
</g>
<g id="line2d_26">
	<g>
		<defs>
			<rect id="SVGID_27_" x="47" y="5.3" width="669.6" height="380.5"/>
		</defs>
		<clipPath id="SVGID_28_">
			<use xlink:href="#SVGID_27_"  style="overflow:visible;"/>
		</clipPath>
		<path class="st15" d="M77.4,368.5l2-19.5l2-16l4.1-25.5l2-8.6l2-6.7l2-6l2-4.9l2-2.8l2-6.2l2-3l2-1.2l2-5.5l2-4.9l2-2.4l2-2.2
			l2-3.9l2-1l2-0.1l2-1.9l2-2.9l2-1.1l2-0.6l2-1.6l4.1-1l2-0.7l2-0.9l4.1,1.8l4.1,2.7l2,1.1l2,1.7l2,0.8l2,1.5l2,0.4l2-0.4l2,2.7
			l4.1,3.6l2,2.7l2,1.8l2,1.1l2,1.7l2,2.7l2,1.5l2,1.9l2,1.5l2-0.3l2,1.2l2,0.8l2-1l2,1.1l2,2l2,0.8l2,1.1l8.1,7.6l2,0.2l2,1.1
			l6.1,6l2,3l2,1.4l2,0.1l2,2.2l2,0.3l2-1l2,2.1l6.1,5.2l2,2.5l2,0.3l2,1.3l2,1.1l2,2l2,1.1l2,0.6l2,1.8l2,3l2,0.8l2,2l2,1.5l2,1.2
			l2,1.9l2,0.8l2,1.9l4.1,2.5l2,0.4l2,0.3l2,0.6l2-0.7l4.1,2l4.1,3.8l2,1.5l2,2.3l2,1.4l2,2.6l2,1.9l2,2l2,2.4l2,2.8l2,2.5l2,1.9
			l2,0.8l2,1.1l2,0.8l2,1.2l2,1.4l2,0.7l2,1.4l6.1,3.4l2,1l2,0.2h356.3l0,0"/>
	</g>
</g>
<g id="line2d_27">
	<g>
		<defs>
			<rect id="SVGID_29_" x="47" y="5.3" width="669.6" height="380.5"/>
		</defs>
		<clipPath id="SVGID_30_">
			<use xlink:href="#SVGID_29_"  style="overflow:visible;"/>
		</clipPath>
		<path class="st16" d="M77.4,368.5l2-19.5l2-16.7l2-13l2-10.6l2-8.6l2-9.7l2-6.1l2-8.6l6.1-11.2l2-2.4l2-2.8l2-2l2-3.4l2-2.4l2-0.2
			l2-0.8l2-2.5l2-0.6l2-2.3l2-1.1l2-2l2-1.1l2-1.4l2-1.2l2-1l2-1.4l2,0.9l2,0.3l2,1.4l4.1,5l4.1,4.1l2,0.8l4.1,4l2,1.8l2,0.6
			l4.1,2.8l2,1.9l2,0.6l2,2.5l4.1,2.6l2,0.6l2,1.7l2,1.1l2,0l2,0.8h2l2,1.5l2,2.3l2,0.8l2-0.4l2,0.5l2,2.1l2,1.3l2,1.5l2,1.9l2,0.8
			l2,2.2l2,1.6l2,2.2l2,1.7l2,1.4l2-0.2l2,0.3l2,2l2,2.7l2,1.2l4.1,4.4l2,0.3l2,2.5l2,2.8l2,0.9l2,1.9l2,0.1l2,0.9l2-0.1l2,2.1
			l2,1.6l2,1l2,0.6l2,1.8l2,0.6l2,0.8l2-0.3l2,1.5l2,1.8l2,2l4.1,2.9l6.1,4l2,1l2,2.2l2,1.8l2,1l2,2.2l2,2l4.1,4.9l2,1.7l6.1,4.3
			l2,1.9l2,1.4l2,1.7l2,2.3l2,1.9l2,1.2l4.1,1.5l2,0.4l2,0.6l2,0.8l2,1.4l6.1,1.3h352.2l0,0"/>
	</g>
</g>
<g id="line2d_28">
	<g>
		<defs>
			<rect id="SVGID_31_" x="47" y="5.3" width="669.6" height="380.5"/>
		</defs>
		<clipPath id="SVGID_32_">
			<use xlink:href="#SVGID_31_"  style="overflow:visible;"/>
		</clipPath>
		<path class="st17" d="M77.4,368.5l2-16.3l2-13.9l4.1-20.2l2-6.9l2-4.7l2-3.9l2-4.3l4.1-6.7l2-3.5l2-0.9l2-2.2l2-1.9l2-2.9l2-1.8
			l2-1.5l2-3.5l2-0.4l2-3l2-1.8l2,0.3l2-1.2l4.1-1l2-0.7l2-1.1l2-0.5l2,1.4l2,1.9l2,2.1l2,3.1l2,2.9l2,2.5l2,3.3l2,2.6l2-0.2l2,2.6
			l4.1,5.8l2,2.2l2,2l2,3l2,2.8l2,2.3l2,1.7l2,1.5l2,1.8l2,1.3l2,1.6l2,2.2l2,1.9l2,1.7l2,1.5l2,2l2,2.8l2,1.1l4.1,5l2,3.4l2,2.1
			l2,2.5l4.1,5.7l2,2.2l2,2l2,1.5l4.1,3.5l2,2.2l4.1,3.7l2,1.5l2,1.8l2,1.4l2,1.7l4.1,2.2l2,0.6h447.9l0,0"/>
	</g>
</g>
<g id="line2d_29">
	<g>
		<defs>
			<rect id="SVGID_33_" x="47" y="5.3" width="669.6" height="380.5"/>
		</defs>
		<clipPath id="SVGID_34_">
			<use xlink:href="#SVGID_33_"  style="overflow:visible;"/>
		</clipPath>
		<path class="st18" d="M77.4,368.5l4.1-31.7l2-11l2-8.3l2-7.7l2-5.6l2-5.2l2-4.5l2-3.6l2-4.7l2-1.4l4.1-5.2l4.1-4.1l2-1.4l2-2.7
			l2-0.2l4.1-2.5l2-0.5l2-0.1l2-0.6l2-1.2l2-0.4l2-0.2l2-0.6l2,0.2l2,1.4l4.1,5.6l2,3.3l6.1,6.2l2,2.8l2,3.3l4.1,3.9l2,3l4.1,5
			l2,1.8l4.1,4.8l2,2.2l2,1.4l2,3l4.1,7l2,3.8l2,3.2l2,2.5l2,1.5l2,0.6l4.1,3.5l2,2.3l2,1.6l2,2.4l2,2l2,2.4l2,2.8l2,1.1l2,1.2
			l2,1.8l2,0.8l6.1,5.7l2,1.6l2,1.7l2,1l2,1.5l2,1.3l2,1.5l2,0.7h452l0,0"/>
	</g>
</g>
<g id="line2d_30">
	<g>
		<defs>
			<rect id="SVGID_35_" x="47" y="5.3" width="669.6" height="380.5"/>
		</defs>
		<clipPath id="SVGID_36_">
			<use xlink:href="#SVGID_35_"  style="overflow:visible;"/>
		</clipPath>
		<path class="st19" d="M77.4,368.5l2-16.3l2-13.3l4.1-19l2-7.5l2-5.2l4.1-9.5l4.1-8.2l2-3l2-4.5l2-1.5l2-2.4l2-1.4l2-2.8l2-1.8
			l2-2.3l2-2l4.1-1.1l2,0.2l2-0.5l2-0.7l2-1.4l2-1.3l2,0.5l2-0.9l2,2.3l2,0.6l4.1,4l2,2.2l2,1.1l2,2.4l2,2.1l2,1.2l2,1.8l4.1,5.4
			l2,3.1l2,2.7l2,2.2l2,3.3l2,2.6l2,1.4l2,1.7l2,2.4l2,3.5l2,3l2,1.7l6.1,7l2,3.5l2,2.8l2,2.3l2,0.9l2,1.7l2,2.9l4.1,5.3l4.1,3.7
			l2,3.2l2,1.9l4.1,4.2l2,2.6l2,1.9l4.1,3.2l4.1,3.5l2,1.7l2,1.3l2,1.1l2,0.6h449.9l0,0"/>
	</g>
</g>
<g id="line2d_31">
	<g>
		<defs>
			<rect id="SVGID_37_" x="47" y="5.3" width="669.6" height="380.5"/>
		</defs>
		<clipPath id="SVGID_38_">
			<use xlink:href="#SVGID_37_"  style="overflow:visible;"/>
		</clipPath>
		<path class="st20" d="M77.4,368.5l2-13.9l2-10.4l2-8.5l2-6.9l2-6.1l2-3.8l2-4.4l2-3.1l2-2.3l2-3.2l2-3.8l2-0.6l2-2.2l2-2.3
			l6.1-5.3l2-0.9l2-1.2l2-0.9l2-1.2l2-1.9l2-1.5l2-1.3l2-0.9l2-0.7l2-0.1l2-0.6l2,3.9l2,4.3l2,3.7l2,2.3l2,3.1l4.1,8.4l2,3.6l2,3
			l2,2.8l2,3.6l2,2.8l4.1,6.3l2,2.4l4.1,6.8l2,3.1l2,2.1l2,2.3l2,3.3l4.1,6l4.1,4.5l2,2.6l4.1,4.6l2,1.5l2,1h490.6l0,0"/>
	</g>
</g>
<g id="line2d_32">
	<g>
		<defs>
			<rect id="SVGID_39_" x="47" y="5.3" width="669.6" height="380.5"/>
		</defs>
		<clipPath id="SVGID_40_">
			<use xlink:href="#SVGID_39_"  style="overflow:visible;"/>
		</clipPath>
		<path class="st21" d="M77.4,368.5l2-13.9l2-9.8l6.1-21.6l2-5.6l2-4.3l4.1-4.9l2-3.2l2-2.3l2-2.7l2-1.7l2-1.3l2-3.3l2-0.4l2-1.5
			l2-2.8l2-1l2-1.4l2-0.9l2-1.4l2-0.6l4.1-1.4l2-1.1l2-1.4l2-0.4l2,2.7l4.1,6l2,3.8l2,3.3l2,2.8l4.1,7.6l8.1,11.2l2,3.3l2,3.6l2,2.4
			l2,3.7l2,2.9l2,2.5l2,3.4l2,2.9l2,3.2l6.1,8l4.1,5.4l2,2.2l2,2.5l2,2.2l2,1.6l2,1.3l2,0.5h486.6l0,0"/>
	</g>
</g>
<g id="line2d_33">
	<g>
		<defs>
			<rect id="SVGID_41_" x="47" y="5.3" width="669.6" height="380.5"/>
		</defs>
		<clipPath id="SVGID_42_">
			<use xlink:href="#SVGID_41_"  style="overflow:visible;"/>
		</clipPath>
		<path class="st22" d="M77.4,368.5l2-13.9l2-13l4.1-17.5l2-6.6l2-3.9l2-3.1l4.1-8.4l4.1-3.9l2-1.3l2-2.2l2-2l2-1.7l2-2.5l2,0.4
			l2-0.5l2-1.2l2-1.4l2-1.2l2-1l4.1-3.3l2-1l2-1.4l2-0.4l2-0.7l2,1.1l4.1,6.1l2,3.2l2,2.9l2,2.7l2,3.1l6.1,11.9l2,3.3l2,3.9l6.1,9.8
			l2,2l2,3.5l2,3.1l2,2.4l2,2.7l2,2.5l2,1.6l2,2.8l2,2.3l2,2.8l2,2.1l4.1,5.9l2,2.2l6.1,5.1l4.1,2.7h482.5l0,0"/>
	</g>
</g>
<g id="line2d_34">
	<g>
		<defs>
			<rect id="SVGID_43_" x="47" y="5.3" width="669.6" height="380.5"/>
		</defs>
		<clipPath id="SVGID_44_">
			<use xlink:href="#SVGID_43_"  style="overflow:visible;"/>
		</clipPath>
		<path class="st23" d="M77.4,368.5l2-12.2l2-9.5l4.1-13.3l2-5.1l4.1-8.1l4.1-7.2l2-4.5l2-1.7l2-0.6l2-0.8l4.1-3.8l2-1.1l4.1-3.1
			l2-0.5l2-1.1l2-0.8l2-1.5l4.1-1.2l2-1l4.1-0.9l2-0.4l4.1,7l2,3.3l2,3.1l2,2.7l2,4.3l2,4l2,3l2,3.3l2,3.5l2,3.8l2,3.6l4.1,7.9l2,3
			l6.1,10.9l2,3.4l4.1,5.8l2,2.6l4.1,3l4.1,0.1h498.8l0,0"/>
	</g>
</g>
<g id="line2d_35">
	<g>
		<defs>
			<rect id="SVGID_45_" x="47" y="5.3" width="669.6" height="380.5"/>
		</defs>
		<clipPath id="SVGID_46_">
			<use xlink:href="#SVGID_45_"  style="overflow:visible;"/>
		</clipPath>
		<path class="st24" d="M77.4,368.5l2-12.2l2-8.8l2-6l2-5.1l2-6l2-3.8l2-4.3l2-2.5l2-4.5l2-3.4l2-1l2-1.4l2-2.5l2-1.6l2-1.8l2-2
			l2-0.5l2-0.2l2-1l2-0.6l4.1-1.8l2-1.2l4.1-0.3l2-0.3l4.1-2.4l2,1.8l2,2.3l2,3l2,3.6l2,3.1l2,2.5l8.1,14.4l2,3.9l2,3.3l2,3.8l2,3.5
			l6.1,11.7l2,3.4l2,2.9l2,3.2l2,2.7l2,2.2l2,2l2,1.3l2,0.7h500.8l0,0"/>
	</g>
</g>
<g id="line2d_36">
	<g>
		<defs>
			<rect id="SVGID_47_" x="47" y="5.3" width="669.6" height="380.5"/>
		</defs>
		<clipPath id="SVGID_48_">
			<use xlink:href="#SVGID_47_"  style="overflow:visible;"/>
		</clipPath>
		<path class="st25" d="M77.4,368.5l2-12.2l2-7.5l2-8.1l2-6.3l2-3.6l2-4.5l2-4.1l2-2.9l2-3.2l4.1-5.1l2-1.1l2-3.2l6.1-5.1l2-1.2
			l2-1.5l2-0.5l2-1.2l2-0.8l2,0.3l2-1.1l2-0.6l2-0.8l2-0.2l2-1.2l2-0.5l2,2.7l6.1,10.3l6.1,8.5l2,3.6l2,2.1l2,3.3l2,2.9l4.1,7l2,2.7
			l6.1,9.4l4.1,5.5l2,3.3l6.1,8.9l2,2.3l2,1.8l2,1.3l2,0.6h496.8l0,0"/>
	</g>
</g>
<g id="line2d_37">
	<g>
		<defs>
			<rect id="SVGID_49_" x="47" y="5.3" width="669.6" height="380.5"/>
		</defs>
		<clipPath id="SVGID_50_">
			<use xlink:href="#SVGID_49_"  style="overflow:visible;"/>
		</clipPath>
		<path class="st26" d="M77.4,368.5l2-10.8l4.1-12.3l2-3.6l4.1-8.8l2-2.7l2-2.9l2-2.2l2-3.2l2-2.8l2-2.2l2-2l2-1.5l4.1-1.8l4.1-3.2
			l2-0.6l2-1.1l2-1.2l2-0.9l4.1-2.2l2-0.4l2-0.8l2-0.2l2,0l2,2.6l2,3.7l4.1,8l8.1,12.8l6.1,11.5l2,4.7l4.1,7.9l2,3.1l2,2.6l2,2.8
			l4.1,4.6l2,1.7l2,1.2l4.1,0.1h504.9l0,0"/>
	</g>
</g>
<g id="line2d_38">
	<g>
		<defs>
			<rect id="SVGID_51_" x="47" y="5.3" width="669.6" height="380.5"/>
		</defs>
		<clipPath id="SVGID_52_">
			<use xlink:href="#SVGID_51_"  style="overflow:visible;"/>
		</clipPath>
		<path class="st27" d="M77.4,368.5l2-10.8l2-6l2-6.5l2-4.2l2-3.8l4.1-6.9l2-3l4.1-4.5l2-1.3l2-2.7l2-1.3l2-1.5l2-1.3l2-1.5l2-1.1
			l2-1.9l2-0.9l2-1.1l2-0.9l2-0.2l4.1-0.6l2-1.7l2-0.6l2-0.3l2-0.2l2,3.3l2,3.7l2,4.1l2,3.4l6.1,11.7l2,3.1l2,2.4l8.1,14.5l4.1,5.7
			l4.1,4.1l2,1.9l4.1,4l2,1.7l2,1.1l2,0.2h504.9l0,0"/>
	</g>
</g>
<g id="line2d_39">
	<g>
		<defs>
			<rect id="SVGID_53_" x="47" y="5.3" width="669.6" height="380.5"/>
		</defs>
		<clipPath id="SVGID_54_">
			<use xlink:href="#SVGID_53_"  style="overflow:visible;"/>
		</clipPath>
		<path class="st28" d="M77.4,368.5l2-10.8l4.1-13.4l4.1-8.5l2-3.1l2-3.7l2-3.4l2-3.1l2-2.6l2-1.4l2-1.7l2-2l2-0.7l2-2.6l2-1.3l2-2
			l2-1.2l4.1-2l2-0.8l2-0.5l2-0.3l2-0.1l2-1.1l2-1l2-0.6l2-0.4l2,3.8l2,4.1l2,3.1l2,3.6l2,4.2l10.2,17.4l2,3.7l2,3l2,3.4l2,3.1
			l2,3.7l2,3.4l4.1,5.9l2,2.2l2,2l2,1.3l2,0.6h506.9l0,0"/>
	</g>
</g>
<g id="line2d_40">
	<g>
		<defs>
			<rect id="SVGID_55_" x="47" y="5.3" width="669.6" height="380.5"/>
		</defs>
		<clipPath id="SVGID_56_">
			<use xlink:href="#SVGID_55_"  style="overflow:visible;"/>
		</clipPath>
		<path class="st29" d="M77.4,368.5l2-9.8l2-4.9l2-4.5l2-3.9l2-3.2l2-4.4l4.1-5.9l2-1.7l2-1.4l2-1.8l2-2.4l2-1.9l2-0.9l2-1.5l2-1.9
			l2-0.9l2-0.8l4.1-2.3l2-0.4l2-0.5l2-0.3l4.1-1.3l2-0.2l2-0.8l2-0.6l2,3.5l4.1,8.2l2,3.4l2,4l2,4.2l6.1,11.3l6.1,10.8l4.1,6l2,2.5
			l2,2.2l2,1.4l2,0.9h515.1l0,0"/>
	</g>
</g>
<g id="line2d_41">
	<g>
		<defs>
			<rect id="SVGID_57_" x="47" y="5.3" width="669.6" height="380.5"/>
		</defs>
		<clipPath id="SVGID_58_">
			<use xlink:href="#SVGID_57_"  style="overflow:visible;"/>
		</clipPath>
		<path class="st30" d="M77.4,368.5l2-9.8l2-6.3l2-5.7l2-3.6l2-4.6l2-3.2l2-4.2l2-3.7l2-2.1l2-0.7l4.1-2.9l2-1.7l4.1-2.9l2-0.8l2-1
			l2-1.1l2-0.6l4.1-0.6l4.1-1.9l4.1-0.6l2-0.7l2-0.2l2-0.9l2,3l4.1,7.1l2,4.2l4.1,7.6l2,3l2,3.5l2,3l4.1,7.4l2,3.4l2,3.8l2,3.5
			l2,3.1l2,2.7l2,2.2l4.1,2.2h513l0,0"/>
	</g>
</g>
<g id="line2d_42">
	<g>
		<defs>
			<rect id="SVGID_59_" x="47" y="5.3" width="669.6" height="380.5"/>
		</defs>
		<clipPath id="SVGID_60_">
			<use xlink:href="#SVGID_59_"  style="overflow:visible;"/>
		</clipPath>
		<path class="st31" d="M77.4,368.5l2-9.8l4.1-11.6l4.1-8l2-3.1l2-3.5l2-2l2-2.2l2-1.5l4.1-3.9l2-1.4l2-1l2-0.4l4.1-2.2l2-1.9l2-0.8
			l2-0.5l2-1l4.1-1l2-0.9l2-1.1l2-0.7l4.1-1.1l2,3.5l2,4l2,3l2,4.2l2,3.9l2,4.4l2,4l2,3.6l4.1,7.8l2,3.5l2,3.8l2,3.4l2,2.8l4.1,4.5
			l2,1.9l2,1.3l2,0.2h513l0,0"/>
	</g>
</g>
<g id="patch_3">
	<path class="st32" d="M47,385.8V5.3"/>
</g>
<g id="patch_4">
	<path class="st32" d="M716.6,385.8V5.3"/>
</g>
<g id="patch_5">
	<path class="st32" d="M47,385.8h669.6"/>
</g>
<g id="patch_6">
	<path class="st32" d="M47,5.3h669.6"/>
</g>
<g id="text_15">
	<g transform="translate(257.710312 54.48)scale(0.12 -0.12)">
		<g>
			<path id="DejaVuSans-73" d="M-498.5,582.8h9.9v-72.9h-9.9V582.8z"/>
		</g>
		<g>
			<path id="DejaVuSans-110_4_" d="M-424,542.9v-33h-9v32.7c0,5.2-1,9-3,11.6c-2,2.6-5,3.9-9.1,3.9c-4.9,0-8.7-1.5-11.5-4.6
				c-2.8-3.1-4.2-7.3-4.2-12.6v-30.9h-9v54.7h9V556c2.2,3.3,4.7,5.8,7.6,7.4c2.9,1.6,6.3,2.4,10.1,2.4c6.3,0,11-1.9,14.2-5.8
				C-425.6,556.1-424,550.4-424,542.9z"/>
		</g>
		<g>
			<path id="DejaVuSans-102_1_" d="M-378.4,585.8v-7.5h-8.6c-3.2,0-5.5-0.7-6.7-2c-1.2-1.3-1.9-3.6-1.9-7v-4.8h14.8v-7h-14.8v-47.7
				h-9v47.7h-8.6v7h8.6v3.8c0,6.1,1.4,10.5,4.2,13.3c2.8,2.8,7.3,4.2,13.5,4.2H-378.4z"/>
		</g>
		<g>
			<path id="DejaVuSans-111_4_" d="M-349.6,558.2c-4.8,0-8.6-1.9-11.4-5.6c-2.8-3.8-4.2-8.9-4.2-15.5s1.4-11.7,4.2-15.5
				c2.8-3.8,6.6-5.6,11.5-5.6c4.8,0,8.6,1.9,11.4,5.7c2.8,3.8,4.2,8.9,4.2,15.4c0,6.5-1.4,11.6-4.2,15.4
				C-341.1,556.4-344.9,558.2-349.6,558.2z M-349.6,565.9c7.8,0,13.9-2.5,18.4-7.6c4.5-5.1,6.7-12.1,6.7-21.1c0-8.9-2.2-16-6.7-21.1
				c-4.5-5.1-10.6-7.6-18.4-7.6c-7.8,0-14,2.5-18.4,7.6c-4.4,5.1-6.7,12.1-6.7,21.1c0,9,2.2,16,6.7,21.1
				C-363.6,563.3-357.5,565.9-349.6,565.9z"/>
		</g>
		<g>
			<path id="DejaVuSans-114_5_" d="M-278,556.2c-1,0.6-2.1,1-3.3,1.3c-1.2,0.3-2.5,0.4-3.9,0.4c-5.1,0-9-1.7-11.7-5s-4.1-8-4.1-14.2
				v-28.8h-9v54.7h9V556c1.9,3.3,4.4,5.8,7.4,7.4c3,1.6,6.7,2.4,11,2.4c0.6,0,1.3,0,2-0.1c0.8-0.1,1.6-0.2,2.5-0.4L-278,556.2z"/>
		</g>
		<g>
			<path id="DejaVuSans-109_2_" d="M-226,554c2.2,4,4.9,7,8.1,8.9s6.8,2.9,11,2.9c5.7,0,10.1-2,13.2-6c3.1-4,4.6-9.6,4.6-17v-33h-9
				v32.7c0,5.2-0.9,9.1-2.8,11.7c-1.9,2.5-4.7,3.8-8.5,3.8c-4.7,0-8.3-1.5-11-4.6c-2.7-3.1-4-7.3-4-12.6v-30.9h-9v32.7
				c0,5.3-0.9,9.2-2.8,11.7c-1.9,2.5-4.7,3.8-8.6,3.8c-4.6,0-8.2-1.6-11-4.7c-2.7-3.1-4-7.3-4-12.6v-30.9h-9v54.7h9V556
				c2.1,3.4,4.5,5.8,7.4,7.4c2.9,1.6,6.3,2.4,10.2,2.4c4,0,7.4-1,10.1-3C-229.4,560.8-227.3,557.9-226,554z"/>
		</g>
		<g>
			<path id="DejaVuSans-97_2_" d="M-146.3,537.3c-7.3,0-12.3-0.8-15.1-2.5c-2.8-1.7-4.2-4.5-4.2-8.5c0-3.2,1.1-5.7,3.2-7.6
				c2.1-1.9,5-2.8,8.6-2.8c5,0,9,1.8,12,5.3s4.5,8.2,4.5,14.1v2H-146.3z M-128.4,541.1v-31.2h-9v8.3c-2.1-3.3-4.6-5.8-7.7-7.3
				c-3.1-1.6-6.8-2.4-11.2-2.4c-5.6,0-10,1.6-13.4,4.7c-3.3,3.1-5,7.4-5,12.6c0,6.1,2.1,10.8,6.2,13.9c4.1,3.1,10.3,4.7,18.4,4.7
				h12.6v0.9c0,4.1-1.4,7.3-4.1,9.6s-6.5,3.4-11.5,3.4c-3.1,0-6.2-0.4-9.1-1.1c-3-0.8-5.8-1.9-8.5-3.4v8.3c3.3,1.3,6.5,2.2,9.6,2.8
				c3.1,0.6,6.1,1,9,1c7.9,0,13.8-2.1,17.7-6.2C-130.3,555.6-128.4,549.4-128.4,541.1z"/>
		</g>
		<g>
			<path id="DejaVuSans-116_2_" d="M-101,580.1v-15.5h18.5v-7H-101v-29.7c0-4.5,0.6-7.3,1.8-8.6s3.7-1.9,7.5-1.9h9.2v-7.5h-9.2
				c-6.9,0-11.7,1.3-14.4,3.9c-2.6,2.6-4,7.3-4,14.1v29.7h-6.6v7h6.6v15.5H-101z"/>
		</g>
		<g>
			<path id="DejaVuSans-105_2_" d="M-70.7,564.5h9v-54.7h-9V564.5z M-70.7,585.8h9v-11.4h-9V585.8z"/>
		</g>
		<g>
			<path id="DejaVuSans-111_5_" d="M-21.7,558.2c-4.8,0-8.6-1.9-11.4-5.6s-4.2-8.9-4.2-15.5s1.4-11.7,4.2-15.5
				c2.8-3.8,6.6-5.6,11.5-5.6c4.8,0,8.6,1.9,11.4,5.7c2.8,3.8,4.2,8.9,4.2,15.4c0,6.5-1.4,11.6-4.2,15.4
				C-13.1,556.4-16.9,558.2-21.7,558.2z M-21.7,565.9c7.8,0,13.9-2.5,18.4-7.6c4.5-5.1,6.7-12.1,6.7-21.1c0-8.9-2.2-16-6.7-21.1
				c-4.5-5.1-10.6-7.6-18.4-7.6c-7.8,0-14,2.5-18.4,7.6c-4.4,5.1-6.7,12.1-6.7,21.1c0,9,2.2,16,6.7,21.1
				C-35.7,563.3-29.5,565.9-21.7,565.9z"/>
		</g>
		<g>
			<path id="DejaVuSans-110_5_" d="M63.8,542.9v-33h-9v32.7c0,5.2-1,9-3,11.6c-2,2.6-5,3.9-9.1,3.9c-4.9,0-8.7-1.5-11.5-4.6
				c-2.8-3.1-4.2-7.3-4.2-12.6v-30.9h-9v54.7h9V556c2.2,3.3,4.7,5.8,7.6,7.4c2.9,1.6,6.3,2.4,10.1,2.4c6.3,0,11-1.9,14.2-5.8
				C62.2,556.1,63.8,550.4,63.8,542.9z"/>
		</g>
		<g>
			<path id="DejaVuSans-97_3_" d="M106.5,537.3c-7.3,0-12.3-0.8-15.1-2.5c-2.8-1.7-4.2-4.5-4.2-8.5c0-3.2,1.1-5.7,3.2-7.6
				c2.1-1.9,5-2.8,8.6-2.8c5,0,9,1.8,12,5.3c3,3.5,4.5,8.2,4.5,14.1v2H106.5z M124.5,541.1v-31.2h-9v8.3c-2.1-3.3-4.6-5.8-7.7-7.3
				c-3.1-1.6-6.8-2.4-11.2-2.4c-5.6,0-10,1.6-13.4,4.7c-3.3,3.1-5,7.4-5,12.6c0,6.1,2.1,10.8,6.2,13.9c4.1,3.1,10.3,4.7,18.4,4.7
				h12.6v0.9c0,4.1-1.4,7.3-4.1,9.6s-6.5,3.4-11.5,3.4c-3.1,0-6.2-0.4-9.1-1.1c-3-0.8-5.8-1.9-8.5-3.4v8.3c3.3,1.3,6.5,2.2,9.6,2.8
				c3.1,0.6,6.1,1,9,1c7.9,0,13.8-2.1,17.7-6.2C122.5,555.6,124.5,549.4,124.5,541.1z"/>
		</g>
		<g>
			<path id="DejaVuSans-108_2_" d="M143,585.8h9v-76h-9V585.8z"/>
		</g>
		<g>
			<path id="DejaVuSans-32_3_" d="M161.3,509.9"/>
		</g>
		<g>
			<path id="DejaVuSans-99_3_" d="M241.9,562.5V554c-2.5,1.4-5.1,2.5-7.6,3.2c-2.6,0.7-5.1,1-7.7,1c-5.8,0-10.4-1.8-13.6-5.5
				c-3.2-3.7-4.8-8.9-4.8-15.5s1.6-11.9,4.8-15.6c3.2-3.7,7.8-5.5,13.6-5.5c2.6,0,5.2,0.3,7.7,1c2.6,0.7,5.1,1.8,7.6,3.2V512
				c-2.5-1.2-5.1-2-7.8-2.6c-2.7-0.6-5.5-0.9-8.6-0.9c-8.2,0-14.8,2.6-19.6,7.8c-4.8,5.2-7.3,12.2-7.3,21c0,8.9,2.4,15.9,7.3,21
				c4.9,5.1,11.6,7.7,20.2,7.7c2.8,0,5.5-0.3,8.1-0.9C236.9,564.4,239.4,563.6,241.9,562.5z"/>
		</g>
		<g>
			<path id="DejaVuSans-117_2_" d="M256.6,531.4v33.1h9v-32.8c0-5.2,1-9.1,3-11.7c2-2.6,5.1-3.9,9.1-3.9c4.8,0,8.7,1.5,11.5,4.6
				c2.8,3.1,4.2,7.3,4.2,12.7v31h9v-54.7h-9v8.4c-2.2-3.3-4.7-5.8-7.6-7.4c-2.9-1.6-6.2-2.4-10-2.4c-6.3,0-11.1,2-14.3,5.9
				C258.2,518.2,256.6,523.9,256.6,531.4z"/>
		</g>
		<g>
			<path id="DejaVuSans-114_6_" d="M352.6,556.2c-1,0.6-2.1,1-3.3,1.3c-1.2,0.3-2.5,0.4-3.9,0.4c-5.1,0-9-1.7-11.7-5
				s-4.1-8-4.1-14.2v-28.8h-9v54.7h9V556c1.9,3.3,4.4,5.8,7.4,7.4c3,1.6,6.7,2.4,11,2.4c0.6,0,1.3,0,2-0.1c0.8-0.1,1.6-0.2,2.5-0.4
				L352.6,556.2z"/>
		</g>
		<g>
			<path id="DejaVuSans-114_7_" d="M393.7,556.2c-1,0.6-2.1,1-3.3,1.3c-1.2,0.3-2.5,0.4-3.9,0.4c-5.1,0-9-1.7-11.7-5
				s-4.1-8-4.1-14.2v-28.8h-9v54.7h9V556c1.9,3.3,4.4,5.8,7.4,7.4c3,1.6,6.7,2.4,11,2.4c0.6,0,1.3,0,2-0.1c0.8-0.1,1.6-0.2,2.5-0.4
				L393.7,556.2z"/>
		</g>
		<g>
			<path id="DejaVuSans-101_3_" d="M449.9,539.5v-4.4h-41.3c0.4-6.2,2.3-10.9,5.6-14.1c3.3-3.2,8-4.9,13.9-4.9c3.4,0,6.8,0.4,10,1.3
				c3.2,0.8,6.5,2.1,9.7,3.8v-8.5c-3.2-1.4-6.5-2.4-9.9-3.1c-3.4-0.7-6.8-1.1-10.3-1.1c-8.7,0-15.6,2.5-20.7,7.6
				c-5.1,5.1-7.6,12-7.6,20.6c0,8.9,2.4,16,7.2,21.3c4.8,5.3,11.4,7.9,19.6,7.9c7.4,0,13.2-2.4,17.5-7.1
				C447.7,554,449.9,547.6,449.9,539.5z M440.9,542.1c-0.1,4.9-1.4,8.8-4.1,11.8c-2.7,2.9-6.2,4.4-10.7,4.4c-5,0-9-1.4-12-4.2
				c-3-2.8-4.7-6.8-5.2-12L440.9,542.1z"/>
		</g>
		<g>
			<path id="DejaVuSans-110_6_" d="M510.1,542.9v-33h-9v32.7c0,5.2-1,9-3,11.6c-2,2.6-5,3.9-9.1,3.9c-4.9,0-8.7-1.5-11.5-4.6
				c-2.8-3.1-4.2-7.3-4.2-12.6v-30.9h-9v54.7h9V556c2.2,3.3,4.7,5.8,7.6,7.4c2.9,1.6,6.3,2.4,10.1,2.4c6.3,0,11-1.9,14.2-5.8
				C508.5,556.1,510.1,550.4,510.1,542.9z"/>
		</g>
		<g>
			<path id="DejaVuSans-99_4_" d="M567.3,562.5V554c-2.5,1.4-5.1,2.5-7.6,3.2c-2.6,0.7-5.1,1-7.7,1c-5.8,0-10.4-1.8-13.6-5.5
				c-3.2-3.7-4.8-8.9-4.8-15.5s1.6-11.9,4.8-15.6c3.2-3.7,7.8-5.5,13.6-5.5c2.6,0,5.2,0.3,7.7,1c2.6,0.7,5.1,1.8,7.6,3.2V512
				c-2.5-1.2-5.1-2-7.8-2.6c-2.7-0.6-5.5-0.9-8.6-0.9c-8.2,0-14.8,2.6-19.6,7.8c-4.8,5.2-7.3,12.2-7.3,21c0,8.9,2.4,15.9,7.3,21
				c4.9,5.1,11.6,7.7,20.2,7.7c2.8,0,5.5-0.3,8.1-0.9C562.3,564.4,564.9,563.6,567.3,562.5z"/>
		</g>
		<g>
			<path id="DejaVuSans-121_1_" d="M605.7,504.8c-2.5-6.5-5-10.8-7.4-12.7c-2.4-2-5.6-3-9.7-3h-7.2v7.5h5.3c2.5,0,4.4,0.6,5.8,1.8
				c1.4,1.2,2.9,3.9,4.5,8.3l1.6,4.1l-22.1,53.8h9.5l17.1-42.8l17.1,42.8h9.5L605.7,504.8z"/>
		</g>
		<g>
			<path id="DejaVuSans-32_4_" d="M632.7,509.9"/>
		</g>
		<g>
			<path id="DejaVuSans-98_1_" d="M713.2,537.2c0,6.6-1.4,11.8-4.1,15.5s-6.5,5.6-11.2,5.6c-4.8,0-8.5-1.9-11.2-5.6
				s-4.1-8.9-4.1-15.5s1.4-11.8,4.1-15.5s6.5-5.6,11.2-5.6c4.8,0,8.5,1.9,11.2,5.6S713.2,530.6,713.2,537.2z M682.6,556.2
				c1.9,3.2,4.3,5.7,7.2,7.2c2.9,1.6,6.3,2.4,10.3,2.4c6.6,0,12-2.6,16.2-7.9c4.2-5.3,6.2-12.2,6.2-20.8s-2.1-15.5-6.2-20.8
				c-4.1-5.3-9.5-7.9-16.2-7.9c-4,0-7.4,0.8-10.3,2.4c-2.9,1.6-5.3,4-7.2,7.2v-8.2h-9v76h9V556.2z"/>
		</g>
		<g>
			<path id="DejaVuSans-121_2_" d="M760.2,504.8c-2.5-6.5-5-10.8-7.4-12.7c-2.4-2-5.6-3-9.7-3h-7.2v7.5h5.3c2.5,0,4.4,0.6,5.8,1.8
				c1.4,1.2,2.9,3.9,4.5,8.3l1.6,4.1L731,564.5h9.5l17.1-42.8l17.1,42.8h9.5L760.2,504.8z"/>
		</g>
		<g>
			<path id="DejaVuSans-32_5_" d="M787.2,509.9"/>
		</g>
		<g>
			<path id="DejaVuSans-98_2_" d="M867.6,537.2c0,6.6-1.4,11.8-4.1,15.5s-6.5,5.6-11.2,5.6c-4.8,0-8.5-1.9-11.2-5.6
				s-4.1-8.9-4.1-15.5s1.4-11.8,4.1-15.5s6.5-5.6,11.2-5.6c4.8,0,8.5,1.9,11.2,5.6S867.6,530.6,867.6,537.2z M837.1,556.2
				c1.9,3.2,4.3,5.7,7.2,7.2c2.9,1.6,6.3,2.4,10.3,2.4c6.6,0,12-2.6,16.2-7.9c4.2-5.3,6.2-12.2,6.2-20.8s-2.1-15.5-6.2-20.8
				c-4.1-5.3-9.5-7.9-16.2-7.9c-4,0-7.4,0.8-10.3,2.4c-2.9,1.6-5.3,4-7.2,7.2v-8.2h-9v76h9V556.2z"/>
		</g>
		<g>
			<path id="DejaVuSans-108_3_" d="M891.8,585.8h9v-76h-9V585.8z"/>
		</g>
		<g>
			<path id="DejaVuSans-111_6_" d="M940.8,558.2c-4.8,0-8.6-1.9-11.4-5.6c-2.8-3.8-4.2-8.9-4.2-15.5s1.4-11.7,4.2-15.5
				c2.8-3.8,6.6-5.6,11.5-5.6c4.8,0,8.6,1.9,11.4,5.7c2.8,3.8,4.2,8.9,4.2,15.4c0,6.5-1.4,11.6-4.2,15.4
				C949.4,556.4,945.6,558.2,940.8,558.2z M940.8,565.9c7.8,0,13.9-2.5,18.4-7.6c4.5-5.1,6.7-12.1,6.7-21.1c0-8.9-2.2-16-6.7-21.1
				c-4.5-5.1-10.6-7.6-18.4-7.6c-7.8,0-14,2.5-18.4,7.6c-4.4,5.1-6.7,12.1-6.7,21.1c0,9,2.2,16,6.7,21.1
				C926.8,563.3,933,565.9,940.8,565.9z"/>
		</g>
		<g>
			<path id="DejaVuSans-99_5_" d="M1020.2,562.5V554c-2.5,1.4-5.1,2.5-7.6,3.2s-5.1,1-7.7,1c-5.8,0-10.4-1.8-13.6-5.5
				c-3.2-3.7-4.8-8.9-4.8-15.5s1.6-11.9,4.8-15.6c3.2-3.7,7.8-5.5,13.6-5.5c2.6,0,5.2,0.3,7.7,1s5.1,1.8,7.6,3.2V512
				c-2.5-1.2-5.1-2-7.8-2.6c-2.7-0.6-5.5-0.9-8.6-0.9c-8.2,0-14.8,2.6-19.6,7.8c-4.8,5.2-7.3,12.2-7.3,21c0,8.9,2.4,15.9,7.3,21
				c4.9,5.1,11.6,7.7,20.2,7.7c2.8,0,5.5-0.3,8.1-0.9C1015.1,564.4,1017.7,563.6,1020.2,562.5z"/>
		</g>
		<g>
			<path id="DejaVuSans-107_2_" d="M1035.4,585.8h9V541l26.8,23.6h11.5l-29-25.6l30.2-29.1h-11.7l-27.8,26.7v-26.7h-9V585.8z"/>
		</g>
		<g>
			<path id="DejaVuSans-32_6_" d="M1084.3,509.9"/>
		</g>
		<g>
			<path id="DejaVuSans-110_7_" d="M1171,542.9v-33h-9v32.7c0,5.2-1,9-3,11.6c-2,2.6-5,3.9-9.1,3.9c-4.9,0-8.7-1.5-11.5-4.6
				c-2.8-3.1-4.2-7.3-4.2-12.6v-30.9h-9v54.7h9V556c2.2,3.3,4.7,5.8,7.6,7.4c2.9,1.6,6.3,2.4,10.1,2.4c6.3,0,11-1.9,14.2-5.8
				C1169.3,556.1,1171,550.4,1171,542.9z"/>
		</g>
		<g>
			<path id="DejaVuSans-117_3_" d="M1187.9,531.4v33.1h9v-32.8c0-5.2,1-9.1,3-11.7c2-2.6,5.1-3.9,9.1-3.9c4.8,0,8.7,1.5,11.5,4.6
				c2.8,3.1,4.2,7.3,4.2,12.7v31h9v-54.7h-9v8.4c-2.2-3.3-4.7-5.8-7.6-7.4c-2.9-1.6-6.2-2.4-10-2.4c-6.3,0-11.1,2-14.3,5.9
				C1189.6,518.2,1187.9,523.9,1187.9,531.4z"/>
		</g>
		<g>
			<path id="DejaVuSans-109_3_" d="M1294.8,554c2.2,4,4.9,7,8.1,8.9s6.8,2.9,11,2.9c5.7,0,10.1-2,13.2-6c3.1-4,4.6-9.6,4.6-17v-33
				h-9v32.7c0,5.2-0.9,9.1-2.8,11.7c-1.9,2.5-4.7,3.8-8.5,3.8c-4.7,0-8.3-1.5-11-4.6c-2.7-3.1-4-7.3-4-12.6v-30.9h-9v32.7
				c0,5.3-0.9,9.2-2.8,11.7s-4.7,3.8-8.6,3.8c-4.6,0-8.2-1.6-11-4.7c-2.7-3.1-4-7.3-4-12.6v-30.9h-9v54.7h9V556
				c2.1,3.4,4.5,5.8,7.4,7.4s6.3,2.4,10.2,2.4c4,0,7.4-1,10.1-3C1291.4,560.8,1293.5,557.9,1294.8,554z"/>
		</g>
		<g>
			<path id="DejaVuSans-98_3_" d="M1388.9,537.2c0,6.6-1.4,11.8-4.1,15.5s-6.5,5.6-11.2,5.6c-4.8,0-8.5-1.9-11.2-5.6
				s-4.1-8.9-4.1-15.5s1.4-11.8,4.1-15.5s6.5-5.6,11.2-5.6c4.8,0,8.5,1.9,11.2,5.6S1388.9,530.6,1388.9,537.2z M1358.3,556.2
				c1.9,3.2,4.3,5.7,7.2,7.2c2.9,1.6,6.3,2.4,10.3,2.4c6.6,0,12-2.6,16.2-7.9c4.2-5.3,6.2-12.2,6.2-20.8s-2.1-15.5-6.2-20.8
				c-4.1-5.3-9.5-7.9-16.2-7.9c-4,0-7.4,0.8-10.3,2.4c-2.9,1.6-5.3,4-7.2,7.2v-8.2h-9v76h9V556.2z"/>
		</g>
		<g>
			<path id="DejaVuSans-101_4_" d="M1459.9,539.5v-4.4h-41.3c0.4-6.2,2.3-10.9,5.6-14.1s8-4.9,13.9-4.9c3.4,0,6.8,0.4,10,1.3
				s6.5,2.1,9.7,3.8v-8.5c-3.2-1.4-6.5-2.4-9.9-3.1s-6.8-1.1-10.3-1.1c-8.7,0-15.6,2.5-20.7,7.6c-5.1,5.1-7.6,12-7.6,20.6
				c0,8.9,2.4,16,7.2,21.3c4.8,5.3,11.4,7.9,19.6,7.9c7.4,0,13.2-2.4,17.5-7.1C1457.8,554,1459.9,547.6,1459.9,539.5z M1450.9,542.1
				c-0.1,4.9-1.4,8.8-4.1,11.8c-2.7,2.9-6.2,4.4-10.7,4.4c-5,0-9-1.4-12-4.2s-4.7-6.8-5.2-12L1450.9,542.1z"/>
		</g>
		<g>
			<path id="DejaVuSans-114_8_" d="M1506.3,556.2c-1,0.6-2.1,1-3.3,1.3c-1.2,0.3-2.5,0.4-3.9,0.4c-5.1,0-9-1.7-11.7-5
				s-4.1-8-4.1-14.2v-28.8h-9v54.7h9V556c1.9,3.3,4.4,5.8,7.4,7.4c3,1.6,6.7,2.4,11,2.4c0.6,0,1.3,0,2-0.1c0.8-0.1,1.6-0.2,2.5-0.4
				L1506.3,556.2z"/>
		</g>
		<g>
			<path id="DejaVuSans-32_7_" d="M1506.4,509.9"/>
		</g>
		<g>
			<path id="DejaVuSans-97_4_" d="M1572.4,537.3c-7.3,0-12.3-0.8-15.1-2.5s-4.2-4.5-4.2-8.5c0-3.2,1.1-5.7,3.2-7.6
				c2.1-1.9,5-2.8,8.6-2.8c5,0,9,1.8,12,5.3s4.5,8.2,4.5,14.1v2H1572.4z M1590.3,541.1v-31.2h-9v8.3c-2.1-3.3-4.6-5.8-7.7-7.3
				c-3.1-1.6-6.8-2.4-11.2-2.4c-5.6,0-10,1.6-13.4,4.7c-3.3,3.1-5,7.4-5,12.6c0,6.1,2.1,10.8,6.2,13.9c4.1,3.1,10.3,4.7,18.4,4.7
				h12.6v0.9c0,4.1-1.4,7.3-4.1,9.6s-6.5,3.4-11.5,3.4c-3.1,0-6.2-0.4-9.1-1.1c-3-0.8-5.8-1.9-8.5-3.4v8.3c3.3,1.3,6.5,2.2,9.6,2.8
				c3.1,0.6,6.1,1,9,1c7.9,0,13.8-2.1,17.7-6.2C1588.4,555.6,1590.3,549.4,1590.3,541.1z"/>
		</g>
		<g>
			<path id="DejaVuSans-99_6_" d="M1648.2,562.5V554c-2.5,1.4-5.1,2.5-7.6,3.2s-5.1,1-7.7,1c-5.8,0-10.4-1.8-13.6-5.5
				c-3.2-3.7-4.8-8.9-4.8-15.5s1.6-11.9,4.8-15.6c3.2-3.7,7.8-5.5,13.6-5.5c2.6,0,5.2,0.3,7.7,1s5.1,1.8,7.6,3.2V512
				c-2.5-1.2-5.1-2-7.8-2.6c-2.7-0.6-5.5-0.9-8.6-0.9c-8.2,0-14.8,2.6-19.6,7.8c-4.8,5.2-7.3,12.2-7.3,21c0,8.9,2.4,15.9,7.3,21
				c4.9,5.1,11.6,7.7,20.2,7.7c2.8,0,5.5-0.3,8.1-0.9C1643.2,564.4,1645.7,563.6,1648.2,562.5z"/>
		</g>
		<g>
			<path id="DejaVuSans-114_9_" d="M1695.5,556.2c-1,0.6-2.1,1-3.3,1.3c-1.2,0.3-2.5,0.4-3.9,0.4c-5.1,0-9-1.7-11.7-5
				s-4.1-8-4.1-14.2v-28.8h-9v54.7h9V556c1.9,3.3,4.4,5.8,7.4,7.4c3,1.6,6.7,2.4,11,2.4c0.6,0,1.3,0,2-0.1c0.8-0.1,1.6-0.2,2.5-0.4
				L1695.5,556.2z"/>
		</g>
		<g>
			<path id="DejaVuSans-111_7_" d="M1726.1,558.2c-4.8,0-8.6-1.9-11.4-5.6s-4.2-8.9-4.2-15.5s1.4-11.7,4.2-15.5
				c2.8-3.8,6.6-5.6,11.5-5.6c4.8,0,8.6,1.9,11.4,5.7c2.8,3.8,4.2,8.9,4.2,15.4c0,6.5-1.4,11.6-4.2,15.4
				C1734.7,556.4,1730.9,558.2,1726.1,558.2z M1726.1,565.9c7.8,0,13.9-2.5,18.4-7.6c4.5-5.1,6.7-12.1,6.7-21.1
				c0-8.9-2.2-16-6.7-21.1c-4.5-5.1-10.6-7.6-18.4-7.6c-7.8,0-14,2.5-18.4,7.6c-4.4,5.1-6.7,12.1-6.7,21.1c0,9,2.2,16,6.7,21.1
				C1712.1,563.3,1718.2,565.9,1726.1,565.9z"/>
		</g>
		<g>
			<path id="DejaVuSans-115" d="M1800.9,562.9v-8.5c-2.5,1.3-5.2,2.3-7.9,2.9c-2.7,0.7-5.6,1-8.5,1c-4.5,0-7.8-0.7-10-2
				s-3.3-3.4-3.3-6.2c0-2.1,0.8-3.7,2.4-4.9s4.8-2.3,9.6-3.4l3.1-0.7c6.4-1.4,10.9-3.3,13.6-5.8s4-6,4-10.4c0-5.1-2-9.1-6-12.1
				c-4-3-9.5-4.4-16.6-4.4c-2.9,0-6,0.3-9.2,0.9s-6.5,1.4-10,2.6v9.3c3.3-1.7,6.6-3,9.8-3.9c3.2-0.9,6.4-1.3,9.6-1.3
				c4.2,0,7.5,0.7,9.8,2.2c2.3,1.4,3.4,3.5,3.4,6.1c0,2.4-0.8,4.3-2.5,5.6c-1.6,1.3-5.2,2.6-10.8,3.8l-3.1,0.7
				c-5.6,1.2-9.6,3-12.1,5.4c-2.5,2.4-3.7,5.8-3.7,10c0,5.1,1.8,9.1,5.5,11.9c3.6,2.8,8.8,4.2,15.5,4.2c3.3,0,6.4-0.2,9.4-0.7
				C1795.8,564.6,1798.5,563.9,1800.9,562.9z"/>
		</g>
		<g>
			<path id="DejaVuSans-115_1_" d="M1853,562.9v-8.5c-2.5,1.3-5.2,2.3-7.9,2.9c-2.7,0.7-5.6,1-8.5,1c-4.5,0-7.8-0.7-10-2
				s-3.3-3.4-3.3-6.2c0-2.1,0.8-3.7,2.4-4.9s4.8-2.3,9.6-3.4l3.1-0.7c6.4-1.4,10.9-3.3,13.6-5.8s4-6,4-10.4c0-5.1-2-9.1-6-12.1
				c-4-3-9.5-4.4-16.6-4.4c-2.9,0-6,0.3-9.2,0.9s-6.5,1.4-10,2.6v9.3c3.3-1.7,6.6-3,9.8-3.9c3.2-0.9,6.4-1.3,9.6-1.3
				c4.2,0,7.5,0.7,9.8,2.2c2.3,1.4,3.4,3.5,3.4,6.1c0,2.4-0.8,4.3-2.5,5.6c-1.6,1.3-5.2,2.6-10.8,3.8l-3.1,0.7
				c-5.6,1.2-9.6,3-12.1,5.4c-2.5,2.4-3.7,5.8-3.7,10c0,5.1,1.8,9.1,5.5,11.9c3.6,2.8,8.8,4.2,15.5,4.2c3.3,0,6.4-0.2,9.4-0.7
				C1847.9,564.6,1850.6,563.9,1853,562.9z"/>
		</g>
		<g>
			<path id="DejaVuSans-32_8_" d="M1860.9,509.9"/>
		</g>
		<g>
			<path id="DejaVuSans-110_8_" d="M1947.5,542.9v-33h-9v32.7c0,5.2-1,9-3,11.6c-2,2.6-5,3.9-9.1,3.9c-4.9,0-8.7-1.5-11.5-4.6
				c-2.8-3.1-4.2-7.3-4.2-12.6v-30.9h-9v54.7h9V556c2.2,3.3,4.7,5.8,7.6,7.4c2.9,1.6,6.3,2.4,10.1,2.4c6.3,0,11-1.9,14.2-5.8
				C1945.9,556.1,1947.5,550.4,1947.5,542.9z"/>
		</g>
		<g>
			<path id="DejaVuSans-101_5_" d="M2012.2,539.5v-4.4h-41.3c0.4-6.2,2.3-10.9,5.6-14.1s8-4.9,13.9-4.9c3.4,0,6.8,0.4,10,1.3
				s6.5,2.1,9.7,3.8v-8.5c-3.2-1.4-6.5-2.4-9.9-3.1s-6.8-1.1-10.3-1.1c-8.7,0-15.6,2.5-20.7,7.6c-5.1,5.1-7.6,12-7.6,20.6
				c0,8.9,2.4,16,7.2,21.3c4.8,5.3,11.4,7.9,19.6,7.9c7.4,0,13.2-2.4,17.5-7.1C2010.1,554,2012.2,547.6,2012.2,539.5z M2003.2,542.1
				c-0.1,4.9-1.4,8.8-4.1,11.8c-2.7,2.9-6.2,4.4-10.7,4.4c-5,0-9-1.4-12-4.2s-4.7-6.8-5.2-12L2003.2,542.1z"/>
		</g>
		<g>
			<path id="DejaVuSans-116_3_" d="M2035.9,580.1v-15.5h18.5v-7h-18.5v-29.7c0-4.5,0.6-7.3,1.8-8.6s3.7-1.9,7.5-1.9h9.2v-7.5h-9.2
				c-6.9,0-11.7,1.3-14.4,3.9c-2.6,2.6-4,7.3-4,14.1v29.7h-6.6v7h6.6v15.5H2035.9z"/>
		</g>
		<g>
			<path id="DejaVuSans-119_1_" d="M2061,564.5h9l11.2-42.7l11.2,42.7h10.6l11.2-42.7l11.2,42.7h9l-14.3-54.7h-10.6l-11.8,44.8
				l-11.8-44.8h-10.6L2061,564.5z"/>
		</g>
		<g>
			<path id="DejaVuSans-111_8_" d="M2169.2,558.2c-4.8,0-8.6-1.9-11.4-5.6c-2.8-3.8-4.2-8.9-4.2-15.5s1.4-11.7,4.2-15.5
				c2.8-3.8,6.6-5.6,11.5-5.6c4.8,0,8.6,1.9,11.4,5.7c2.8,3.8,4.2,8.9,4.2,15.4c0,6.5-1.4,11.6-4.2,15.4
				C2177.7,556.4,2173.9,558.2,2169.2,558.2z M2169.2,565.9c7.8,0,13.9-2.5,18.4-7.6c4.5-5.1,6.7-12.1,6.7-21.1
				c0-8.9-2.2-16-6.7-21.1c-4.5-5.1-10.6-7.6-18.4-7.6c-7.8,0-14,2.5-18.4,7.6c-4.4,5.1-6.7,12.1-6.7,21.1c0,9,2.2,16,6.7,21.1
				C2155.2,563.3,2161.3,565.9,2169.2,565.9z"/>
		</g>
		<g>
			<path id="DejaVuSans-114_10_" d="M2240.8,556.2c-1,0.6-2.1,1-3.3,1.3c-1.2,0.3-2.5,0.4-3.9,0.4c-5.1,0-9-1.7-11.7-5
				s-4.1-8-4.1-14.2v-28.8h-9v54.7h9V556c1.9,3.3,4.4,5.8,7.4,7.4c3,1.6,6.7,2.4,11,2.4c0.6,0,1.3,0,2-0.1c0.8-0.1,1.6-0.2,2.5-0.4
				L2240.8,556.2z"/>
		</g>
		<g>
			<path id="DejaVuSans-107_3_" d="M2249.9,585.8h9V541l26.8,23.6h11.5l-29-25.6l30.2-29.1h-11.7l-27.8,26.7v-26.7h-9V585.8z"/>
		</g>
		<g>
			<path id="DejaVuSans-32_9_" d="M2298.8,509.9"/>
		</g>
		<g>
			<path id="DejaVuSans-115_2_" d="M2374.8,562.9v-8.5c-2.5,1.3-5.2,2.3-7.9,2.9c-2.7,0.7-5.6,1-8.5,1c-4.5,0-7.8-0.7-10-2
				c-2.2-1.4-3.3-3.4-3.3-6.2c0-2.1,0.8-3.7,2.4-4.9s4.8-2.3,9.6-3.4l3.1-0.7c6.4-1.4,10.9-3.3,13.6-5.8s4-6,4-10.4
				c0-5.1-2-9.1-6-12.1c-4-3-9.5-4.4-16.6-4.4c-2.9,0-6,0.3-9.2,0.9c-3.2,0.6-6.5,1.4-10,2.6v9.3c3.3-1.7,6.6-3,9.8-3.9
				c3.2-0.9,6.4-1.3,9.6-1.3c4.2,0,7.5,0.7,9.8,2.2c2.3,1.4,3.4,3.5,3.4,6.1c0,2.4-0.8,4.3-2.5,5.6c-1.6,1.3-5.2,2.6-10.8,3.8
				l-3.1,0.7c-5.6,1.2-9.6,3-12.1,5.4c-2.5,2.4-3.7,5.8-3.7,10c0,5.1,1.8,9.1,5.5,11.9c3.6,2.8,8.8,4.2,15.5,4.2
				c3.3,0,6.4-0.2,9.4-0.7C2369.6,564.6,2372.4,563.9,2374.8,562.9z"/>
		</g>
		<g>
			<path id="DejaVuSans-105_3_" d="M2392.1,564.5h9v-54.7h-9V564.5z M2392.1,585.8h9v-11.4h-9V585.8z"/>
		</g>
		<g>
			<path id="DejaVuSans-122" d="M2415.9,564.5h42.7v-8.2l-33.8-39.3h33.8v-7.2h-43.9v8.2l33.8,39.3h-32.6V564.5z"/>
		</g>
		<g>
			<path id="DejaVuSans-101_6_" d="M2519.1,539.5v-4.4h-41.3c0.4-6.2,2.3-10.9,5.6-14.1c3.3-3.2,8-4.9,13.9-4.9
				c3.4,0,6.8,0.4,10,1.3c3.2,0.8,6.5,2.1,9.7,3.8v-8.5c-3.2-1.4-6.5-2.4-9.9-3.1c-3.4-0.7-6.8-1.1-10.3-1.1
				c-8.7,0-15.6,2.5-20.7,7.6c-5.1,5.1-7.6,12-7.6,20.6c0,8.9,2.4,16,7.2,21.3c4.8,5.3,11.4,7.9,19.6,7.9c7.4,0,13.2-2.4,17.5-7.1
				C2517,554,2519.1,547.6,2519.1,539.5z M2510.1,542.1c-0.1,4.9-1.4,8.8-4.1,11.8c-2.7,2.9-6.2,4.4-10.7,4.4c-5,0-9-1.4-12-4.2
				c-3-2.8-4.7-6.8-5.2-12L2510.1,542.1z"/>
		</g>
		<g>
			<path id="DejaVuSans-115_3_" d="M2568.7,562.9v-8.5c-2.5,1.3-5.2,2.3-7.9,2.9c-2.7,0.7-5.6,1-8.5,1c-4.5,0-7.8-0.7-10-2
				c-2.2-1.4-3.3-3.4-3.3-6.2c0-2.1,0.8-3.7,2.4-4.9s4.8-2.3,9.6-3.4l3.1-0.7c6.4-1.4,10.9-3.3,13.6-5.8s4-6,4-10.4
				c0-5.1-2-9.1-6-12.1c-4-3-9.5-4.4-16.6-4.4c-2.9,0-6,0.3-9.2,0.9c-3.2,0.6-6.5,1.4-10,2.6v9.3c3.3-1.7,6.6-3,9.8-3.9
				c3.2-0.9,6.4-1.3,9.6-1.3c4.2,0,7.5,0.7,9.8,2.2c2.3,1.4,3.4,3.5,3.4,6.1c0,2.4-0.8,4.3-2.5,5.6c-1.6,1.3-5.2,2.6-10.8,3.8
				l-3.1,0.7c-5.6,1.2-9.6,3-12.1,5.4c-2.5,2.4-3.7,5.8-3.7,10c0,5.1,1.8,9.1,5.5,11.9c3.6,2.8,8.8,4.2,15.5,4.2
				c3.3,0,6.4-0.2,9.4-0.7C2563.5,564.6,2566.2,563.9,2568.7,562.9z"/>
		</g>
	</g>
</g>
<linearGradient id="SVGID_61_" gradientUnits="userSpaceOnUse" x1="738.6667" y1="157.4033" x2="738.6667" y2="346.777">
	<stop  offset="0" style="stop-color:#FF0000"/>
	<stop  offset="0.9988" style="stop-color:#1A00E6"/>
</linearGradient>
<rect x="729.7" y="157.4" class="st33" width="18" height="189.4"/>
<text transform="matrix(1 0 0 1 757 343.9213)" class="st34 st35">50</text>
<text transform="matrix(1 0 0 1 757 167.7784)" class="st34 st35">500</text>
<text transform="matrix(1 0 0 1 728.5 369.5686)"><tspan x="0" y="0" class="st34 st35">Network size </tspan><tspan x="0" y="14.4" class="st34 st35">(sensors)</tspan></text>
</svg>
