<?xml version="1.0" encoding="utf-8" standalone="no"?>
<!DOCTYPE svg PUBLIC "-//W3C//DTD SVG 1.1//EN"
  "http://www.w3.org/Graphics/SVG/1.1/DTD/svg11.dtd">
<!-- Created with matplotlib (https://matplotlib.org/) -->
<svg height="504pt" version="1.1" viewBox="0 0 720 504" width="720pt" xmlns="http://www.w3.org/2000/svg" xmlns:xlink="http://www.w3.org/1999/xlink">
 <defs>
  <style type="text/css">
*{stroke-linecap:butt;stroke-linejoin:round;}
  </style>
 </defs>
 <g id="figure_1">
  <g id="patch_1">
   <path d="M 0 504 
L 720 504 
L 720 0 
L 0 0 
z
" style="fill:#ffffff;"/>
  </g>
  <g id="axes_1">
   <g id="patch_2">
    <path d="M 90 441 
L 648 441 
L 648 60.48 
L 90 60.48 
z
" style="fill:#ffffff;"/>
   </g>
   <g id="PathCollection_1">
    <defs>
     <path d="M 0 3 
C 0.795609 3 1.55874 2.683901 2.12132 2.12132 
C 2.683901 1.55874 3 0.795609 3 0 
C 3 -0.795609 2.683901 -1.55874 2.12132 -2.12132 
C 1.55874 -2.683901 0.795609 -3 0 -3 
C -0.795609 -3 -1.55874 -2.683901 -2.12132 -2.12132 
C -2.683901 -1.55874 -3 -0.795609 -3 0 
C -3 0.795609 -2.683901 1.55874 -2.12132 2.12132 
C -1.55874 2.683901 -0.795609 3 0 3 
z
" id="mc1daf7fcec" style="stroke:#4878cf;"/>
    </defs>
    <g clip-path="url(#p46ff640ab2)">
     <use style="fill:#4878cf;stroke:#4878cf;" x="115.369091" xlink:href="#mc1daf7fcec" y="423.492256"/>
     <use style="fill:#4878cf;stroke:#4878cf;" x="115.369091" xlink:href="#mc1daf7fcec" y="423.506071"/>
     <use style="fill:#4878cf;stroke:#4878cf;" x="115.369091" xlink:href="#mc1daf7fcec" y="423.528248"/>
     <use style="fill:#4878cf;stroke:#4878cf;" x="135.659564" xlink:href="#mc1daf7fcec" y="423.520418"/>
     <use style="fill:#4878cf;stroke:#4878cf;" x="135.659564" xlink:href="#mc1daf7fcec" y="423.513439"/>
     <use style="fill:#4878cf;stroke:#4878cf;" x="135.659564" xlink:href="#mc1daf7fcec" y="423.527626"/>
     <use style="fill:#4878cf;stroke:#4878cf;" x="155.950036" xlink:href="#mc1daf7fcec" y="422.962566"/>
     <use style="fill:#4878cf;stroke:#4878cf;" x="155.950036" xlink:href="#mc1daf7fcec" y="422.145746"/>
     <use style="fill:#4878cf;stroke:#4878cf;" x="155.950036" xlink:href="#mc1daf7fcec" y="422.816384"/>
     <use style="fill:#4878cf;stroke:#4878cf;" x="176.240509" xlink:href="#mc1daf7fcec" y="395.333424"/>
     <use style="fill:#4878cf;stroke:#4878cf;" x="176.240509" xlink:href="#mc1daf7fcec" y="394.61084"/>
     <use style="fill:#4878cf;stroke:#4878cf;" x="176.240509" xlink:href="#mc1daf7fcec" y="399.582193"/>
     <use style="fill:#4878cf;stroke:#4878cf;" x="196.530982" xlink:href="#mc1daf7fcec" y="334.99301"/>
     <use style="fill:#4878cf;stroke:#4878cf;" x="196.530982" xlink:href="#mc1daf7fcec" y="321.732843"/>
     <use style="fill:#4878cf;stroke:#4878cf;" x="196.530982" xlink:href="#mc1daf7fcec" y="312.182327"/>
     <use style="fill:#4878cf;stroke:#4878cf;" x="216.821454" xlink:href="#mc1daf7fcec" y="310.421295"/>
     <use style="fill:#4878cf;stroke:#4878cf;" x="216.821454" xlink:href="#mc1daf7fcec" y="309.119257"/>
     <use style="fill:#4878cf;stroke:#4878cf;" x="216.821454" xlink:href="#mc1daf7fcec" y="337.677286"/>
     <use style="fill:#4878cf;stroke:#4878cf;" x="237.111927" xlink:href="#mc1daf7fcec" y="278.88222"/>
     <use style="fill:#4878cf;stroke:#4878cf;" x="237.111927" xlink:href="#mc1daf7fcec" y="360.992442"/>
     <use style="fill:#4878cf;stroke:#4878cf;" x="237.111927" xlink:href="#mc1daf7fcec" y="234.06236"/>
     <use style="fill:#4878cf;stroke:#4878cf;" x="257.4024" xlink:href="#mc1daf7fcec" y="308.933252"/>
     <use style="fill:#4878cf;stroke:#4878cf;" x="257.4024" xlink:href="#mc1daf7fcec" y="306.924394"/>
     <use style="fill:#4878cf;stroke:#4878cf;" x="257.4024" xlink:href="#mc1daf7fcec" y="271.732173"/>
     <use style="fill:#4878cf;stroke:#4878cf;" x="277.692873" xlink:href="#mc1daf7fcec" y="272.174104"/>
     <use style="fill:#4878cf;stroke:#4878cf;" x="277.692873" xlink:href="#mc1daf7fcec" y="306.761698"/>
     <use style="fill:#4878cf;stroke:#4878cf;" x="277.692873" xlink:href="#mc1daf7fcec" y="289.114872"/>
     <use style="fill:#4878cf;stroke:#4878cf;" x="297.983345" xlink:href="#mc1daf7fcec" y="304.38232"/>
     <use style="fill:#4878cf;stroke:#4878cf;" x="297.983345" xlink:href="#mc1daf7fcec" y="185.413269"/>
     <use style="fill:#4878cf;stroke:#4878cf;" x="297.983345" xlink:href="#mc1daf7fcec" y="277.299934"/>
     <use style="fill:#4878cf;stroke:#4878cf;" x="318.273818" xlink:href="#mc1daf7fcec" y="229.58335"/>
     <use style="fill:#4878cf;stroke:#4878cf;" x="318.273818" xlink:href="#mc1daf7fcec" y="271.744573"/>
     <use style="fill:#4878cf;stroke:#4878cf;" x="318.273818" xlink:href="#mc1daf7fcec" y="304.258316"/>
     <use style="fill:#4878cf;stroke:#4878cf;" x="338.564291" xlink:href="#mc1daf7fcec" y="354.31434"/>
     <use style="fill:#4878cf;stroke:#4878cf;" x="338.564291" xlink:href="#mc1daf7fcec" y="209.501376"/>
     <use style="fill:#4878cf;stroke:#4878cf;" x="338.564291" xlink:href="#mc1daf7fcec" y="303.708133"/>
     <use style="fill:#4878cf;stroke:#4878cf;" x="358.854764" xlink:href="#mc1daf7fcec" y="285.08736"/>
     <use style="fill:#4878cf;stroke:#4878cf;" x="358.854764" xlink:href="#mc1daf7fcec" y="232.038622"/>
     <use style="fill:#4878cf;stroke:#4878cf;" x="358.854764" xlink:href="#mc1daf7fcec" y="261.98549"/>
     <use style="fill:#4878cf;stroke:#4878cf;" x="379.145236" xlink:href="#mc1daf7fcec" y="271.694972"/>
     <use style="fill:#4878cf;stroke:#4878cf;" x="379.145236" xlink:href="#mc1daf7fcec" y="258.972203"/>
     <use style="fill:#4878cf;stroke:#4878cf;" x="379.145236" xlink:href="#mc1daf7fcec" y="334.341589"/>
     <use style="fill:#4878cf;stroke:#4878cf;" x="399.435709" xlink:href="#mc1daf7fcec" y="159.422115"/>
     <use style="fill:#4878cf;stroke:#4878cf;" x="399.435709" xlink:href="#mc1daf7fcec" y="157.785268"/>
     <use style="fill:#4878cf;stroke:#4878cf;" x="399.435709" xlink:href="#mc1daf7fcec" y="191.601049"/>
     <use style="fill:#4878cf;stroke:#4878cf;" x="419.726182" xlink:href="#mc1daf7fcec" y="225.491232"/>
     <use style="fill:#4878cf;stroke:#4878cf;" x="419.726182" xlink:href="#mc1daf7fcec" y="203.691399"/>
     <use style="fill:#4878cf;stroke:#4878cf;" x="419.726182" xlink:href="#mc1daf7fcec" y="285.794181"/>
     <use style="fill:#4878cf;stroke:#4878cf;" x="440.016655" xlink:href="#mc1daf7fcec" y="310.049284"/>
     <use style="fill:#4878cf;stroke:#4878cf;" x="440.016655" xlink:href="#mc1daf7fcec" y="218.609032"/>
     <use style="fill:#4878cf;stroke:#4878cf;" x="440.016655" xlink:href="#mc1daf7fcec" y="314.699419"/>
     <use style="fill:#4878cf;stroke:#4878cf;" x="460.307127" xlink:href="#mc1daf7fcec" y="236.80036"/>
     <use style="fill:#4878cf;stroke:#4878cf;" x="460.307127" xlink:href="#mc1daf7fcec" y="176.757818"/>
     <use style="fill:#4878cf;stroke:#4878cf;" x="460.307127" xlink:href="#mc1daf7fcec" y="146.327335"/>
     <use style="fill:#4878cf;stroke:#4878cf;" x="480.5976" xlink:href="#mc1daf7fcec" y="129.735654"/>
     <use style="fill:#4878cf;stroke:#4878cf;" x="480.5976" xlink:href="#mc1daf7fcec" y="245.803021"/>
     <use style="fill:#4878cf;stroke:#4878cf;" x="500.888073" xlink:href="#mc1daf7fcec" y="130.62848"/>
     <use style="fill:#4878cf;stroke:#4878cf;" x="500.888073" xlink:href="#mc1daf7fcec" y="258.376986"/>
     <use style="fill:#4878cf;stroke:#4878cf;" x="500.888073" xlink:href="#mc1daf7fcec" y="126.16435"/>
     <use style="fill:#4878cf;stroke:#4878cf;" x="521.178546" xlink:href="#mc1daf7fcec" y="171.028852"/>
     <use style="fill:#4878cf;stroke:#4878cf;" x="521.178546" xlink:href="#mc1daf7fcec" y="77.951752"/>
     <use style="fill:#4878cf;stroke:#4878cf;" x="521.178546" xlink:href="#mc1daf7fcec" y="133.455762"/>
     <use style="fill:#4878cf;stroke:#4878cf;" x="541.469018" xlink:href="#mc1daf7fcec" y="230.178568"/>
     <use style="fill:#4878cf;stroke:#4878cf;" x="541.469018" xlink:href="#mc1daf7fcec" y="208.750746"/>
     <use style="fill:#4878cf;stroke:#4878cf;" x="541.469018" xlink:href="#mc1daf7fcec" y="167.53195"/>
     <use style="fill:#4878cf;stroke:#4878cf;" x="561.759491" xlink:href="#mc1daf7fcec" y="251.457585"/>
     <use style="fill:#4878cf;stroke:#4878cf;" x="561.759491" xlink:href="#mc1daf7fcec" y="255.252095"/>
     <use style="fill:#4878cf;stroke:#4878cf;" x="582.049964" xlink:href="#mc1daf7fcec" y="149.377824"/>
     <use style="fill:#4878cf;stroke:#4878cf;" x="582.049964" xlink:href="#mc1daf7fcec" y="203.393791"/>
     <use style="fill:#4878cf;stroke:#4878cf;" x="582.049964" xlink:href="#mc1daf7fcec" y="253.466443"/>
     <use style="fill:#4878cf;stroke:#4878cf;" x="602.340436" xlink:href="#mc1daf7fcec" y="202.128954"/>
     <use style="fill:#4878cf;stroke:#4878cf;" x="602.340436" xlink:href="#mc1daf7fcec" y="234.121882"/>
     <use style="fill:#4878cf;stroke:#4878cf;" x="602.340436" xlink:href="#mc1daf7fcec" y="199.896889"/>
     <use style="fill:#4878cf;stroke:#4878cf;" x="622.630909" xlink:href="#mc1daf7fcec" y="276.828721"/>
     <use style="fill:#4878cf;stroke:#4878cf;" x="622.630909" xlink:href="#mc1daf7fcec" y="155.329996"/>
     <use style="fill:#4878cf;stroke:#4878cf;" x="622.630909" xlink:href="#mc1daf7fcec" y="209.643572"/>
    </g>
   </g>
   <g id="matplotlib.axis_1">
    <g id="xtick_1">
     <g id="line2d_1">
      <defs>
       <path d="M 0 0 
L 0 3.5 
" id="m78b7bf9142" style="stroke:#000000;stroke-width:0.8;"/>
      </defs>
      <g>
       <use style="stroke:#000000;stroke-width:0.8;" x="114.354567" xlink:href="#m78b7bf9142" y="441"/>
      </g>
     </g>
     <g id="text_1">
      <!-- 0 -->
      <defs>
       <path d="M 31.78125 66.40625 
Q 24.171875 66.40625 20.328125 58.90625 
Q 16.5 51.421875 16.5 36.375 
Q 16.5 21.390625 20.328125 13.890625 
Q 24.171875 6.390625 31.78125 6.390625 
Q 39.453125 6.390625 43.28125 13.890625 
Q 47.125 21.390625 47.125 36.375 
Q 47.125 51.421875 43.28125 58.90625 
Q 39.453125 66.40625 31.78125 66.40625 
z
M 31.78125 74.21875 
Q 44.046875 74.21875 50.515625 64.515625 
Q 56.984375 54.828125 56.984375 36.375 
Q 56.984375 17.96875 50.515625 8.265625 
Q 44.046875 -1.421875 31.78125 -1.421875 
Q 19.53125 -1.421875 13.0625 8.265625 
Q 6.59375 17.96875 6.59375 36.375 
Q 6.59375 54.828125 13.0625 64.515625 
Q 19.53125 74.21875 31.78125 74.21875 
z
" id="DejaVuSans-48"/>
      </defs>
      <g transform="translate(111.173317 455.598437)scale(0.1 -0.1)">
       <use xlink:href="#DejaVuSans-48"/>
      </g>
     </g>
    </g>
    <g id="xtick_2">
     <g id="line2d_2">
      <g>
       <use style="stroke:#000000;stroke-width:0.8;" x="215.806931" xlink:href="#m78b7bf9142" y="441"/>
      </g>
     </g>
     <g id="text_2">
      <!-- 100 -->
      <defs>
       <path d="M 12.40625 8.296875 
L 28.515625 8.296875 
L 28.515625 63.921875 
L 10.984375 60.40625 
L 10.984375 69.390625 
L 28.421875 72.90625 
L 38.28125 72.90625 
L 38.28125 8.296875 
L 54.390625 8.296875 
L 54.390625 0 
L 12.40625 0 
z
" id="DejaVuSans-49"/>
      </defs>
      <g transform="translate(206.263181 455.598437)scale(0.1 -0.1)">
       <use xlink:href="#DejaVuSans-49"/>
       <use x="63.623047" xlink:href="#DejaVuSans-48"/>
       <use x="127.246094" xlink:href="#DejaVuSans-48"/>
      </g>
     </g>
    </g>
    <g id="xtick_3">
     <g id="line2d_3">
      <g>
       <use style="stroke:#000000;stroke-width:0.8;" x="317.259295" xlink:href="#m78b7bf9142" y="441"/>
      </g>
     </g>
     <g id="text_3">
      <!-- 200 -->
      <defs>
       <path d="M 19.1875 8.296875 
L 53.609375 8.296875 
L 53.609375 0 
L 7.328125 0 
L 7.328125 8.296875 
Q 12.9375 14.109375 22.625 23.890625 
Q 32.328125 33.6875 34.8125 36.53125 
Q 39.546875 41.84375 41.421875 45.53125 
Q 43.3125 49.21875 43.3125 52.78125 
Q 43.3125 58.59375 39.234375 62.25 
Q 35.15625 65.921875 28.609375 65.921875 
Q 23.96875 65.921875 18.8125 64.3125 
Q 13.671875 62.703125 7.8125 59.421875 
L 7.8125 69.390625 
Q 13.765625 71.78125 18.9375 73 
Q 24.125 74.21875 28.421875 74.21875 
Q 39.75 74.21875 46.484375 68.546875 
Q 53.21875 62.890625 53.21875 53.421875 
Q 53.21875 48.921875 51.53125 44.890625 
Q 49.859375 40.875 45.40625 35.40625 
Q 44.1875 33.984375 37.640625 27.21875 
Q 31.109375 20.453125 19.1875 8.296875 
z
" id="DejaVuSans-50"/>
      </defs>
      <g transform="translate(307.715545 455.598437)scale(0.1 -0.1)">
       <use xlink:href="#DejaVuSans-50"/>
       <use x="63.623047" xlink:href="#DejaVuSans-48"/>
       <use x="127.246094" xlink:href="#DejaVuSans-48"/>
      </g>
     </g>
    </g>
    <g id="xtick_4">
     <g id="line2d_4">
      <g>
       <use style="stroke:#000000;stroke-width:0.8;" x="418.711658" xlink:href="#m78b7bf9142" y="441"/>
      </g>
     </g>
     <g id="text_4">
      <!-- 300 -->
      <defs>
       <path d="M 40.578125 39.3125 
Q 47.65625 37.796875 51.625 33 
Q 55.609375 28.21875 55.609375 21.1875 
Q 55.609375 10.40625 48.1875 4.484375 
Q 40.765625 -1.421875 27.09375 -1.421875 
Q 22.515625 -1.421875 17.65625 -0.515625 
Q 12.796875 0.390625 7.625 2.203125 
L 7.625 11.71875 
Q 11.71875 9.328125 16.59375 8.109375 
Q 21.484375 6.890625 26.8125 6.890625 
Q 36.078125 6.890625 40.9375 10.546875 
Q 45.796875 14.203125 45.796875 21.1875 
Q 45.796875 27.640625 41.28125 31.265625 
Q 36.765625 34.90625 28.71875 34.90625 
L 20.21875 34.90625 
L 20.21875 43.015625 
L 29.109375 43.015625 
Q 36.375 43.015625 40.234375 45.921875 
Q 44.09375 48.828125 44.09375 54.296875 
Q 44.09375 59.90625 40.109375 62.90625 
Q 36.140625 65.921875 28.71875 65.921875 
Q 24.65625 65.921875 20.015625 65.03125 
Q 15.375 64.15625 9.8125 62.3125 
L 9.8125 71.09375 
Q 15.4375 72.65625 20.34375 73.4375 
Q 25.25 74.21875 29.59375 74.21875 
Q 40.828125 74.21875 47.359375 69.109375 
Q 53.90625 64.015625 53.90625 55.328125 
Q 53.90625 49.265625 50.4375 45.09375 
Q 46.96875 40.921875 40.578125 39.3125 
z
" id="DejaVuSans-51"/>
      </defs>
      <g transform="translate(409.167908 455.598437)scale(0.1 -0.1)">
       <use xlink:href="#DejaVuSans-51"/>
       <use x="63.623047" xlink:href="#DejaVuSans-48"/>
       <use x="127.246094" xlink:href="#DejaVuSans-48"/>
      </g>
     </g>
    </g>
    <g id="xtick_5">
     <g id="line2d_5">
      <g>
       <use style="stroke:#000000;stroke-width:0.8;" x="520.164022" xlink:href="#m78b7bf9142" y="441"/>
      </g>
     </g>
     <g id="text_5">
      <!-- 400 -->
      <defs>
       <path d="M 37.796875 64.3125 
L 12.890625 25.390625 
L 37.796875 25.390625 
z
M 35.203125 72.90625 
L 47.609375 72.90625 
L 47.609375 25.390625 
L 58.015625 25.390625 
L 58.015625 17.1875 
L 47.609375 17.1875 
L 47.609375 0 
L 37.796875 0 
L 37.796875 17.1875 
L 4.890625 17.1875 
L 4.890625 26.703125 
z
" id="DejaVuSans-52"/>
      </defs>
      <g transform="translate(510.620272 455.598437)scale(0.1 -0.1)">
       <use xlink:href="#DejaVuSans-52"/>
       <use x="63.623047" xlink:href="#DejaVuSans-48"/>
       <use x="127.246094" xlink:href="#DejaVuSans-48"/>
      </g>
     </g>
    </g>
    <g id="xtick_6">
     <g id="line2d_6">
      <g>
       <use style="stroke:#000000;stroke-width:0.8;" x="621.616386" xlink:href="#m78b7bf9142" y="441"/>
      </g>
     </g>
     <g id="text_6">
      <!-- 500 -->
      <defs>
       <path d="M 10.796875 72.90625 
L 49.515625 72.90625 
L 49.515625 64.59375 
L 19.828125 64.59375 
L 19.828125 46.734375 
Q 21.96875 47.46875 24.109375 47.828125 
Q 26.265625 48.1875 28.421875 48.1875 
Q 40.625 48.1875 47.75 41.5 
Q 54.890625 34.8125 54.890625 23.390625 
Q 54.890625 11.625 47.5625 5.09375 
Q 40.234375 -1.421875 26.90625 -1.421875 
Q 22.3125 -1.421875 17.546875 -0.640625 
Q 12.796875 0.140625 7.71875 1.703125 
L 7.71875 11.625 
Q 12.109375 9.234375 16.796875 8.0625 
Q 21.484375 6.890625 26.703125 6.890625 
Q 35.15625 6.890625 40.078125 11.328125 
Q 45.015625 15.765625 45.015625 23.390625 
Q 45.015625 31 40.078125 35.4375 
Q 35.15625 39.890625 26.703125 39.890625 
Q 22.75 39.890625 18.8125 39.015625 
Q 14.890625 38.140625 10.796875 36.28125 
z
" id="DejaVuSans-53"/>
      </defs>
      <g transform="translate(612.072636 455.598437)scale(0.1 -0.1)">
       <use xlink:href="#DejaVuSans-53"/>
       <use x="63.623047" xlink:href="#DejaVuSans-48"/>
       <use x="127.246094" xlink:href="#DejaVuSans-48"/>
      </g>
     </g>
    </g>
    <g id="text_7">
     <!-- Number of bytes recorded upon empirical observation -->
     <defs>
      <path d="M 9.8125 72.90625 
L 23.09375 72.90625 
L 55.421875 11.921875 
L 55.421875 72.90625 
L 64.984375 72.90625 
L 64.984375 0 
L 51.703125 0 
L 19.390625 60.984375 
L 19.390625 0 
L 9.8125 0 
z
" id="DejaVuSans-78"/>
      <path d="M 8.5 21.578125 
L 8.5 54.6875 
L 17.484375 54.6875 
L 17.484375 21.921875 
Q 17.484375 14.15625 20.5 10.265625 
Q 23.53125 6.390625 29.59375 6.390625 
Q 36.859375 6.390625 41.078125 11.03125 
Q 45.3125 15.671875 45.3125 23.6875 
L 45.3125 54.6875 
L 54.296875 54.6875 
L 54.296875 0 
L 45.3125 0 
L 45.3125 8.40625 
Q 42.046875 3.421875 37.71875 1 
Q 33.40625 -1.421875 27.6875 -1.421875 
Q 18.265625 -1.421875 13.375 4.4375 
Q 8.5 10.296875 8.5 21.578125 
z
M 31.109375 56 
z
" id="DejaVuSans-117"/>
      <path d="M 52 44.1875 
Q 55.375 50.25 60.0625 53.125 
Q 64.75 56 71.09375 56 
Q 79.640625 56 84.28125 50.015625 
Q 88.921875 44.046875 88.921875 33.015625 
L 88.921875 0 
L 79.890625 0 
L 79.890625 32.71875 
Q 79.890625 40.578125 77.09375 44.375 
Q 74.3125 48.1875 68.609375 48.1875 
Q 61.625 48.1875 57.5625 43.546875 
Q 53.515625 38.921875 53.515625 30.90625 
L 53.515625 0 
L 44.484375 0 
L 44.484375 32.71875 
Q 44.484375 40.625 41.703125 44.40625 
Q 38.921875 48.1875 33.109375 48.1875 
Q 26.21875 48.1875 22.15625 43.53125 
Q 18.109375 38.875 18.109375 30.90625 
L 18.109375 0 
L 9.078125 0 
L 9.078125 54.6875 
L 18.109375 54.6875 
L 18.109375 46.1875 
Q 21.1875 51.21875 25.484375 53.609375 
Q 29.78125 56 35.6875 56 
Q 41.65625 56 45.828125 52.96875 
Q 50 49.953125 52 44.1875 
z
" id="DejaVuSans-109"/>
      <path d="M 48.6875 27.296875 
Q 48.6875 37.203125 44.609375 42.84375 
Q 40.53125 48.484375 33.40625 48.484375 
Q 26.265625 48.484375 22.1875 42.84375 
Q 18.109375 37.203125 18.109375 27.296875 
Q 18.109375 17.390625 22.1875 11.75 
Q 26.265625 6.109375 33.40625 6.109375 
Q 40.53125 6.109375 44.609375 11.75 
Q 48.6875 17.390625 48.6875 27.296875 
z
M 18.109375 46.390625 
Q 20.953125 51.265625 25.265625 53.625 
Q 29.59375 56 35.59375 56 
Q 45.5625 56 51.78125 48.09375 
Q 58.015625 40.1875 58.015625 27.296875 
Q 58.015625 14.40625 51.78125 6.484375 
Q 45.5625 -1.421875 35.59375 -1.421875 
Q 29.59375 -1.421875 25.265625 0.953125 
Q 20.953125 3.328125 18.109375 8.203125 
L 18.109375 0 
L 9.078125 0 
L 9.078125 75.984375 
L 18.109375 75.984375 
z
" id="DejaVuSans-98"/>
      <path d="M 56.203125 29.59375 
L 56.203125 25.203125 
L 14.890625 25.203125 
Q 15.484375 15.921875 20.484375 11.0625 
Q 25.484375 6.203125 34.421875 6.203125 
Q 39.59375 6.203125 44.453125 7.46875 
Q 49.3125 8.734375 54.109375 11.28125 
L 54.109375 2.78125 
Q 49.265625 0.734375 44.1875 -0.34375 
Q 39.109375 -1.421875 33.890625 -1.421875 
Q 20.796875 -1.421875 13.15625 6.1875 
Q 5.515625 13.8125 5.515625 26.8125 
Q 5.515625 40.234375 12.765625 48.109375 
Q 20.015625 56 32.328125 56 
Q 43.359375 56 49.78125 48.890625 
Q 56.203125 41.796875 56.203125 29.59375 
z
M 47.21875 32.234375 
Q 47.125 39.59375 43.09375 43.984375 
Q 39.0625 48.390625 32.421875 48.390625 
Q 24.90625 48.390625 20.390625 44.140625 
Q 15.875 39.890625 15.1875 32.171875 
z
" id="DejaVuSans-101"/>
      <path d="M 41.109375 46.296875 
Q 39.59375 47.171875 37.8125 47.578125 
Q 36.03125 48 33.890625 48 
Q 26.265625 48 22.1875 43.046875 
Q 18.109375 38.09375 18.109375 28.8125 
L 18.109375 0 
L 9.078125 0 
L 9.078125 54.6875 
L 18.109375 54.6875 
L 18.109375 46.1875 
Q 20.953125 51.171875 25.484375 53.578125 
Q 30.03125 56 36.53125 56 
Q 37.453125 56 38.578125 55.875 
Q 39.703125 55.765625 41.0625 55.515625 
z
" id="DejaVuSans-114"/>
      <path id="DejaVuSans-32"/>
      <path d="M 30.609375 48.390625 
Q 23.390625 48.390625 19.1875 42.75 
Q 14.984375 37.109375 14.984375 27.296875 
Q 14.984375 17.484375 19.15625 11.84375 
Q 23.34375 6.203125 30.609375 6.203125 
Q 37.796875 6.203125 41.984375 11.859375 
Q 46.1875 17.53125 46.1875 27.296875 
Q 46.1875 37.015625 41.984375 42.703125 
Q 37.796875 48.390625 30.609375 48.390625 
z
M 30.609375 56 
Q 42.328125 56 49.015625 48.375 
Q 55.71875 40.765625 55.71875 27.296875 
Q 55.71875 13.875 49.015625 6.21875 
Q 42.328125 -1.421875 30.609375 -1.421875 
Q 18.84375 -1.421875 12.171875 6.21875 
Q 5.515625 13.875 5.515625 27.296875 
Q 5.515625 40.765625 12.171875 48.375 
Q 18.84375 56 30.609375 56 
z
" id="DejaVuSans-111"/>
      <path d="M 37.109375 75.984375 
L 37.109375 68.5 
L 28.515625 68.5 
Q 23.6875 68.5 21.796875 66.546875 
Q 19.921875 64.59375 19.921875 59.515625 
L 19.921875 54.6875 
L 34.71875 54.6875 
L 34.71875 47.703125 
L 19.921875 47.703125 
L 19.921875 0 
L 10.890625 0 
L 10.890625 47.703125 
L 2.296875 47.703125 
L 2.296875 54.6875 
L 10.890625 54.6875 
L 10.890625 58.5 
Q 10.890625 67.625 15.140625 71.796875 
Q 19.390625 75.984375 28.609375 75.984375 
z
" id="DejaVuSans-102"/>
      <path d="M 32.171875 -5.078125 
Q 28.375 -14.84375 24.75 -17.8125 
Q 21.140625 -20.796875 15.09375 -20.796875 
L 7.90625 -20.796875 
L 7.90625 -13.28125 
L 13.1875 -13.28125 
Q 16.890625 -13.28125 18.9375 -11.515625 
Q 21 -9.765625 23.484375 -3.21875 
L 25.09375 0.875 
L 2.984375 54.6875 
L 12.5 54.6875 
L 29.59375 11.921875 
L 46.6875 54.6875 
L 56.203125 54.6875 
z
" id="DejaVuSans-121"/>
      <path d="M 18.3125 70.21875 
L 18.3125 54.6875 
L 36.8125 54.6875 
L 36.8125 47.703125 
L 18.3125 47.703125 
L 18.3125 18.015625 
Q 18.3125 11.328125 20.140625 9.421875 
Q 21.96875 7.515625 27.59375 7.515625 
L 36.8125 7.515625 
L 36.8125 0 
L 27.59375 0 
Q 17.1875 0 13.234375 3.875 
Q 9.28125 7.765625 9.28125 18.015625 
L 9.28125 47.703125 
L 2.6875 47.703125 
L 2.6875 54.6875 
L 9.28125 54.6875 
L 9.28125 70.21875 
z
" id="DejaVuSans-116"/>
      <path d="M 44.28125 53.078125 
L 44.28125 44.578125 
Q 40.484375 46.53125 36.375 47.5 
Q 32.28125 48.484375 27.875 48.484375 
Q 21.1875 48.484375 17.84375 46.4375 
Q 14.5 44.390625 14.5 40.28125 
Q 14.5 37.15625 16.890625 35.375 
Q 19.28125 33.59375 26.515625 31.984375 
L 29.59375 31.296875 
Q 39.15625 29.25 43.1875 25.515625 
Q 47.21875 21.78125 47.21875 15.09375 
Q 47.21875 7.46875 41.1875 3.015625 
Q 35.15625 -1.421875 24.609375 -1.421875 
Q 20.21875 -1.421875 15.453125 -0.5625 
Q 10.6875 0.296875 5.421875 2 
L 5.421875 11.28125 
Q 10.40625 8.6875 15.234375 7.390625 
Q 20.0625 6.109375 24.8125 6.109375 
Q 31.15625 6.109375 34.5625 8.28125 
Q 37.984375 10.453125 37.984375 14.40625 
Q 37.984375 18.0625 35.515625 20.015625 
Q 33.0625 21.96875 24.703125 23.78125 
L 21.578125 24.515625 
Q 13.234375 26.265625 9.515625 29.90625 
Q 5.8125 33.546875 5.8125 39.890625 
Q 5.8125 47.609375 11.28125 51.796875 
Q 16.75 56 26.8125 56 
Q 31.78125 56 36.171875 55.265625 
Q 40.578125 54.546875 44.28125 53.078125 
z
" id="DejaVuSans-115"/>
      <path d="M 48.78125 52.59375 
L 48.78125 44.1875 
Q 44.96875 46.296875 41.140625 47.34375 
Q 37.3125 48.390625 33.40625 48.390625 
Q 24.65625 48.390625 19.8125 42.84375 
Q 14.984375 37.3125 14.984375 27.296875 
Q 14.984375 17.28125 19.8125 11.734375 
Q 24.65625 6.203125 33.40625 6.203125 
Q 37.3125 6.203125 41.140625 7.25 
Q 44.96875 8.296875 48.78125 10.40625 
L 48.78125 2.09375 
Q 45.015625 0.34375 40.984375 -0.53125 
Q 36.96875 -1.421875 32.421875 -1.421875 
Q 20.0625 -1.421875 12.78125 6.34375 
Q 5.515625 14.109375 5.515625 27.296875 
Q 5.515625 40.671875 12.859375 48.328125 
Q 20.21875 56 33.015625 56 
Q 37.15625 56 41.109375 55.140625 
Q 45.0625 54.296875 48.78125 52.59375 
z
" id="DejaVuSans-99"/>
      <path d="M 45.40625 46.390625 
L 45.40625 75.984375 
L 54.390625 75.984375 
L 54.390625 0 
L 45.40625 0 
L 45.40625 8.203125 
Q 42.578125 3.328125 38.25 0.953125 
Q 33.9375 -1.421875 27.875 -1.421875 
Q 17.96875 -1.421875 11.734375 6.484375 
Q 5.515625 14.40625 5.515625 27.296875 
Q 5.515625 40.1875 11.734375 48.09375 
Q 17.96875 56 27.875 56 
Q 33.9375 56 38.25 53.625 
Q 42.578125 51.265625 45.40625 46.390625 
z
M 14.796875 27.296875 
Q 14.796875 17.390625 18.875 11.75 
Q 22.953125 6.109375 30.078125 6.109375 
Q 37.203125 6.109375 41.296875 11.75 
Q 45.40625 17.390625 45.40625 27.296875 
Q 45.40625 37.203125 41.296875 42.84375 
Q 37.203125 48.484375 30.078125 48.484375 
Q 22.953125 48.484375 18.875 42.84375 
Q 14.796875 37.203125 14.796875 27.296875 
z
" id="DejaVuSans-100"/>
      <path d="M 18.109375 8.203125 
L 18.109375 -20.796875 
L 9.078125 -20.796875 
L 9.078125 54.6875 
L 18.109375 54.6875 
L 18.109375 46.390625 
Q 20.953125 51.265625 25.265625 53.625 
Q 29.59375 56 35.59375 56 
Q 45.5625 56 51.78125 48.09375 
Q 58.015625 40.1875 58.015625 27.296875 
Q 58.015625 14.40625 51.78125 6.484375 
Q 45.5625 -1.421875 35.59375 -1.421875 
Q 29.59375 -1.421875 25.265625 0.953125 
Q 20.953125 3.328125 18.109375 8.203125 
z
M 48.6875 27.296875 
Q 48.6875 37.203125 44.609375 42.84375 
Q 40.53125 48.484375 33.40625 48.484375 
Q 26.265625 48.484375 22.1875 42.84375 
Q 18.109375 37.203125 18.109375 27.296875 
Q 18.109375 17.390625 22.1875 11.75 
Q 26.265625 6.109375 33.40625 6.109375 
Q 40.53125 6.109375 44.609375 11.75 
Q 48.6875 17.390625 48.6875 27.296875 
z
" id="DejaVuSans-112"/>
      <path d="M 54.890625 33.015625 
L 54.890625 0 
L 45.90625 0 
L 45.90625 32.71875 
Q 45.90625 40.484375 42.875 44.328125 
Q 39.84375 48.1875 33.796875 48.1875 
Q 26.515625 48.1875 22.3125 43.546875 
Q 18.109375 38.921875 18.109375 30.90625 
L 18.109375 0 
L 9.078125 0 
L 9.078125 54.6875 
L 18.109375 54.6875 
L 18.109375 46.1875 
Q 21.34375 51.125 25.703125 53.5625 
Q 30.078125 56 35.796875 56 
Q 45.21875 56 50.046875 50.171875 
Q 54.890625 44.34375 54.890625 33.015625 
z
" id="DejaVuSans-110"/>
      <path d="M 9.421875 54.6875 
L 18.40625 54.6875 
L 18.40625 0 
L 9.421875 0 
z
M 9.421875 75.984375 
L 18.40625 75.984375 
L 18.40625 64.59375 
L 9.421875 64.59375 
z
" id="DejaVuSans-105"/>
      <path d="M 34.28125 27.484375 
Q 23.390625 27.484375 19.1875 25 
Q 14.984375 22.515625 14.984375 16.5 
Q 14.984375 11.71875 18.140625 8.90625 
Q 21.296875 6.109375 26.703125 6.109375 
Q 34.1875 6.109375 38.703125 11.40625 
Q 43.21875 16.703125 43.21875 25.484375 
L 43.21875 27.484375 
z
M 52.203125 31.203125 
L 52.203125 0 
L 43.21875 0 
L 43.21875 8.296875 
Q 40.140625 3.328125 35.546875 0.953125 
Q 30.953125 -1.421875 24.3125 -1.421875 
Q 15.921875 -1.421875 10.953125 3.296875 
Q 6 8.015625 6 15.921875 
Q 6 25.140625 12.171875 29.828125 
Q 18.359375 34.515625 30.609375 34.515625 
L 43.21875 34.515625 
L 43.21875 35.40625 
Q 43.21875 41.609375 39.140625 45 
Q 35.0625 48.390625 27.6875 48.390625 
Q 23 48.390625 18.546875 47.265625 
Q 14.109375 46.140625 10.015625 43.890625 
L 10.015625 52.203125 
Q 14.9375 54.109375 19.578125 55.046875 
Q 24.21875 56 28.609375 56 
Q 40.484375 56 46.34375 49.84375 
Q 52.203125 43.703125 52.203125 31.203125 
z
" id="DejaVuSans-97"/>
      <path d="M 9.421875 75.984375 
L 18.40625 75.984375 
L 18.40625 0 
L 9.421875 0 
z
" id="DejaVuSans-108"/>
      <path d="M 2.984375 54.6875 
L 12.5 54.6875 
L 29.59375 8.796875 
L 46.6875 54.6875 
L 56.203125 54.6875 
L 35.6875 0 
L 23.484375 0 
z
" id="DejaVuSans-118"/>
     </defs>
     <g transform="translate(233.067187 469.276563)scale(0.1 -0.1)">
      <use xlink:href="#DejaVuSans-78"/>
      <use x="74.804688" xlink:href="#DejaVuSans-117"/>
      <use x="138.183594" xlink:href="#DejaVuSans-109"/>
      <use x="235.595703" xlink:href="#DejaVuSans-98"/>
      <use x="299.072266" xlink:href="#DejaVuSans-101"/>
      <use x="360.595703" xlink:href="#DejaVuSans-114"/>
      <use x="401.708984" xlink:href="#DejaVuSans-32"/>
      <use x="433.496094" xlink:href="#DejaVuSans-111"/>
      <use x="494.677734" xlink:href="#DejaVuSans-102"/>
      <use x="529.882812" xlink:href="#DejaVuSans-32"/>
      <use x="561.669922" xlink:href="#DejaVuSans-98"/>
      <use x="625.146484" xlink:href="#DejaVuSans-121"/>
      <use x="684.326172" xlink:href="#DejaVuSans-116"/>
      <use x="723.535156" xlink:href="#DejaVuSans-101"/>
      <use x="785.058594" xlink:href="#DejaVuSans-115"/>
      <use x="837.158203" xlink:href="#DejaVuSans-32"/>
      <use x="868.945312" xlink:href="#DejaVuSans-114"/>
      <use x="910.027344" xlink:href="#DejaVuSans-101"/>
      <use x="971.550781" xlink:href="#DejaVuSans-99"/>
      <use x="1026.53125" xlink:href="#DejaVuSans-111"/>
      <use x="1087.712891" xlink:href="#DejaVuSans-114"/>
      <use x="1128.810547" xlink:href="#DejaVuSans-100"/>
      <use x="1192.287109" xlink:href="#DejaVuSans-101"/>
      <use x="1253.810547" xlink:href="#DejaVuSans-100"/>
      <use x="1317.287109" xlink:href="#DejaVuSans-32"/>
      <use x="1349.074219" xlink:href="#DejaVuSans-117"/>
      <use x="1412.453125" xlink:href="#DejaVuSans-112"/>
      <use x="1475.929688" xlink:href="#DejaVuSans-111"/>
      <use x="1537.111328" xlink:href="#DejaVuSans-110"/>
      <use x="1600.490234" xlink:href="#DejaVuSans-32"/>
      <use x="1632.277344" xlink:href="#DejaVuSans-101"/>
      <use x="1693.800781" xlink:href="#DejaVuSans-109"/>
      <use x="1791.212891" xlink:href="#DejaVuSans-112"/>
      <use x="1854.689453" xlink:href="#DejaVuSans-105"/>
      <use x="1882.472656" xlink:href="#DejaVuSans-114"/>
      <use x="1923.585938" xlink:href="#DejaVuSans-105"/>
      <use x="1951.369141" xlink:href="#DejaVuSans-99"/>
      <use x="2006.349609" xlink:href="#DejaVuSans-97"/>
      <use x="2067.628906" xlink:href="#DejaVuSans-108"/>
      <use x="2095.412109" xlink:href="#DejaVuSans-32"/>
      <use x="2127.199219" xlink:href="#DejaVuSans-111"/>
      <use x="2188.380859" xlink:href="#DejaVuSans-98"/>
      <use x="2251.857422" xlink:href="#DejaVuSans-115"/>
      <use x="2303.957031" xlink:href="#DejaVuSans-101"/>
      <use x="2365.480469" xlink:href="#DejaVuSans-114"/>
      <use x="2406.59375" xlink:href="#DejaVuSans-118"/>
      <use x="2465.773438" xlink:href="#DejaVuSans-97"/>
      <use x="2527.052734" xlink:href="#DejaVuSans-116"/>
      <use x="2566.261719" xlink:href="#DejaVuSans-105"/>
      <use x="2594.044922" xlink:href="#DejaVuSans-111"/>
      <use x="2655.226562" xlink:href="#DejaVuSans-110"/>
     </g>
    </g>
   </g>
   <g id="matplotlib.axis_2">
    <g id="ytick_1">
     <g id="line2d_7">
      <defs>
       <path d="M 0 0 
L -3.5 0 
" id="m6d8ebb5df1" style="stroke:#000000;stroke-width:0.8;"/>
      </defs>
      <g>
       <use style="stroke:#000000;stroke-width:0.8;" x="90" xlink:href="#m6d8ebb5df1" y="401.303531"/>
      </g>
     </g>
     <g id="text_8">
      <!-- 2 -->
      <g transform="translate(76.6375 405.10275)scale(0.1 -0.1)">
       <use xlink:href="#DejaVuSans-50"/>
      </g>
     </g>
    </g>
    <g id="ytick_2">
     <g id="line2d_8">
      <g>
       <use style="stroke:#000000;stroke-width:0.8;" x="90" xlink:href="#m6d8ebb5df1" y="356.811041"/>
      </g>
     </g>
     <g id="text_9">
      <!-- 4 -->
      <g transform="translate(76.6375 360.61026)scale(0.1 -0.1)">
       <use xlink:href="#DejaVuSans-52"/>
      </g>
     </g>
    </g>
    <g id="ytick_3">
     <g id="line2d_9">
      <g>
       <use style="stroke:#000000;stroke-width:0.8;" x="90" xlink:href="#m6d8ebb5df1" y="312.31855"/>
      </g>
     </g>
     <g id="text_10">
      <!-- 6 -->
      <defs>
       <path d="M 33.015625 40.375 
Q 26.375 40.375 22.484375 35.828125 
Q 18.609375 31.296875 18.609375 23.390625 
Q 18.609375 15.53125 22.484375 10.953125 
Q 26.375 6.390625 33.015625 6.390625 
Q 39.65625 6.390625 43.53125 10.953125 
Q 47.40625 15.53125 47.40625 23.390625 
Q 47.40625 31.296875 43.53125 35.828125 
Q 39.65625 40.375 33.015625 40.375 
z
M 52.59375 71.296875 
L 52.59375 62.3125 
Q 48.875 64.0625 45.09375 64.984375 
Q 41.3125 65.921875 37.59375 65.921875 
Q 27.828125 65.921875 22.671875 59.328125 
Q 17.53125 52.734375 16.796875 39.40625 
Q 19.671875 43.65625 24.015625 45.921875 
Q 28.375 48.1875 33.59375 48.1875 
Q 44.578125 48.1875 50.953125 41.515625 
Q 57.328125 34.859375 57.328125 23.390625 
Q 57.328125 12.15625 50.6875 5.359375 
Q 44.046875 -1.421875 33.015625 -1.421875 
Q 20.359375 -1.421875 13.671875 8.265625 
Q 6.984375 17.96875 6.984375 36.375 
Q 6.984375 53.65625 15.1875 63.9375 
Q 23.390625 74.21875 37.203125 74.21875 
Q 40.921875 74.21875 44.703125 73.484375 
Q 48.484375 72.75 52.59375 71.296875 
z
" id="DejaVuSans-54"/>
      </defs>
      <g transform="translate(76.6375 316.117769)scale(0.1 -0.1)">
       <use xlink:href="#DejaVuSans-54"/>
      </g>
     </g>
    </g>
    <g id="ytick_4">
     <g id="line2d_10">
      <g>
       <use style="stroke:#000000;stroke-width:0.8;" x="90" xlink:href="#m6d8ebb5df1" y="267.82606"/>
      </g>
     </g>
     <g id="text_11">
      <!-- 8 -->
      <defs>
       <path d="M 31.78125 34.625 
Q 24.75 34.625 20.71875 30.859375 
Q 16.703125 27.09375 16.703125 20.515625 
Q 16.703125 13.921875 20.71875 10.15625 
Q 24.75 6.390625 31.78125 6.390625 
Q 38.8125 6.390625 42.859375 10.171875 
Q 46.921875 13.96875 46.921875 20.515625 
Q 46.921875 27.09375 42.890625 30.859375 
Q 38.875 34.625 31.78125 34.625 
z
M 21.921875 38.8125 
Q 15.578125 40.375 12.03125 44.71875 
Q 8.5 49.078125 8.5 55.328125 
Q 8.5 64.0625 14.71875 69.140625 
Q 20.953125 74.21875 31.78125 74.21875 
Q 42.671875 74.21875 48.875 69.140625 
Q 55.078125 64.0625 55.078125 55.328125 
Q 55.078125 49.078125 51.53125 44.71875 
Q 48 40.375 41.703125 38.8125 
Q 48.828125 37.15625 52.796875 32.3125 
Q 56.78125 27.484375 56.78125 20.515625 
Q 56.78125 9.90625 50.3125 4.234375 
Q 43.84375 -1.421875 31.78125 -1.421875 
Q 19.734375 -1.421875 13.25 4.234375 
Q 6.78125 9.90625 6.78125 20.515625 
Q 6.78125 27.484375 10.78125 32.3125 
Q 14.796875 37.15625 21.921875 38.8125 
z
M 18.3125 54.390625 
Q 18.3125 48.734375 21.84375 45.5625 
Q 25.390625 42.390625 31.78125 42.390625 
Q 38.140625 42.390625 41.71875 45.5625 
Q 45.3125 48.734375 45.3125 54.390625 
Q 45.3125 60.0625 41.71875 63.234375 
Q 38.140625 66.40625 31.78125 66.40625 
Q 25.390625 66.40625 21.84375 63.234375 
Q 18.3125 60.0625 18.3125 54.390625 
z
" id="DejaVuSans-56"/>
      </defs>
      <g transform="translate(76.6375 271.625278)scale(0.1 -0.1)">
       <use xlink:href="#DejaVuSans-56"/>
      </g>
     </g>
    </g>
    <g id="ytick_5">
     <g id="line2d_11">
      <g>
       <use style="stroke:#000000;stroke-width:0.8;" x="90" xlink:href="#m6d8ebb5df1" y="223.333569"/>
      </g>
     </g>
     <g id="text_12">
      <!-- 10 -->
      <g transform="translate(70.275 227.132788)scale(0.1 -0.1)">
       <use xlink:href="#DejaVuSans-49"/>
       <use x="63.623047" xlink:href="#DejaVuSans-48"/>
      </g>
     </g>
    </g>
    <g id="ytick_6">
     <g id="line2d_12">
      <g>
       <use style="stroke:#000000;stroke-width:0.8;" x="90" xlink:href="#m6d8ebb5df1" y="178.841078"/>
      </g>
     </g>
     <g id="text_13">
      <!-- 12 -->
      <g transform="translate(70.275 182.640297)scale(0.1 -0.1)">
       <use xlink:href="#DejaVuSans-49"/>
       <use x="63.623047" xlink:href="#DejaVuSans-50"/>
      </g>
     </g>
    </g>
    <g id="ytick_7">
     <g id="line2d_13">
      <g>
       <use style="stroke:#000000;stroke-width:0.8;" x="90" xlink:href="#m6d8ebb5df1" y="134.348588"/>
      </g>
     </g>
     <g id="text_14">
      <!-- 14 -->
      <g transform="translate(70.275 138.147807)scale(0.1 -0.1)">
       <use xlink:href="#DejaVuSans-49"/>
       <use x="63.623047" xlink:href="#DejaVuSans-52"/>
      </g>
     </g>
    </g>
    <g id="ytick_8">
     <g id="line2d_14">
      <g>
       <use style="stroke:#000000;stroke-width:0.8;" x="90" xlink:href="#m6d8ebb5df1" y="89.856097"/>
      </g>
     </g>
     <g id="text_15">
      <!-- 16 -->
      <g transform="translate(70.275 93.655316)scale(0.1 -0.1)">
       <use xlink:href="#DejaVuSans-49"/>
       <use x="63.623047" xlink:href="#DejaVuSans-54"/>
      </g>
     </g>
    </g>
    <g id="text_16">
     <!-- Number of blocks for  -->
     <defs>
      <path d="M 9.078125 75.984375 
L 18.109375 75.984375 
L 18.109375 31.109375 
L 44.921875 54.6875 
L 56.390625 54.6875 
L 27.390625 29.109375 
L 57.625 0 
L 45.90625 0 
L 18.109375 26.703125 
L 18.109375 0 
L 9.078125 0 
z
" id="DejaVuSans-107"/>
     </defs>
     <g transform="translate(52.9975 304.748594)rotate(-90)scale(0.1 -0.1)">
      <use xlink:href="#DejaVuSans-78"/>
      <use x="74.804688" xlink:href="#DejaVuSans-117"/>
      <use x="138.183594" xlink:href="#DejaVuSans-109"/>
      <use x="235.595703" xlink:href="#DejaVuSans-98"/>
      <use x="299.072266" xlink:href="#DejaVuSans-101"/>
      <use x="360.595703" xlink:href="#DejaVuSans-114"/>
      <use x="401.708984" xlink:href="#DejaVuSans-32"/>
      <use x="433.496094" xlink:href="#DejaVuSans-111"/>
      <use x="494.677734" xlink:href="#DejaVuSans-102"/>
      <use x="529.882812" xlink:href="#DejaVuSans-32"/>
      <use x="561.669922" xlink:href="#DejaVuSans-98"/>
      <use x="625.146484" xlink:href="#DejaVuSans-108"/>
      <use x="652.929688" xlink:href="#DejaVuSans-111"/>
      <use x="714.111328" xlink:href="#DejaVuSans-99"/>
      <use x="769.091797" xlink:href="#DejaVuSans-107"/>
      <use x="827.001953" xlink:href="#DejaVuSans-115"/>
      <use x="879.101562" xlink:href="#DejaVuSans-32"/>
      <use x="910.888672" xlink:href="#DejaVuSans-102"/>
      <use x="946.09375" xlink:href="#DejaVuSans-111"/>
      <use x="1007.275391" xlink:href="#DejaVuSans-114"/>
      <use x="1048.388672" xlink:href="#DejaVuSans-32"/>
     </g>
     <!-- transaction to be mined -->
     <g transform="translate(64.195312 310.700156)rotate(-90)scale(0.1 -0.1)">
      <use xlink:href="#DejaVuSans-116"/>
      <use x="39.208984" xlink:href="#DejaVuSans-114"/>
      <use x="80.322266" xlink:href="#DejaVuSans-97"/>
      <use x="141.601562" xlink:href="#DejaVuSans-110"/>
      <use x="204.980469" xlink:href="#DejaVuSans-115"/>
      <use x="257.080078" xlink:href="#DejaVuSans-97"/>
      <use x="318.359375" xlink:href="#DejaVuSans-99"/>
      <use x="373.339844" xlink:href="#DejaVuSans-116"/>
      <use x="412.548828" xlink:href="#DejaVuSans-105"/>
      <use x="440.332031" xlink:href="#DejaVuSans-111"/>
      <use x="501.513672" xlink:href="#DejaVuSans-110"/>
      <use x="564.892578" xlink:href="#DejaVuSans-32"/>
      <use x="596.679688" xlink:href="#DejaVuSans-116"/>
      <use x="635.888672" xlink:href="#DejaVuSans-111"/>
      <use x="697.070312" xlink:href="#DejaVuSans-32"/>
      <use x="728.857422" xlink:href="#DejaVuSans-98"/>
      <use x="792.333984" xlink:href="#DejaVuSans-101"/>
      <use x="853.857422" xlink:href="#DejaVuSans-32"/>
      <use x="885.644531" xlink:href="#DejaVuSans-109"/>
      <use x="983.056641" xlink:href="#DejaVuSans-105"/>
      <use x="1010.839844" xlink:href="#DejaVuSans-110"/>
      <use x="1074.21875" xlink:href="#DejaVuSans-101"/>
      <use x="1135.742188" xlink:href="#DejaVuSans-100"/>
     </g>
    </g>
   </g>
   <g id="line2d_15">
    <path clip-path="url(#p46ff640ab2)" d="M 115.369091 382.496866 
L 622.630909 154.324116 
" style="fill:none;stroke:#ff0000;stroke-dasharray:5.55,2.4;stroke-dashoffset:0;stroke-width:1.5;"/>
   </g>
   <g id="patch_3">
    <path d="M 90 441 
L 90 60.48 
" style="fill:none;stroke:#000000;stroke-linecap:square;stroke-linejoin:miter;stroke-width:0.8;"/>
   </g>
   <g id="patch_4">
    <path d="M 648 441 
L 648 60.48 
" style="fill:none;stroke:#000000;stroke-linecap:square;stroke-linejoin:miter;stroke-width:0.8;"/>
   </g>
   <g id="patch_5">
    <path d="M 90 441 
L 648 441 
" style="fill:none;stroke:#000000;stroke-linecap:square;stroke-linejoin:miter;stroke-width:0.8;"/>
   </g>
   <g id="patch_6">
    <path d="M 90 60.48 
L 648 60.48 
" style="fill:none;stroke:#000000;stroke-linecap:square;stroke-linejoin:miter;stroke-width:0.8;"/>
   </g>
   <g id="text_17">
    <!-- y = 0.02051x + 2.82487 -->
    <defs>
     <path d="M 10.59375 45.40625 
L 73.1875 45.40625 
L 73.1875 37.203125 
L 10.59375 37.203125 
z
M 10.59375 25.484375 
L 73.1875 25.484375 
L 73.1875 17.1875 
L 10.59375 17.1875 
z
" id="DejaVuSans-61"/>
     <path d="M 10.6875 12.40625 
L 21 12.40625 
L 21 0 
L 10.6875 0 
z
" id="DejaVuSans-46"/>
     <path d="M 54.890625 54.6875 
L 35.109375 28.078125 
L 55.90625 0 
L 45.3125 0 
L 29.390625 21.484375 
L 13.484375 0 
L 2.875 0 
L 24.125 28.609375 
L 4.6875 54.6875 
L 15.28125 54.6875 
L 29.78125 35.203125 
L 44.28125 54.6875 
z
" id="DejaVuSans-120"/>
     <path d="M 46 62.703125 
L 46 35.5 
L 73.1875 35.5 
L 73.1875 27.203125 
L 46 27.203125 
L 46 0 
L 37.796875 0 
L 37.796875 27.203125 
L 10.59375 27.203125 
L 10.59375 35.5 
L 37.796875 35.5 
L 37.796875 62.703125 
z
" id="DejaVuSans-43"/>
     <path d="M 8.203125 72.90625 
L 55.078125 72.90625 
L 55.078125 68.703125 
L 28.609375 0 
L 18.3125 0 
L 43.21875 64.59375 
L 8.203125 64.59375 
z
" id="DejaVuSans-55"/>
    </defs>
    <g transform="translate(109.281949 134.348588)scale(0.1 -0.1)">
     <use xlink:href="#DejaVuSans-121"/>
     <use x="59.179688" xlink:href="#DejaVuSans-32"/>
     <use x="90.966797" xlink:href="#DejaVuSans-61"/>
     <use x="174.755859" xlink:href="#DejaVuSans-32"/>
     <use x="206.542969" xlink:href="#DejaVuSans-48"/>
     <use x="270.166016" xlink:href="#DejaVuSans-46"/>
     <use x="301.953125" xlink:href="#DejaVuSans-48"/>
     <use x="365.576172" xlink:href="#DejaVuSans-50"/>
     <use x="429.199219" xlink:href="#DejaVuSans-48"/>
     <use x="492.822266" xlink:href="#DejaVuSans-53"/>
     <use x="556.445312" xlink:href="#DejaVuSans-49"/>
     <use x="620.068359" xlink:href="#DejaVuSans-120"/>
     <use x="679.248047" xlink:href="#DejaVuSans-32"/>
     <use x="711.035156" xlink:href="#DejaVuSans-43"/>
     <use x="794.824219" xlink:href="#DejaVuSans-32"/>
     <use x="826.611328" xlink:href="#DejaVuSans-50"/>
     <use x="890.234375" xlink:href="#DejaVuSans-46"/>
     <use x="922.021484" xlink:href="#DejaVuSans-56"/>
     <use x="985.644531" xlink:href="#DejaVuSans-50"/>
     <use x="1049.267578" xlink:href="#DejaVuSans-52"/>
     <use x="1112.890625" xlink:href="#DejaVuSans-56"/>
     <use x="1176.513672" xlink:href="#DejaVuSans-55"/>
    </g>
   </g>
   <g id="text_18">
    <!-- p &lt; 0.05 -->
    <defs>
     <path d="M 73.1875 49.21875 
L 22.796875 31.296875 
L 73.1875 13.484375 
L 73.1875 4.59375 
L 10.59375 27.296875 
L 10.59375 35.40625 
L 73.1875 58.109375 
z
" id="DejaVuSans-60"/>
    </defs>
    <g transform="translate(109.281949 156.594833)scale(0.1 -0.1)">
     <use xlink:href="#DejaVuSans-112"/>
     <use x="63.476562" xlink:href="#DejaVuSans-32"/>
     <use x="95.263672" xlink:href="#DejaVuSans-60"/>
     <use x="179.052734" xlink:href="#DejaVuSans-32"/>
     <use x="210.839844" xlink:href="#DejaVuSans-48"/>
     <use x="274.462891" xlink:href="#DejaVuSans-46"/>
     <use x="306.25" xlink:href="#DejaVuSans-48"/>
     <use x="369.873047" xlink:href="#DejaVuSans-53"/>
    </g>
   </g>
   <g id="text_19">
    <!-- $R^2$ = 0.61541 -->
    <defs>
     <path d="M 25.203125 64.796875 
L 20.21875 38.921875 
L 32.90625 38.921875 
Q 40.375 38.921875 44.984375 43.046875 
Q 49.609375 47.171875 49.609375 53.8125 
Q 49.609375 59.125 46.5 61.953125 
Q 43.40625 64.796875 37.59375 64.796875 
z
M 43.3125 35.015625 
Q 46.4375 34.28125 48.515625 31.390625 
Q 50.59375 28.515625 53.328125 19.921875 
L 59.515625 0 
L 49.125 0 
L 43.40625 18.703125 
Q 41.21875 25.921875 38.328125 28.359375 
Q 35.453125 30.8125 29.5 30.8125 
L 18.609375 30.8125 
L 12.59375 0 
L 2.6875 0 
L 16.890625 72.90625 
L 39.109375 72.90625 
Q 49.21875 72.90625 54.609375 68.328125 
Q 60.015625 63.765625 60.015625 55.171875 
Q 60.015625 47.5625 55.421875 41.984375 
Q 50.828125 36.421875 43.3125 35.015625 
z
" id="DejaVuSans-Oblique-82"/>
    </defs>
    <g transform="translate(109.281949 178.841078)scale(0.1 -0.1)">
     <use transform="translate(0 0.765625)" xlink:href="#DejaVuSans-Oblique-82"/>
     <use transform="translate(76.499193 39.046875)scale(0.7)" xlink:href="#DejaVuSans-50"/>
     <use transform="translate(123.769701 0.765625)" xlink:href="#DejaVuSans-32"/>
     <use transform="translate(155.55681 0.765625)" xlink:href="#DejaVuSans-61"/>
     <use transform="translate(239.345872 0.765625)" xlink:href="#DejaVuSans-32"/>
     <use transform="translate(271.132982 0.765625)" xlink:href="#DejaVuSans-48"/>
     <use transform="translate(334.756029 0.765625)" xlink:href="#DejaVuSans-46"/>
     <use transform="translate(366.543138 0.765625)" xlink:href="#DejaVuSans-54"/>
     <use transform="translate(430.166185 0.765625)" xlink:href="#DejaVuSans-49"/>
     <use transform="translate(493.789232 0.765625)" xlink:href="#DejaVuSans-53"/>
     <use transform="translate(557.412279 0.765625)" xlink:href="#DejaVuSans-52"/>
     <use transform="translate(621.035326 0.765625)" xlink:href="#DejaVuSans-49"/>
    </g>
   </g>
   <g id="text_20">
    <!-- Sensor data capture volumes (bytes per recording) against  -->
    <defs>
     <path d="M 53.515625 70.515625 
L 53.515625 60.890625 
Q 47.90625 63.578125 42.921875 64.890625 
Q 37.9375 66.21875 33.296875 66.21875 
Q 25.25 66.21875 20.875 63.09375 
Q 16.5 59.96875 16.5 54.203125 
Q 16.5 49.359375 19.40625 46.890625 
Q 22.3125 44.4375 30.421875 42.921875 
L 36.375 41.703125 
Q 47.40625 39.59375 52.65625 34.296875 
Q 57.90625 29 57.90625 20.125 
Q 57.90625 9.515625 50.796875 4.046875 
Q 43.703125 -1.421875 29.984375 -1.421875 
Q 24.8125 -1.421875 18.96875 -0.25 
Q 13.140625 0.921875 6.890625 3.21875 
L 6.890625 13.375 
Q 12.890625 10.015625 18.65625 8.296875 
Q 24.421875 6.59375 29.984375 6.59375 
Q 38.421875 6.59375 43.015625 9.90625 
Q 47.609375 13.234375 47.609375 19.390625 
Q 47.609375 24.75 44.3125 27.78125 
Q 41.015625 30.8125 33.5 32.328125 
L 27.484375 33.5 
Q 16.453125 35.6875 11.515625 40.375 
Q 6.59375 45.0625 6.59375 53.421875 
Q 6.59375 63.09375 13.40625 68.65625 
Q 20.21875 74.21875 32.171875 74.21875 
Q 37.3125 74.21875 42.625 73.28125 
Q 47.953125 72.359375 53.515625 70.515625 
z
" id="DejaVuSans-83"/>
     <path d="M 31 75.875 
Q 24.46875 64.65625 21.28125 53.65625 
Q 18.109375 42.671875 18.109375 31.390625 
Q 18.109375 20.125 21.3125 9.0625 
Q 24.515625 -2 31 -13.1875 
L 23.1875 -13.1875 
Q 15.875 -1.703125 12.234375 9.375 
Q 8.59375 20.453125 8.59375 31.390625 
Q 8.59375 42.28125 12.203125 53.3125 
Q 15.828125 64.359375 23.1875 75.875 
z
" id="DejaVuSans-40"/>
     <path d="M 45.40625 27.984375 
Q 45.40625 37.75 41.375 43.109375 
Q 37.359375 48.484375 30.078125 48.484375 
Q 22.859375 48.484375 18.828125 43.109375 
Q 14.796875 37.75 14.796875 27.984375 
Q 14.796875 18.265625 18.828125 12.890625 
Q 22.859375 7.515625 30.078125 7.515625 
Q 37.359375 7.515625 41.375 12.890625 
Q 45.40625 18.265625 45.40625 27.984375 
z
M 54.390625 6.78125 
Q 54.390625 -7.171875 48.1875 -13.984375 
Q 42 -20.796875 29.203125 -20.796875 
Q 24.46875 -20.796875 20.265625 -20.09375 
Q 16.0625 -19.390625 12.109375 -17.921875 
L 12.109375 -9.1875 
Q 16.0625 -11.328125 19.921875 -12.34375 
Q 23.78125 -13.375 27.78125 -13.375 
Q 36.625 -13.375 41.015625 -8.765625 
Q 45.40625 -4.15625 45.40625 5.171875 
L 45.40625 9.625 
Q 42.625 4.78125 38.28125 2.390625 
Q 33.9375 0 27.875 0 
Q 17.828125 0 11.671875 7.65625 
Q 5.515625 15.328125 5.515625 27.984375 
Q 5.515625 40.671875 11.671875 48.328125 
Q 17.828125 56 27.875 56 
Q 33.9375 56 38.28125 53.609375 
Q 42.625 51.21875 45.40625 46.390625 
L 45.40625 54.6875 
L 54.390625 54.6875 
z
" id="DejaVuSans-103"/>
     <path d="M 8.015625 75.875 
L 15.828125 75.875 
Q 23.140625 64.359375 26.78125 53.3125 
Q 30.421875 42.28125 30.421875 31.390625 
Q 30.421875 20.453125 26.78125 9.375 
Q 23.140625 -1.703125 15.828125 -13.1875 
L 8.015625 -13.1875 
Q 14.5 -2 17.703125 9.0625 
Q 20.90625 20.125 20.90625 31.390625 
Q 20.90625 42.671875 17.703125 53.65625 
Q 14.5 64.65625 8.015625 75.875 
z
" id="DejaVuSans-41"/>
    </defs>
    <g transform="translate(189.24375 41.042625)scale(0.12 -0.12)">
     <use xlink:href="#DejaVuSans-83"/>
     <use x="63.476562" xlink:href="#DejaVuSans-101"/>
     <use x="125" xlink:href="#DejaVuSans-110"/>
     <use x="188.378906" xlink:href="#DejaVuSans-115"/>
     <use x="240.478516" xlink:href="#DejaVuSans-111"/>
     <use x="301.660156" xlink:href="#DejaVuSans-114"/>
     <use x="342.773438" xlink:href="#DejaVuSans-32"/>
     <use x="374.560547" xlink:href="#DejaVuSans-100"/>
     <use x="438.037109" xlink:href="#DejaVuSans-97"/>
     <use x="499.316406" xlink:href="#DejaVuSans-116"/>
     <use x="538.525391" xlink:href="#DejaVuSans-97"/>
     <use x="599.804688" xlink:href="#DejaVuSans-32"/>
     <use x="631.591797" xlink:href="#DejaVuSans-99"/>
     <use x="686.572266" xlink:href="#DejaVuSans-97"/>
     <use x="747.851562" xlink:href="#DejaVuSans-112"/>
     <use x="811.328125" xlink:href="#DejaVuSans-116"/>
     <use x="850.537109" xlink:href="#DejaVuSans-117"/>
     <use x="913.916016" xlink:href="#DejaVuSans-114"/>
     <use x="954.998047" xlink:href="#DejaVuSans-101"/>
     <use x="1016.521484" xlink:href="#DejaVuSans-32"/>
     <use x="1048.308594" xlink:href="#DejaVuSans-118"/>
     <use x="1107.488281" xlink:href="#DejaVuSans-111"/>
     <use x="1168.669922" xlink:href="#DejaVuSans-108"/>
     <use x="1196.453125" xlink:href="#DejaVuSans-117"/>
     <use x="1259.832031" xlink:href="#DejaVuSans-109"/>
     <use x="1357.244141" xlink:href="#DejaVuSans-101"/>
     <use x="1418.767578" xlink:href="#DejaVuSans-115"/>
     <use x="1470.867188" xlink:href="#DejaVuSans-32"/>
     <use x="1502.654297" xlink:href="#DejaVuSans-40"/>
     <use x="1541.667969" xlink:href="#DejaVuSans-98"/>
     <use x="1605.144531" xlink:href="#DejaVuSans-121"/>
     <use x="1664.324219" xlink:href="#DejaVuSans-116"/>
     <use x="1703.533203" xlink:href="#DejaVuSans-101"/>
     <use x="1765.056641" xlink:href="#DejaVuSans-115"/>
     <use x="1817.15625" xlink:href="#DejaVuSans-32"/>
     <use x="1848.943359" xlink:href="#DejaVuSans-112"/>
     <use x="1912.419922" xlink:href="#DejaVuSans-101"/>
     <use x="1973.943359" xlink:href="#DejaVuSans-114"/>
     <use x="2015.056641" xlink:href="#DejaVuSans-32"/>
     <use x="2046.84375" xlink:href="#DejaVuSans-114"/>
     <use x="2087.925781" xlink:href="#DejaVuSans-101"/>
     <use x="2149.449219" xlink:href="#DejaVuSans-99"/>
     <use x="2204.429688" xlink:href="#DejaVuSans-111"/>
     <use x="2265.611328" xlink:href="#DejaVuSans-114"/>
     <use x="2306.708984" xlink:href="#DejaVuSans-100"/>
     <use x="2370.185547" xlink:href="#DejaVuSans-105"/>
     <use x="2397.96875" xlink:href="#DejaVuSans-110"/>
     <use x="2461.347656" xlink:href="#DejaVuSans-103"/>
     <use x="2524.824219" xlink:href="#DejaVuSans-41"/>
     <use x="2563.837891" xlink:href="#DejaVuSans-32"/>
     <use x="2595.625" xlink:href="#DejaVuSans-97"/>
     <use x="2656.904297" xlink:href="#DejaVuSans-103"/>
     <use x="2720.380859" xlink:href="#DejaVuSans-97"/>
     <use x="2781.660156" xlink:href="#DejaVuSans-105"/>
     <use x="2809.443359" xlink:href="#DejaVuSans-110"/>
     <use x="2872.822266" xlink:href="#DejaVuSans-115"/>
     <use x="2924.921875" xlink:href="#DejaVuSans-116"/>
     <use x="2964.130859" xlink:href="#DejaVuSans-32"/>
    </g>
    <!-- transaction mean mining time (blocks) -->
    <g transform="translate(252.58875 54.48)scale(0.12 -0.12)">
     <use xlink:href="#DejaVuSans-116"/>
     <use x="39.208984" xlink:href="#DejaVuSans-114"/>
     <use x="80.322266" xlink:href="#DejaVuSans-97"/>
     <use x="141.601562" xlink:href="#DejaVuSans-110"/>
     <use x="204.980469" xlink:href="#DejaVuSans-115"/>
     <use x="257.080078" xlink:href="#DejaVuSans-97"/>
     <use x="318.359375" xlink:href="#DejaVuSans-99"/>
     <use x="373.339844" xlink:href="#DejaVuSans-116"/>
     <use x="412.548828" xlink:href="#DejaVuSans-105"/>
     <use x="440.332031" xlink:href="#DejaVuSans-111"/>
     <use x="501.513672" xlink:href="#DejaVuSans-110"/>
     <use x="564.892578" xlink:href="#DejaVuSans-32"/>
     <use x="596.679688" xlink:href="#DejaVuSans-109"/>
     <use x="694.091797" xlink:href="#DejaVuSans-101"/>
     <use x="755.615234" xlink:href="#DejaVuSans-97"/>
     <use x="816.894531" xlink:href="#DejaVuSans-110"/>
     <use x="880.273438" xlink:href="#DejaVuSans-32"/>
     <use x="912.060547" xlink:href="#DejaVuSans-109"/>
     <use x="1009.472656" xlink:href="#DejaVuSans-105"/>
     <use x="1037.255859" xlink:href="#DejaVuSans-110"/>
     <use x="1100.634766" xlink:href="#DejaVuSans-105"/>
     <use x="1128.417969" xlink:href="#DejaVuSans-110"/>
     <use x="1191.796875" xlink:href="#DejaVuSans-103"/>
     <use x="1255.273438" xlink:href="#DejaVuSans-32"/>
     <use x="1287.060547" xlink:href="#DejaVuSans-116"/>
     <use x="1326.269531" xlink:href="#DejaVuSans-105"/>
     <use x="1354.052734" xlink:href="#DejaVuSans-109"/>
     <use x="1451.464844" xlink:href="#DejaVuSans-101"/>
     <use x="1512.988281" xlink:href="#DejaVuSans-32"/>
     <use x="1544.775391" xlink:href="#DejaVuSans-40"/>
     <use x="1583.789062" xlink:href="#DejaVuSans-98"/>
     <use x="1647.265625" xlink:href="#DejaVuSans-108"/>
     <use x="1675.048828" xlink:href="#DejaVuSans-111"/>
     <use x="1736.230469" xlink:href="#DejaVuSans-99"/>
     <use x="1791.210938" xlink:href="#DejaVuSans-107"/>
     <use x="1849.121094" xlink:href="#DejaVuSans-115"/>
     <use x="1901.220703" xlink:href="#DejaVuSans-41"/>
    </g>
   </g>
   <g id="legend_1">
    <g id="patch_7">
     <path d="M 106.716875 113.05705 
L 328.52 113.05705 
Q 330.52 113.05705 330.52 111.05705 
L 330.52 82.7008 
Q 330.52 80.7008 328.52 80.7008 
L 106.716875 80.7008 
Q 104.716875 80.7008 104.716875 82.7008 
L 104.716875 111.05705 
Q 104.716875 113.05705 106.716875 113.05705 
z
" style="fill:#ffffff;opacity:0.8;stroke:#cccccc;stroke-linejoin:miter;"/>
    </g>
    <g id="line2d_16">
     <path d="M 108.716875 88.799238 
L 128.716875 88.799238 
" style="fill:none;stroke:#ff0000;stroke-dasharray:5.55,2.4;stroke-dashoffset:0;stroke-width:1.5;"/>
    </g>
    <g id="line2d_17"/>
    <g id="text_21">
     <!-- Line of best fit (OLS linear regression) -->
     <defs>
      <path d="M 9.8125 72.90625 
L 19.671875 72.90625 
L 19.671875 8.296875 
L 55.171875 8.296875 
L 55.171875 0 
L 9.8125 0 
z
" id="DejaVuSans-76"/>
      <path d="M 39.40625 66.21875 
Q 28.65625 66.21875 22.328125 58.203125 
Q 16.015625 50.203125 16.015625 36.375 
Q 16.015625 22.609375 22.328125 14.59375 
Q 28.65625 6.59375 39.40625 6.59375 
Q 50.140625 6.59375 56.421875 14.59375 
Q 62.703125 22.609375 62.703125 36.375 
Q 62.703125 50.203125 56.421875 58.203125 
Q 50.140625 66.21875 39.40625 66.21875 
z
M 39.40625 74.21875 
Q 54.734375 74.21875 63.90625 63.9375 
Q 73.09375 53.65625 73.09375 36.375 
Q 73.09375 19.140625 63.90625 8.859375 
Q 54.734375 -1.421875 39.40625 -1.421875 
Q 24.03125 -1.421875 14.8125 8.828125 
Q 5.609375 19.09375 5.609375 36.375 
Q 5.609375 53.65625 14.8125 63.9375 
Q 24.03125 74.21875 39.40625 74.21875 
z
" id="DejaVuSans-79"/>
     </defs>
     <g transform="translate(136.716875 92.299238)scale(0.1 -0.1)">
      <use xlink:href="#DejaVuSans-76"/>
      <use x="55.712891" xlink:href="#DejaVuSans-105"/>
      <use x="83.496094" xlink:href="#DejaVuSans-110"/>
      <use x="146.875" xlink:href="#DejaVuSans-101"/>
      <use x="208.398438" xlink:href="#DejaVuSans-32"/>
      <use x="240.185547" xlink:href="#DejaVuSans-111"/>
      <use x="301.367188" xlink:href="#DejaVuSans-102"/>
      <use x="336.572266" xlink:href="#DejaVuSans-32"/>
      <use x="368.359375" xlink:href="#DejaVuSans-98"/>
      <use x="431.835938" xlink:href="#DejaVuSans-101"/>
      <use x="493.359375" xlink:href="#DejaVuSans-115"/>
      <use x="545.458984" xlink:href="#DejaVuSans-116"/>
      <use x="584.667969" xlink:href="#DejaVuSans-32"/>
      <use x="616.455078" xlink:href="#DejaVuSans-102"/>
      <use x="651.660156" xlink:href="#DejaVuSans-105"/>
      <use x="679.443359" xlink:href="#DejaVuSans-116"/>
      <use x="718.652344" xlink:href="#DejaVuSans-32"/>
      <use x="750.439453" xlink:href="#DejaVuSans-40"/>
      <use x="789.453125" xlink:href="#DejaVuSans-79"/>
      <use x="868.164062" xlink:href="#DejaVuSans-76"/>
      <use x="923.876953" xlink:href="#DejaVuSans-83"/>
      <use x="987.353516" xlink:href="#DejaVuSans-32"/>
      <use x="1019.140625" xlink:href="#DejaVuSans-108"/>
      <use x="1046.923828" xlink:href="#DejaVuSans-105"/>
      <use x="1074.707031" xlink:href="#DejaVuSans-110"/>
      <use x="1138.085938" xlink:href="#DejaVuSans-101"/>
      <use x="1199.609375" xlink:href="#DejaVuSans-97"/>
      <use x="1260.888672" xlink:href="#DejaVuSans-114"/>
      <use x="1302.001953" xlink:href="#DejaVuSans-32"/>
      <use x="1333.789062" xlink:href="#DejaVuSans-114"/>
      <use x="1374.871094" xlink:href="#DejaVuSans-101"/>
      <use x="1436.394531" xlink:href="#DejaVuSans-103"/>
      <use x="1499.871094" xlink:href="#DejaVuSans-114"/>
      <use x="1540.953125" xlink:href="#DejaVuSans-101"/>
      <use x="1602.476562" xlink:href="#DejaVuSans-115"/>
      <use x="1654.576172" xlink:href="#DejaVuSans-115"/>
      <use x="1706.675781" xlink:href="#DejaVuSans-105"/>
      <use x="1734.458984" xlink:href="#DejaVuSans-111"/>
      <use x="1795.640625" xlink:href="#DejaVuSans-110"/>
      <use x="1859.019531" xlink:href="#DejaVuSans-41"/>
     </g>
    </g>
    <g id="PathCollection_2">
     <g>
      <use style="fill:#4878cf;stroke:#4878cf;" x="118.716875" xlink:href="#mc1daf7fcec" y="104.352363"/>
     </g>
    </g>
    <g id="text_22">
     <!-- Model run -->
     <defs>
      <path d="M 9.8125 72.90625 
L 24.515625 72.90625 
L 43.109375 23.296875 
L 61.8125 72.90625 
L 76.515625 72.90625 
L 76.515625 0 
L 66.890625 0 
L 66.890625 64.015625 
L 48.09375 14.015625 
L 38.1875 14.015625 
L 19.390625 64.015625 
L 19.390625 0 
L 9.8125 0 
z
" id="DejaVuSans-77"/>
     </defs>
     <g transform="translate(136.716875 106.977363)scale(0.1 -0.1)">
      <use xlink:href="#DejaVuSans-77"/>
      <use x="86.279297" xlink:href="#DejaVuSans-111"/>
      <use x="147.460938" xlink:href="#DejaVuSans-100"/>
      <use x="210.9375" xlink:href="#DejaVuSans-101"/>
      <use x="272.460938" xlink:href="#DejaVuSans-108"/>
      <use x="300.244141" xlink:href="#DejaVuSans-32"/>
      <use x="332.03125" xlink:href="#DejaVuSans-114"/>
      <use x="373.144531" xlink:href="#DejaVuSans-117"/>
      <use x="436.523438" xlink:href="#DejaVuSans-110"/>
     </g>
    </g>
   </g>
  </g>
 </g>
 <defs>
  <clipPath id="p46ff640ab2">
   <rect height="380.52" width="558" x="90" y="60.48"/>
  </clipPath>
 </defs>
</svg>
