<?xml version="1.0" encoding="utf-8" standalone="no"?>
<!DOCTYPE svg PUBLIC "-//W3C//DTD SVG 1.1//EN"
  "http://www.w3.org/Graphics/SVG/1.1/DTD/svg11.dtd">
<!-- Created with matplotlib (https://matplotlib.org/) -->
<svg height="288pt" version="1.1" viewBox="0 0 720 288" width="720pt" xmlns="http://www.w3.org/2000/svg" xmlns:xlink="http://www.w3.org/1999/xlink">
 <defs>
  <style type="text/css">
*{stroke-linecap:butt;stroke-linejoin:round;}
  </style>
 </defs>
 <g id="figure_1">
  <g id="patch_1">
   <path d="M 0 288 
L 720 288 
L 720 0 
L 0 0 
z
" style="fill:#ffffff;"/>
  </g>
  <g id="axes_1">
   <g id="patch_2">
    <path d="M 90 252 
L 648 252 
L 648 34.56 
L 90 34.56 
z
" style="fill:#ffffff;"/>
   </g>
   <g id="matplotlib.axis_1">
    <g id="xtick_1">
     <g id="line2d_1">
      <defs>
       <path d="M 0 0 
L 0 3.5 
" id="md9fa5d42b5" style="stroke:#000000;stroke-width:0.8;"/>
      </defs>
      <g>
       <use style="stroke:#000000;stroke-width:0.8;" x="105.430544" xlink:href="#md9fa5d42b5" y="252"/>
      </g>
     </g>
     <g id="text_1">
      <!-- Jul 2015 -->
      <defs>
       <path d="M 9.8125 72.90625 
L 19.671875 72.90625 
L 19.671875 5.078125 
Q 19.671875 -8.109375 14.671875 -14.0625 
Q 9.671875 -20.015625 -1.421875 -20.015625 
L -5.171875 -20.015625 
L -5.171875 -11.71875 
L -2.09375 -11.71875 
Q 4.4375 -11.71875 7.125 -8.046875 
Q 9.8125 -4.390625 9.8125 5.078125 
z
" id="DejaVuSans-74"/>
       <path d="M 8.5 21.578125 
L 8.5 54.6875 
L 17.484375 54.6875 
L 17.484375 21.921875 
Q 17.484375 14.15625 20.5 10.265625 
Q 23.53125 6.390625 29.59375 6.390625 
Q 36.859375 6.390625 41.078125 11.03125 
Q 45.3125 15.671875 45.3125 23.6875 
L 45.3125 54.6875 
L 54.296875 54.6875 
L 54.296875 0 
L 45.3125 0 
L 45.3125 8.40625 
Q 42.046875 3.421875 37.71875 1 
Q 33.40625 -1.421875 27.6875 -1.421875 
Q 18.265625 -1.421875 13.375 4.4375 
Q 8.5 10.296875 8.5 21.578125 
z
M 31.109375 56 
z
" id="DejaVuSans-117"/>
       <path d="M 9.421875 75.984375 
L 18.40625 75.984375 
L 18.40625 0 
L 9.421875 0 
z
" id="DejaVuSans-108"/>
       <path id="DejaVuSans-32"/>
       <path d="M 19.1875 8.296875 
L 53.609375 8.296875 
L 53.609375 0 
L 7.328125 0 
L 7.328125 8.296875 
Q 12.9375 14.109375 22.625 23.890625 
Q 32.328125 33.6875 34.8125 36.53125 
Q 39.546875 41.84375 41.421875 45.53125 
Q 43.3125 49.21875 43.3125 52.78125 
Q 43.3125 58.59375 39.234375 62.25 
Q 35.15625 65.921875 28.609375 65.921875 
Q 23.96875 65.921875 18.8125 64.3125 
Q 13.671875 62.703125 7.8125 59.421875 
L 7.8125 69.390625 
Q 13.765625 71.78125 18.9375 73 
Q 24.125 74.21875 28.421875 74.21875 
Q 39.75 74.21875 46.484375 68.546875 
Q 53.21875 62.890625 53.21875 53.421875 
Q 53.21875 48.921875 51.53125 44.890625 
Q 49.859375 40.875 45.40625 35.40625 
Q 44.1875 33.984375 37.640625 27.21875 
Q 31.109375 20.453125 19.1875 8.296875 
z
" id="DejaVuSans-50"/>
       <path d="M 31.78125 66.40625 
Q 24.171875 66.40625 20.328125 58.90625 
Q 16.5 51.421875 16.5 36.375 
Q 16.5 21.390625 20.328125 13.890625 
Q 24.171875 6.390625 31.78125 6.390625 
Q 39.453125 6.390625 43.28125 13.890625 
Q 47.125 21.390625 47.125 36.375 
Q 47.125 51.421875 43.28125 58.90625 
Q 39.453125 66.40625 31.78125 66.40625 
z
M 31.78125 74.21875 
Q 44.046875 74.21875 50.515625 64.515625 
Q 56.984375 54.828125 56.984375 36.375 
Q 56.984375 17.96875 50.515625 8.265625 
Q 44.046875 -1.421875 31.78125 -1.421875 
Q 19.53125 -1.421875 13.0625 8.265625 
Q 6.59375 17.96875 6.59375 36.375 
Q 6.59375 54.828125 13.0625 64.515625 
Q 19.53125 74.21875 31.78125 74.21875 
z
" id="DejaVuSans-48"/>
       <path d="M 12.40625 8.296875 
L 28.515625 8.296875 
L 28.515625 63.921875 
L 10.984375 60.40625 
L 10.984375 69.390625 
L 28.421875 72.90625 
L 38.28125 72.90625 
L 38.28125 8.296875 
L 54.390625 8.296875 
L 54.390625 0 
L 12.40625 0 
z
" id="DejaVuSans-49"/>
       <path d="M 10.796875 72.90625 
L 49.515625 72.90625 
L 49.515625 64.59375 
L 19.828125 64.59375 
L 19.828125 46.734375 
Q 21.96875 47.46875 24.109375 47.828125 
Q 26.265625 48.1875 28.421875 48.1875 
Q 40.625 48.1875 47.75 41.5 
Q 54.890625 34.8125 54.890625 23.390625 
Q 54.890625 11.625 47.5625 5.09375 
Q 40.234375 -1.421875 26.90625 -1.421875 
Q 22.3125 -1.421875 17.546875 -0.640625 
Q 12.796875 0.140625 7.71875 1.703125 
L 7.71875 11.625 
Q 12.109375 9.234375 16.796875 8.0625 
Q 21.484375 6.890625 26.703125 6.890625 
Q 35.15625 6.890625 40.078125 11.328125 
Q 45.015625 15.765625 45.015625 23.390625 
Q 45.015625 31 40.078125 35.4375 
Q 35.15625 39.890625 26.703125 39.890625 
Q 22.75 39.890625 18.8125 39.015625 
Q 14.890625 38.140625 10.796875 36.28125 
z
" id="DejaVuSans-53"/>
      </defs>
      <g transform="translate(85.083669 266.598437)scale(0.1 -0.1)">
       <use xlink:href="#DejaVuSans-74"/>
       <use x="29.492188" xlink:href="#DejaVuSans-117"/>
       <use x="92.871094" xlink:href="#DejaVuSans-108"/>
       <use x="120.654297" xlink:href="#DejaVuSans-32"/>
       <use x="152.441406" xlink:href="#DejaVuSans-50"/>
       <use x="216.064453" xlink:href="#DejaVuSans-48"/>
       <use x="279.6875" xlink:href="#DejaVuSans-49"/>
       <use x="343.310547" xlink:href="#DejaVuSans-53"/>
      </g>
     </g>
    </g>
    <g id="xtick_2">
     <g id="line2d_2">
      <g>
       <use style="stroke:#000000;stroke-width:0.8;" x="168.4543" xlink:href="#md9fa5d42b5" y="252"/>
      </g>
     </g>
     <g id="text_2">
      <!-- Jan 2016 -->
      <defs>
       <path d="M 34.28125 27.484375 
Q 23.390625 27.484375 19.1875 25 
Q 14.984375 22.515625 14.984375 16.5 
Q 14.984375 11.71875 18.140625 8.90625 
Q 21.296875 6.109375 26.703125 6.109375 
Q 34.1875 6.109375 38.703125 11.40625 
Q 43.21875 16.703125 43.21875 25.484375 
L 43.21875 27.484375 
z
M 52.203125 31.203125 
L 52.203125 0 
L 43.21875 0 
L 43.21875 8.296875 
Q 40.140625 3.328125 35.546875 0.953125 
Q 30.953125 -1.421875 24.3125 -1.421875 
Q 15.921875 -1.421875 10.953125 3.296875 
Q 6 8.015625 6 15.921875 
Q 6 25.140625 12.171875 29.828125 
Q 18.359375 34.515625 30.609375 34.515625 
L 43.21875 34.515625 
L 43.21875 35.40625 
Q 43.21875 41.609375 39.140625 45 
Q 35.0625 48.390625 27.6875 48.390625 
Q 23 48.390625 18.546875 47.265625 
Q 14.109375 46.140625 10.015625 43.890625 
L 10.015625 52.203125 
Q 14.9375 54.109375 19.578125 55.046875 
Q 24.21875 56 28.609375 56 
Q 40.484375 56 46.34375 49.84375 
Q 52.203125 43.703125 52.203125 31.203125 
z
" id="DejaVuSans-97"/>
       <path d="M 54.890625 33.015625 
L 54.890625 0 
L 45.90625 0 
L 45.90625 32.71875 
Q 45.90625 40.484375 42.875 44.328125 
Q 39.84375 48.1875 33.796875 48.1875 
Q 26.515625 48.1875 22.3125 43.546875 
Q 18.109375 38.921875 18.109375 30.90625 
L 18.109375 0 
L 9.078125 0 
L 9.078125 54.6875 
L 18.109375 54.6875 
L 18.109375 46.1875 
Q 21.34375 51.125 25.703125 53.5625 
Q 30.078125 56 35.796875 56 
Q 45.21875 56 50.046875 50.171875 
Q 54.890625 44.34375 54.890625 33.015625 
z
" id="DejaVuSans-110"/>
       <path d="M 33.015625 40.375 
Q 26.375 40.375 22.484375 35.828125 
Q 18.609375 31.296875 18.609375 23.390625 
Q 18.609375 15.53125 22.484375 10.953125 
Q 26.375 6.390625 33.015625 6.390625 
Q 39.65625 6.390625 43.53125 10.953125 
Q 47.40625 15.53125 47.40625 23.390625 
Q 47.40625 31.296875 43.53125 35.828125 
Q 39.65625 40.375 33.015625 40.375 
z
M 52.59375 71.296875 
L 52.59375 62.3125 
Q 48.875 64.0625 45.09375 64.984375 
Q 41.3125 65.921875 37.59375 65.921875 
Q 27.828125 65.921875 22.671875 59.328125 
Q 17.53125 52.734375 16.796875 39.40625 
Q 19.671875 43.65625 24.015625 45.921875 
Q 28.375 48.1875 33.59375 48.1875 
Q 44.578125 48.1875 50.953125 41.515625 
Q 57.328125 34.859375 57.328125 23.390625 
Q 57.328125 12.15625 50.6875 5.359375 
Q 44.046875 -1.421875 33.015625 -1.421875 
Q 20.359375 -1.421875 13.671875 8.265625 
Q 6.984375 17.96875 6.984375 36.375 
Q 6.984375 53.65625 15.1875 63.9375 
Q 23.390625 74.21875 37.203125 74.21875 
Q 40.921875 74.21875 44.703125 73.484375 
Q 48.484375 72.75 52.59375 71.296875 
z
" id="DejaVuSans-54"/>
      </defs>
      <g transform="translate(146.432425 266.598437)scale(0.1 -0.1)">
       <use xlink:href="#DejaVuSans-74"/>
       <use x="29.492188" xlink:href="#DejaVuSans-97"/>
       <use x="90.771484" xlink:href="#DejaVuSans-110"/>
       <use x="154.150391" xlink:href="#DejaVuSans-32"/>
       <use x="185.9375" xlink:href="#DejaVuSans-50"/>
       <use x="249.560547" xlink:href="#DejaVuSans-48"/>
       <use x="313.183594" xlink:href="#DejaVuSans-49"/>
       <use x="376.806641" xlink:href="#DejaVuSans-54"/>
      </g>
     </g>
    </g>
    <g id="xtick_3">
     <g id="line2d_3">
      <g>
       <use style="stroke:#000000;stroke-width:0.8;" x="230.793015" xlink:href="#md9fa5d42b5" y="252"/>
      </g>
     </g>
     <g id="text_3">
      <!-- Jul 2016 -->
      <g transform="translate(210.44614 266.598437)scale(0.1 -0.1)">
       <use xlink:href="#DejaVuSans-74"/>
       <use x="29.492188" xlink:href="#DejaVuSans-117"/>
       <use x="92.871094" xlink:href="#DejaVuSans-108"/>
       <use x="120.654297" xlink:href="#DejaVuSans-32"/>
       <use x="152.441406" xlink:href="#DejaVuSans-50"/>
       <use x="216.064453" xlink:href="#DejaVuSans-48"/>
       <use x="279.6875" xlink:href="#DejaVuSans-49"/>
       <use x="343.310547" xlink:href="#DejaVuSans-54"/>
      </g>
     </g>
    </g>
    <g id="xtick_4">
     <g id="line2d_4">
      <g>
       <use style="stroke:#000000;stroke-width:0.8;" x="293.81677" xlink:href="#md9fa5d42b5" y="252"/>
      </g>
     </g>
     <g id="text_4">
      <!-- Jan 2017 -->
      <defs>
       <path d="M 8.203125 72.90625 
L 55.078125 72.90625 
L 55.078125 68.703125 
L 28.609375 0 
L 18.3125 0 
L 43.21875 64.59375 
L 8.203125 64.59375 
z
" id="DejaVuSans-55"/>
      </defs>
      <g transform="translate(271.794895 266.598437)scale(0.1 -0.1)">
       <use xlink:href="#DejaVuSans-74"/>
       <use x="29.492188" xlink:href="#DejaVuSans-97"/>
       <use x="90.771484" xlink:href="#DejaVuSans-110"/>
       <use x="154.150391" xlink:href="#DejaVuSans-32"/>
       <use x="185.9375" xlink:href="#DejaVuSans-50"/>
       <use x="249.560547" xlink:href="#DejaVuSans-48"/>
       <use x="313.183594" xlink:href="#DejaVuSans-49"/>
       <use x="376.806641" xlink:href="#DejaVuSans-55"/>
      </g>
     </g>
    </g>
    <g id="xtick_5">
     <g id="line2d_5">
      <g>
       <use style="stroke:#000000;stroke-width:0.8;" x="355.812964" xlink:href="#md9fa5d42b5" y="252"/>
      </g>
     </g>
     <g id="text_5">
      <!-- Jul 2017 -->
      <g transform="translate(335.466089 266.598437)scale(0.1 -0.1)">
       <use xlink:href="#DejaVuSans-74"/>
       <use x="29.492188" xlink:href="#DejaVuSans-117"/>
       <use x="92.871094" xlink:href="#DejaVuSans-108"/>
       <use x="120.654297" xlink:href="#DejaVuSans-32"/>
       <use x="152.441406" xlink:href="#DejaVuSans-50"/>
       <use x="216.064453" xlink:href="#DejaVuSans-48"/>
       <use x="279.6875" xlink:href="#DejaVuSans-49"/>
       <use x="343.310547" xlink:href="#DejaVuSans-55"/>
      </g>
     </g>
    </g>
    <g id="xtick_6">
     <g id="line2d_6">
      <g>
       <use style="stroke:#000000;stroke-width:0.8;" x="418.83672" xlink:href="#md9fa5d42b5" y="252"/>
      </g>
     </g>
     <g id="text_6">
      <!-- Jan 2018 -->
      <defs>
       <path d="M 31.78125 34.625 
Q 24.75 34.625 20.71875 30.859375 
Q 16.703125 27.09375 16.703125 20.515625 
Q 16.703125 13.921875 20.71875 10.15625 
Q 24.75 6.390625 31.78125 6.390625 
Q 38.8125 6.390625 42.859375 10.171875 
Q 46.921875 13.96875 46.921875 20.515625 
Q 46.921875 27.09375 42.890625 30.859375 
Q 38.875 34.625 31.78125 34.625 
z
M 21.921875 38.8125 
Q 15.578125 40.375 12.03125 44.71875 
Q 8.5 49.078125 8.5 55.328125 
Q 8.5 64.0625 14.71875 69.140625 
Q 20.953125 74.21875 31.78125 74.21875 
Q 42.671875 74.21875 48.875 69.140625 
Q 55.078125 64.0625 55.078125 55.328125 
Q 55.078125 49.078125 51.53125 44.71875 
Q 48 40.375 41.703125 38.8125 
Q 48.828125 37.15625 52.796875 32.3125 
Q 56.78125 27.484375 56.78125 20.515625 
Q 56.78125 9.90625 50.3125 4.234375 
Q 43.84375 -1.421875 31.78125 -1.421875 
Q 19.734375 -1.421875 13.25 4.234375 
Q 6.78125 9.90625 6.78125 20.515625 
Q 6.78125 27.484375 10.78125 32.3125 
Q 14.796875 37.15625 21.921875 38.8125 
z
M 18.3125 54.390625 
Q 18.3125 48.734375 21.84375 45.5625 
Q 25.390625 42.390625 31.78125 42.390625 
Q 38.140625 42.390625 41.71875 45.5625 
Q 45.3125 48.734375 45.3125 54.390625 
Q 45.3125 60.0625 41.71875 63.234375 
Q 38.140625 66.40625 31.78125 66.40625 
Q 25.390625 66.40625 21.84375 63.234375 
Q 18.3125 60.0625 18.3125 54.390625 
z
" id="DejaVuSans-56"/>
      </defs>
      <g transform="translate(396.814845 266.598437)scale(0.1 -0.1)">
       <use xlink:href="#DejaVuSans-74"/>
       <use x="29.492188" xlink:href="#DejaVuSans-97"/>
       <use x="90.771484" xlink:href="#DejaVuSans-110"/>
       <use x="154.150391" xlink:href="#DejaVuSans-32"/>
       <use x="185.9375" xlink:href="#DejaVuSans-50"/>
       <use x="249.560547" xlink:href="#DejaVuSans-48"/>
       <use x="313.183594" xlink:href="#DejaVuSans-49"/>
       <use x="376.806641" xlink:href="#DejaVuSans-56"/>
      </g>
     </g>
    </g>
    <g id="xtick_7">
     <g id="line2d_7">
      <g>
       <use style="stroke:#000000;stroke-width:0.8;" x="480.832914" xlink:href="#md9fa5d42b5" y="252"/>
      </g>
     </g>
     <g id="text_7">
      <!-- Jul 2018 -->
      <g transform="translate(460.486039 266.598437)scale(0.1 -0.1)">
       <use xlink:href="#DejaVuSans-74"/>
       <use x="29.492188" xlink:href="#DejaVuSans-117"/>
       <use x="92.871094" xlink:href="#DejaVuSans-108"/>
       <use x="120.654297" xlink:href="#DejaVuSans-32"/>
       <use x="152.441406" xlink:href="#DejaVuSans-50"/>
       <use x="216.064453" xlink:href="#DejaVuSans-48"/>
       <use x="279.6875" xlink:href="#DejaVuSans-49"/>
       <use x="343.310547" xlink:href="#DejaVuSans-56"/>
      </g>
     </g>
    </g>
    <g id="xtick_8">
     <g id="line2d_8">
      <g>
       <use style="stroke:#000000;stroke-width:0.8;" x="543.856669" xlink:href="#md9fa5d42b5" y="252"/>
      </g>
     </g>
     <g id="text_8">
      <!-- Jan 2019 -->
      <defs>
       <path d="M 10.984375 1.515625 
L 10.984375 10.5 
Q 14.703125 8.734375 18.5 7.8125 
Q 22.3125 6.890625 25.984375 6.890625 
Q 35.75 6.890625 40.890625 13.453125 
Q 46.046875 20.015625 46.78125 33.40625 
Q 43.953125 29.203125 39.59375 26.953125 
Q 35.25 24.703125 29.984375 24.703125 
Q 19.046875 24.703125 12.671875 31.3125 
Q 6.296875 37.9375 6.296875 49.421875 
Q 6.296875 60.640625 12.9375 67.421875 
Q 19.578125 74.21875 30.609375 74.21875 
Q 43.265625 74.21875 49.921875 64.515625 
Q 56.59375 54.828125 56.59375 36.375 
Q 56.59375 19.140625 48.40625 8.859375 
Q 40.234375 -1.421875 26.421875 -1.421875 
Q 22.703125 -1.421875 18.890625 -0.6875 
Q 15.09375 0.046875 10.984375 1.515625 
z
M 30.609375 32.421875 
Q 37.25 32.421875 41.125 36.953125 
Q 45.015625 41.5 45.015625 49.421875 
Q 45.015625 57.28125 41.125 61.84375 
Q 37.25 66.40625 30.609375 66.40625 
Q 23.96875 66.40625 20.09375 61.84375 
Q 16.21875 57.28125 16.21875 49.421875 
Q 16.21875 41.5 20.09375 36.953125 
Q 23.96875 32.421875 30.609375 32.421875 
z
" id="DejaVuSans-57"/>
      </defs>
      <g transform="translate(521.834794 266.598437)scale(0.1 -0.1)">
       <use xlink:href="#DejaVuSans-74"/>
       <use x="29.492188" xlink:href="#DejaVuSans-97"/>
       <use x="90.771484" xlink:href="#DejaVuSans-110"/>
       <use x="154.150391" xlink:href="#DejaVuSans-32"/>
       <use x="185.9375" xlink:href="#DejaVuSans-50"/>
       <use x="249.560547" xlink:href="#DejaVuSans-48"/>
       <use x="313.183594" xlink:href="#DejaVuSans-49"/>
       <use x="376.806641" xlink:href="#DejaVuSans-57"/>
      </g>
     </g>
    </g>
    <g id="xtick_9">
     <g id="line2d_9">
      <g>
       <use style="stroke:#000000;stroke-width:0.8;" x="605.852864" xlink:href="#md9fa5d42b5" y="252"/>
      </g>
     </g>
     <g id="text_9">
      <!-- Jul 2019 -->
      <g transform="translate(585.505989 266.598437)scale(0.1 -0.1)">
       <use xlink:href="#DejaVuSans-74"/>
       <use x="29.492188" xlink:href="#DejaVuSans-117"/>
       <use x="92.871094" xlink:href="#DejaVuSans-108"/>
       <use x="120.654297" xlink:href="#DejaVuSans-32"/>
       <use x="152.441406" xlink:href="#DejaVuSans-50"/>
       <use x="216.064453" xlink:href="#DejaVuSans-48"/>
       <use x="279.6875" xlink:href="#DejaVuSans-49"/>
       <use x="343.310547" xlink:href="#DejaVuSans-57"/>
      </g>
     </g>
    </g>
    <g id="text_10">
     <!-- Date -->
     <defs>
      <path d="M 19.671875 64.796875 
L 19.671875 8.109375 
L 31.59375 8.109375 
Q 46.6875 8.109375 53.6875 14.9375 
Q 60.6875 21.78125 60.6875 36.53125 
Q 60.6875 51.171875 53.6875 57.984375 
Q 46.6875 64.796875 31.59375 64.796875 
z
M 9.8125 72.90625 
L 30.078125 72.90625 
Q 51.265625 72.90625 61.171875 64.09375 
Q 71.09375 55.28125 71.09375 36.53125 
Q 71.09375 17.671875 61.125 8.828125 
Q 51.171875 0 30.078125 0 
L 9.8125 0 
z
" id="DejaVuSans-68"/>
      <path d="M 18.3125 70.21875 
L 18.3125 54.6875 
L 36.8125 54.6875 
L 36.8125 47.703125 
L 18.3125 47.703125 
L 18.3125 18.015625 
Q 18.3125 11.328125 20.140625 9.421875 
Q 21.96875 7.515625 27.59375 7.515625 
L 36.8125 7.515625 
L 36.8125 0 
L 27.59375 0 
Q 17.1875 0 13.234375 3.875 
Q 9.28125 7.765625 9.28125 18.015625 
L 9.28125 47.703125 
L 2.6875 47.703125 
L 2.6875 54.6875 
L 9.28125 54.6875 
L 9.28125 70.21875 
z
" id="DejaVuSans-116"/>
      <path d="M 56.203125 29.59375 
L 56.203125 25.203125 
L 14.890625 25.203125 
Q 15.484375 15.921875 20.484375 11.0625 
Q 25.484375 6.203125 34.421875 6.203125 
Q 39.59375 6.203125 44.453125 7.46875 
Q 49.3125 8.734375 54.109375 11.28125 
L 54.109375 2.78125 
Q 49.265625 0.734375 44.1875 -0.34375 
Q 39.109375 -1.421875 33.890625 -1.421875 
Q 20.796875 -1.421875 13.15625 6.1875 
Q 5.515625 13.8125 5.515625 26.8125 
Q 5.515625 40.234375 12.765625 48.109375 
Q 20.015625 56 32.328125 56 
Q 43.359375 56 49.78125 48.890625 
Q 56.203125 41.796875 56.203125 29.59375 
z
M 47.21875 32.234375 
Q 47.125 39.59375 43.09375 43.984375 
Q 39.0625 48.390625 32.421875 48.390625 
Q 24.90625 48.390625 20.390625 44.140625 
Q 15.875 39.890625 15.1875 32.171875 
z
" id="DejaVuSans-101"/>
     </defs>
     <g transform="translate(357.049219 280.276563)scale(0.1 -0.1)">
      <use xlink:href="#DejaVuSans-68"/>
      <use x="77.001953" xlink:href="#DejaVuSans-97"/>
      <use x="138.28125" xlink:href="#DejaVuSans-116"/>
      <use x="177.490234" xlink:href="#DejaVuSans-101"/>
     </g>
    </g>
   </g>
   <g id="matplotlib.axis_2">
    <g id="ytick_1">
     <g id="line2d_10">
      <defs>
       <path d="M 0 0 
L -3.5 0 
" id="m82a86caa1a" style="stroke:#000000;stroke-width:0.8;"/>
      </defs>
      <g>
       <use style="stroke:#000000;stroke-width:0.8;" x="90" xlink:href="#m82a86caa1a" y="237.98703"/>
      </g>
     </g>
     <g id="text_11">
      <!-- 5 -->
      <g transform="translate(76.6375 241.786249)scale(0.1 -0.1)">
       <use xlink:href="#DejaVuSans-53"/>
      </g>
     </g>
    </g>
    <g id="ytick_2">
     <g id="line2d_11">
      <g>
       <use style="stroke:#000000;stroke-width:0.8;" x="90" xlink:href="#m82a86caa1a" y="199.75246"/>
      </g>
     </g>
     <g id="text_12">
      <!-- 10 -->
      <g transform="translate(70.275 203.551679)scale(0.1 -0.1)">
       <use xlink:href="#DejaVuSans-49"/>
       <use x="63.623047" xlink:href="#DejaVuSans-48"/>
      </g>
     </g>
    </g>
    <g id="ytick_3">
     <g id="line2d_12">
      <g>
       <use style="stroke:#000000;stroke-width:0.8;" x="90" xlink:href="#m82a86caa1a" y="161.51789"/>
      </g>
     </g>
     <g id="text_13">
      <!-- 15 -->
      <g transform="translate(70.275 165.317109)scale(0.1 -0.1)">
       <use xlink:href="#DejaVuSans-49"/>
       <use x="63.623047" xlink:href="#DejaVuSans-53"/>
      </g>
     </g>
    </g>
    <g id="ytick_4">
     <g id="line2d_13">
      <g>
       <use style="stroke:#000000;stroke-width:0.8;" x="90" xlink:href="#m82a86caa1a" y="123.28332"/>
      </g>
     </g>
     <g id="text_14">
      <!-- 20 -->
      <g transform="translate(70.275 127.082539)scale(0.1 -0.1)">
       <use xlink:href="#DejaVuSans-50"/>
       <use x="63.623047" xlink:href="#DejaVuSans-48"/>
      </g>
     </g>
    </g>
    <g id="ytick_5">
     <g id="line2d_14">
      <g>
       <use style="stroke:#000000;stroke-width:0.8;" x="90" xlink:href="#m82a86caa1a" y="85.04875"/>
      </g>
     </g>
     <g id="text_15">
      <!-- 25 -->
      <g transform="translate(70.275 88.847969)scale(0.1 -0.1)">
       <use xlink:href="#DejaVuSans-50"/>
       <use x="63.623047" xlink:href="#DejaVuSans-53"/>
      </g>
     </g>
    </g>
    <g id="ytick_6">
     <g id="line2d_15">
      <g>
       <use style="stroke:#000000;stroke-width:0.8;" x="90" xlink:href="#m82a86caa1a" y="46.81418"/>
      </g>
     </g>
     <g id="text_16">
      <!-- 30 -->
      <defs>
       <path d="M 40.578125 39.3125 
Q 47.65625 37.796875 51.625 33 
Q 55.609375 28.21875 55.609375 21.1875 
Q 55.609375 10.40625 48.1875 4.484375 
Q 40.765625 -1.421875 27.09375 -1.421875 
Q 22.515625 -1.421875 17.65625 -0.515625 
Q 12.796875 0.390625 7.625 2.203125 
L 7.625 11.71875 
Q 11.71875 9.328125 16.59375 8.109375 
Q 21.484375 6.890625 26.8125 6.890625 
Q 36.078125 6.890625 40.9375 10.546875 
Q 45.796875 14.203125 45.796875 21.1875 
Q 45.796875 27.640625 41.28125 31.265625 
Q 36.765625 34.90625 28.71875 34.90625 
L 20.21875 34.90625 
L 20.21875 43.015625 
L 29.109375 43.015625 
Q 36.375 43.015625 40.234375 45.921875 
Q 44.09375 48.828125 44.09375 54.296875 
Q 44.09375 59.90625 40.109375 62.90625 
Q 36.140625 65.921875 28.71875 65.921875 
Q 24.65625 65.921875 20.015625 65.03125 
Q 15.375 64.15625 9.8125 62.3125 
L 9.8125 71.09375 
Q 15.4375 72.65625 20.34375 73.4375 
Q 25.25 74.21875 29.59375 74.21875 
Q 40.828125 74.21875 47.359375 69.109375 
Q 53.90625 64.015625 53.90625 55.328125 
Q 53.90625 49.265625 50.4375 45.09375 
Q 46.96875 40.921875 40.578125 39.3125 
z
" id="DejaVuSans-51"/>
      </defs>
      <g transform="translate(70.275 50.613398)scale(0.1 -0.1)">
       <use xlink:href="#DejaVuSans-51"/>
       <use x="63.623047" xlink:href="#DejaVuSans-48"/>
      </g>
     </g>
    </g>
    <g id="text_17">
     <!-- Mean daily block confirmation time (seconds) -->
     <defs>
      <path d="M 9.8125 72.90625 
L 24.515625 72.90625 
L 43.109375 23.296875 
L 61.8125 72.90625 
L 76.515625 72.90625 
L 76.515625 0 
L 66.890625 0 
L 66.890625 64.015625 
L 48.09375 14.015625 
L 38.1875 14.015625 
L 19.390625 64.015625 
L 19.390625 0 
L 9.8125 0 
z
" id="DejaVuSans-77"/>
      <path d="M 45.40625 46.390625 
L 45.40625 75.984375 
L 54.390625 75.984375 
L 54.390625 0 
L 45.40625 0 
L 45.40625 8.203125 
Q 42.578125 3.328125 38.25 0.953125 
Q 33.9375 -1.421875 27.875 -1.421875 
Q 17.96875 -1.421875 11.734375 6.484375 
Q 5.515625 14.40625 5.515625 27.296875 
Q 5.515625 40.1875 11.734375 48.09375 
Q 17.96875 56 27.875 56 
Q 33.9375 56 38.25 53.625 
Q 42.578125 51.265625 45.40625 46.390625 
z
M 14.796875 27.296875 
Q 14.796875 17.390625 18.875 11.75 
Q 22.953125 6.109375 30.078125 6.109375 
Q 37.203125 6.109375 41.296875 11.75 
Q 45.40625 17.390625 45.40625 27.296875 
Q 45.40625 37.203125 41.296875 42.84375 
Q 37.203125 48.484375 30.078125 48.484375 
Q 22.953125 48.484375 18.875 42.84375 
Q 14.796875 37.203125 14.796875 27.296875 
z
" id="DejaVuSans-100"/>
      <path d="M 9.421875 54.6875 
L 18.40625 54.6875 
L 18.40625 0 
L 9.421875 0 
z
M 9.421875 75.984375 
L 18.40625 75.984375 
L 18.40625 64.59375 
L 9.421875 64.59375 
z
" id="DejaVuSans-105"/>
      <path d="M 32.171875 -5.078125 
Q 28.375 -14.84375 24.75 -17.8125 
Q 21.140625 -20.796875 15.09375 -20.796875 
L 7.90625 -20.796875 
L 7.90625 -13.28125 
L 13.1875 -13.28125 
Q 16.890625 -13.28125 18.9375 -11.515625 
Q 21 -9.765625 23.484375 -3.21875 
L 25.09375 0.875 
L 2.984375 54.6875 
L 12.5 54.6875 
L 29.59375 11.921875 
L 46.6875 54.6875 
L 56.203125 54.6875 
z
" id="DejaVuSans-121"/>
      <path d="M 48.6875 27.296875 
Q 48.6875 37.203125 44.609375 42.84375 
Q 40.53125 48.484375 33.40625 48.484375 
Q 26.265625 48.484375 22.1875 42.84375 
Q 18.109375 37.203125 18.109375 27.296875 
Q 18.109375 17.390625 22.1875 11.75 
Q 26.265625 6.109375 33.40625 6.109375 
Q 40.53125 6.109375 44.609375 11.75 
Q 48.6875 17.390625 48.6875 27.296875 
z
M 18.109375 46.390625 
Q 20.953125 51.265625 25.265625 53.625 
Q 29.59375 56 35.59375 56 
Q 45.5625 56 51.78125 48.09375 
Q 58.015625 40.1875 58.015625 27.296875 
Q 58.015625 14.40625 51.78125 6.484375 
Q 45.5625 -1.421875 35.59375 -1.421875 
Q 29.59375 -1.421875 25.265625 0.953125 
Q 20.953125 3.328125 18.109375 8.203125 
L 18.109375 0 
L 9.078125 0 
L 9.078125 75.984375 
L 18.109375 75.984375 
z
" id="DejaVuSans-98"/>
      <path d="M 30.609375 48.390625 
Q 23.390625 48.390625 19.1875 42.75 
Q 14.984375 37.109375 14.984375 27.296875 
Q 14.984375 17.484375 19.15625 11.84375 
Q 23.34375 6.203125 30.609375 6.203125 
Q 37.796875 6.203125 41.984375 11.859375 
Q 46.1875 17.53125 46.1875 27.296875 
Q 46.1875 37.015625 41.984375 42.703125 
Q 37.796875 48.390625 30.609375 48.390625 
z
M 30.609375 56 
Q 42.328125 56 49.015625 48.375 
Q 55.71875 40.765625 55.71875 27.296875 
Q 55.71875 13.875 49.015625 6.21875 
Q 42.328125 -1.421875 30.609375 -1.421875 
Q 18.84375 -1.421875 12.171875 6.21875 
Q 5.515625 13.875 5.515625 27.296875 
Q 5.515625 40.765625 12.171875 48.375 
Q 18.84375 56 30.609375 56 
z
" id="DejaVuSans-111"/>
      <path d="M 48.78125 52.59375 
L 48.78125 44.1875 
Q 44.96875 46.296875 41.140625 47.34375 
Q 37.3125 48.390625 33.40625 48.390625 
Q 24.65625 48.390625 19.8125 42.84375 
Q 14.984375 37.3125 14.984375 27.296875 
Q 14.984375 17.28125 19.8125 11.734375 
Q 24.65625 6.203125 33.40625 6.203125 
Q 37.3125 6.203125 41.140625 7.25 
Q 44.96875 8.296875 48.78125 10.40625 
L 48.78125 2.09375 
Q 45.015625 0.34375 40.984375 -0.53125 
Q 36.96875 -1.421875 32.421875 -1.421875 
Q 20.0625 -1.421875 12.78125 6.34375 
Q 5.515625 14.109375 5.515625 27.296875 
Q 5.515625 40.671875 12.859375 48.328125 
Q 20.21875 56 33.015625 56 
Q 37.15625 56 41.109375 55.140625 
Q 45.0625 54.296875 48.78125 52.59375 
z
" id="DejaVuSans-99"/>
      <path d="M 9.078125 75.984375 
L 18.109375 75.984375 
L 18.109375 31.109375 
L 44.921875 54.6875 
L 56.390625 54.6875 
L 27.390625 29.109375 
L 57.625 0 
L 45.90625 0 
L 18.109375 26.703125 
L 18.109375 0 
L 9.078125 0 
z
" id="DejaVuSans-107"/>
      <path d="M 37.109375 75.984375 
L 37.109375 68.5 
L 28.515625 68.5 
Q 23.6875 68.5 21.796875 66.546875 
Q 19.921875 64.59375 19.921875 59.515625 
L 19.921875 54.6875 
L 34.71875 54.6875 
L 34.71875 47.703125 
L 19.921875 47.703125 
L 19.921875 0 
L 10.890625 0 
L 10.890625 47.703125 
L 2.296875 47.703125 
L 2.296875 54.6875 
L 10.890625 54.6875 
L 10.890625 58.5 
Q 10.890625 67.625 15.140625 71.796875 
Q 19.390625 75.984375 28.609375 75.984375 
z
" id="DejaVuSans-102"/>
      <path d="M 41.109375 46.296875 
Q 39.59375 47.171875 37.8125 47.578125 
Q 36.03125 48 33.890625 48 
Q 26.265625 48 22.1875 43.046875 
Q 18.109375 38.09375 18.109375 28.8125 
L 18.109375 0 
L 9.078125 0 
L 9.078125 54.6875 
L 18.109375 54.6875 
L 18.109375 46.1875 
Q 20.953125 51.171875 25.484375 53.578125 
Q 30.03125 56 36.53125 56 
Q 37.453125 56 38.578125 55.875 
Q 39.703125 55.765625 41.0625 55.515625 
z
" id="DejaVuSans-114"/>
      <path d="M 52 44.1875 
Q 55.375 50.25 60.0625 53.125 
Q 64.75 56 71.09375 56 
Q 79.640625 56 84.28125 50.015625 
Q 88.921875 44.046875 88.921875 33.015625 
L 88.921875 0 
L 79.890625 0 
L 79.890625 32.71875 
Q 79.890625 40.578125 77.09375 44.375 
Q 74.3125 48.1875 68.609375 48.1875 
Q 61.625 48.1875 57.5625 43.546875 
Q 53.515625 38.921875 53.515625 30.90625 
L 53.515625 0 
L 44.484375 0 
L 44.484375 32.71875 
Q 44.484375 40.625 41.703125 44.40625 
Q 38.921875 48.1875 33.109375 48.1875 
Q 26.21875 48.1875 22.15625 43.53125 
Q 18.109375 38.875 18.109375 30.90625 
L 18.109375 0 
L 9.078125 0 
L 9.078125 54.6875 
L 18.109375 54.6875 
L 18.109375 46.1875 
Q 21.1875 51.21875 25.484375 53.609375 
Q 29.78125 56 35.6875 56 
Q 41.65625 56 45.828125 52.96875 
Q 50 49.953125 52 44.1875 
z
" id="DejaVuSans-109"/>
      <path d="M 31 75.875 
Q 24.46875 64.65625 21.28125 53.65625 
Q 18.109375 42.671875 18.109375 31.390625 
Q 18.109375 20.125 21.3125 9.0625 
Q 24.515625 -2 31 -13.1875 
L 23.1875 -13.1875 
Q 15.875 -1.703125 12.234375 9.375 
Q 8.59375 20.453125 8.59375 31.390625 
Q 8.59375 42.28125 12.203125 53.3125 
Q 15.828125 64.359375 23.1875 75.875 
z
" id="DejaVuSans-40"/>
      <path d="M 44.28125 53.078125 
L 44.28125 44.578125 
Q 40.484375 46.53125 36.375 47.5 
Q 32.28125 48.484375 27.875 48.484375 
Q 21.1875 48.484375 17.84375 46.4375 
Q 14.5 44.390625 14.5 40.28125 
Q 14.5 37.15625 16.890625 35.375 
Q 19.28125 33.59375 26.515625 31.984375 
L 29.59375 31.296875 
Q 39.15625 29.25 43.1875 25.515625 
Q 47.21875 21.78125 47.21875 15.09375 
Q 47.21875 7.46875 41.1875 3.015625 
Q 35.15625 -1.421875 24.609375 -1.421875 
Q 20.21875 -1.421875 15.453125 -0.5625 
Q 10.6875 0.296875 5.421875 2 
L 5.421875 11.28125 
Q 10.40625 8.6875 15.234375 7.390625 
Q 20.0625 6.109375 24.8125 6.109375 
Q 31.15625 6.109375 34.5625 8.28125 
Q 37.984375 10.453125 37.984375 14.40625 
Q 37.984375 18.0625 35.515625 20.015625 
Q 33.0625 21.96875 24.703125 23.78125 
L 21.578125 24.515625 
Q 13.234375 26.265625 9.515625 29.90625 
Q 5.8125 33.546875 5.8125 39.890625 
Q 5.8125 47.609375 11.28125 51.796875 
Q 16.75 56 26.8125 56 
Q 31.78125 56 36.171875 55.265625 
Q 40.578125 54.546875 44.28125 53.078125 
z
" id="DejaVuSans-115"/>
      <path d="M 8.015625 75.875 
L 15.828125 75.875 
Q 23.140625 64.359375 26.78125 53.3125 
Q 30.421875 42.28125 30.421875 31.390625 
Q 30.421875 20.453125 26.78125 9.375 
Q 23.140625 -1.703125 15.828125 -13.1875 
L 8.015625 -13.1875 
Q 14.5 -2 17.703125 9.0625 
Q 20.90625 20.125 20.90625 31.390625 
Q 20.90625 42.671875 17.703125 53.65625 
Q 14.5 64.65625 8.015625 75.875 
z
" id="DejaVuSans-41"/>
     </defs>
     <g transform="translate(64.195312 257.419844)rotate(-90)scale(0.1 -0.1)">
      <use xlink:href="#DejaVuSans-77"/>
      <use x="86.279297" xlink:href="#DejaVuSans-101"/>
      <use x="147.802734" xlink:href="#DejaVuSans-97"/>
      <use x="209.082031" xlink:href="#DejaVuSans-110"/>
      <use x="272.460938" xlink:href="#DejaVuSans-32"/>
      <use x="304.248047" xlink:href="#DejaVuSans-100"/>
      <use x="367.724609" xlink:href="#DejaVuSans-97"/>
      <use x="429.003906" xlink:href="#DejaVuSans-105"/>
      <use x="456.787109" xlink:href="#DejaVuSans-108"/>
      <use x="484.570312" xlink:href="#DejaVuSans-121"/>
      <use x="543.75" xlink:href="#DejaVuSans-32"/>
      <use x="575.537109" xlink:href="#DejaVuSans-98"/>
      <use x="639.013672" xlink:href="#DejaVuSans-108"/>
      <use x="666.796875" xlink:href="#DejaVuSans-111"/>
      <use x="727.978516" xlink:href="#DejaVuSans-99"/>
      <use x="782.958984" xlink:href="#DejaVuSans-107"/>
      <use x="840.869141" xlink:href="#DejaVuSans-32"/>
      <use x="872.65625" xlink:href="#DejaVuSans-99"/>
      <use x="927.636719" xlink:href="#DejaVuSans-111"/>
      <use x="988.818359" xlink:href="#DejaVuSans-110"/>
      <use x="1052.197266" xlink:href="#DejaVuSans-102"/>
      <use x="1087.402344" xlink:href="#DejaVuSans-105"/>
      <use x="1115.185547" xlink:href="#DejaVuSans-114"/>
      <use x="1156.283203" xlink:href="#DejaVuSans-109"/>
      <use x="1253.695312" xlink:href="#DejaVuSans-97"/>
      <use x="1314.974609" xlink:href="#DejaVuSans-116"/>
      <use x="1354.183594" xlink:href="#DejaVuSans-105"/>
      <use x="1381.966797" xlink:href="#DejaVuSans-111"/>
      <use x="1443.148438" xlink:href="#DejaVuSans-110"/>
      <use x="1506.527344" xlink:href="#DejaVuSans-32"/>
      <use x="1538.314453" xlink:href="#DejaVuSans-116"/>
      <use x="1577.523438" xlink:href="#DejaVuSans-105"/>
      <use x="1605.306641" xlink:href="#DejaVuSans-109"/>
      <use x="1702.71875" xlink:href="#DejaVuSans-101"/>
      <use x="1764.242188" xlink:href="#DejaVuSans-32"/>
      <use x="1796.029297" xlink:href="#DejaVuSans-40"/>
      <use x="1835.042969" xlink:href="#DejaVuSans-115"/>
      <use x="1887.142578" xlink:href="#DejaVuSans-101"/>
      <use x="1948.666016" xlink:href="#DejaVuSans-99"/>
      <use x="2003.646484" xlink:href="#DejaVuSans-111"/>
      <use x="2064.828125" xlink:href="#DejaVuSans-110"/>
      <use x="2128.207031" xlink:href="#DejaVuSans-100"/>
      <use x="2191.683594" xlink:href="#DejaVuSans-115"/>
      <use x="2243.783203" xlink:href="#DejaVuSans-41"/>
     </g>
    </g>
   </g>
   <g id="line2d_16">
    <path clip-path="url(#p4fe9565aed)" d="M 115.363636 242.116364 
L 115.706157 180.023422 
L 116.048677 151.271025 
L 116.391198 152.953346 
L 116.733718 151.041618 
L 117.076238 153.106285 
L 117.761279 147.065222 
L 118.44632 150.506334 
L 118.78884 147.29463 
L 119.131361 150.506334 
L 119.473881 151.041618 
L 119.816402 147.29463 
L 120.158922 151.271025 
L 120.501443 162.43552 
L 121.186483 147.447568 
L 121.529004 152.64747 
L 121.871524 142.706481 
L 122.214045 148.976951 
L 122.556565 112.042356 
L 122.899085 146.377 
L 123.241606 150.888679 
L 123.584126 144.388803 
L 123.926647 148.747544 
L 124.611687 144.159395 
L 124.954208 135.900728 
L 125.296728 134.218407 
L 125.639249 123.818604 
L 125.981769 117.395196 
L 126.324289 116.630505 
L 126.66681 109.06006 
L 127.00933 91.778034 
L 127.351851 80.995885 
L 127.694371 128.63616 
L 128.036892 142.553543 
L 128.379412 144.771148 
L 128.721932 140.335938 
L 129.406973 145.306432 
L 129.749494 144.847617 
L 130.092014 148.441667 
L 130.434534 145.382901 
L 130.777055 144.312333 
L 131.119575 141.559444 
L 131.462096 140.488876 
L 131.804616 143.777049 
L 132.147136 139.26537 
L 132.489657 141.865321 
L 133.174698 153.565099 
L 133.517218 147.218161 
L 133.859739 146.224062 
L 134.202259 149.435766 
L 134.544779 145.45937 
L 134.8873 148.288729 
L 135.572341 139.188901 
L 135.914861 138.42421 
L 136.257381 134.677222 
L 136.599902 138.271271 
L 136.942422 150.429865 
L 137.627463 147.447568 
L 137.969983 142.630012 
L 138.312504 145.841716 
L 138.655024 141.10063 
L 139.340065 149.282828 
L 139.682585 142.782951 
L 140.025106 142.85942 
L 140.710147 150.200457 
L 141.052667 148.059321 
L 141.395188 143.929988 
L 141.737708 143.241765 
L 142.080228 141.94179 
L 142.422749 147.29463 
L 142.765269 144.082926 
L 143.10779 144.006457 
L 143.45031 144.694679 
L 143.79283 144.541741 
L 144.135351 140.259469 
L 144.477871 151.882778 
L 145.162912 148.21226 
L 145.505432 142.247667 
L 145.847953 150.047519 
L 146.190473 143.70058 
L 146.532994 148.976951 
L 146.875514 151.576902 
L 147.218034 148.900482 
L 147.560555 149.741642 
L 147.903075 145.918185 
L 148.245596 147.524037 
L 148.588116 147.829914 
L 148.930637 147.371099 
L 149.273157 149.588704 
L 149.615677 144.159395 
L 149.958198 146.071124 
L 150.300718 146.224062 
L 150.643239 146.835815 
L 150.985759 145.612309 
L 151.6708 149.05342 
L 152.01332 148.976951 
L 152.355841 149.894581 
L 152.698361 146.453469 
L 153.040881 149.741642 
L 153.725922 145.918185 
L 154.068443 137.812456 
L 154.410963 146.453469 
L 154.753484 146.988753 
L 155.096004 148.900482 
L 155.438524 144.61821 
L 155.781045 143.394704 
L 156.123565 143.471173 
L 156.466086 150.047519 
L 156.808606 146.529938 
L 157.493647 148.13579 
L 157.836167 146.835815 
L 158.178688 139.647716 
L 158.521208 150.353395 
L 158.863728 145.53584 
L 159.206249 145.688778 
L 159.548769 143.012358 
L 159.89129 144.847617 
L 160.23381 143.241765 
L 160.57633 150.353395 
L 161.261371 146.759346 
L 161.603892 147.600506 
L 161.946412 151.653371 
L 162.288933 145.306432 
L 162.631453 146.912284 
L 162.973973 145.229963 
L 163.316494 147.29463 
L 163.659014 145.765247 
L 164.001535 147.065222 
L 164.344055 145.688778 
L 164.686575 145.153494 
L 165.029096 149.05342 
L 165.371616 148.288729 
L 165.714137 145.918185 
L 166.056657 147.600506 
L 166.399177 145.612309 
L 166.741698 146.529938 
L 167.084218 148.900482 
L 167.426739 144.847617 
L 167.769259 145.994654 
L 168.11178 146.453469 
L 168.4543 142.935889 
L 168.79682 148.21226 
L 169.139341 149.97105 
L 169.481861 149.206358 
L 169.824382 150.276926 
L 170.166902 149.05342 
L 170.509422 146.300531 
L 170.851943 151.72984 
L 171.194463 149.359297 
L 171.536984 149.359297 
L 171.879504 149.97105 
L 172.222024 144.465272 
L 172.907065 148.824013 
L 173.249586 149.206358 
L 173.592106 147.829914 
L 173.934626 148.059321 
L 174.277147 148.441667 
L 174.619667 146.759346 
L 174.962188 148.365198 
L 175.304708 146.453469 
L 175.647229 147.676976 
L 175.989749 145.306432 
L 176.332269 150.888679 
L 176.67479 143.853519 
L 177.01731 151.041618 
L 177.359831 146.529938 
L 177.702351 146.529938 
L 178.044871 144.159395 
L 178.387392 145.382901 
L 178.729912 141.406506 
L 179.072433 146.529938 
L 179.414953 145.077025 
L 179.757473 151.118087 
L 180.099994 147.753445 
L 180.442514 147.447568 
L 180.785035 145.841716 
L 181.127555 148.594605 
L 181.470076 148.13579 
L 181.812596 146.835815 
L 182.155116 144.235864 
L 182.497637 146.071124 
L 182.840157 146.300531 
L 183.182678 147.600506 
L 183.867718 144.694679 
L 184.210239 146.071124 
L 184.552759 142.400605 
L 184.89528 145.45937 
L 185.2378 146.912284 
L 185.58032 147.524037 
L 185.922841 147.676976 
L 186.265361 148.671074 
L 186.607882 146.224062 
L 186.950402 147.065222 
L 187.292922 149.97105 
L 187.977963 146.606408 
L 188.320484 147.753445 
L 188.663004 142.630012 
L 189.005525 149.435766 
L 189.348045 149.435766 
L 190.033086 147.218161 
L 190.375606 151.423963 
L 190.718127 144.924087 
L 191.060647 147.753445 
L 191.403167 148.059321 
L 191.745688 147.676976 
L 192.088208 152.494531 
L 192.430729 148.671074 
L 192.773249 148.13579 
L 193.115769 153.259223 
L 193.45829 149.818111 
L 193.80081 168.476582 
L 194.143331 169.088335 
L 194.485851 170.541248 
L 194.828371 168.553051 
L 195.170892 171.458878 
L 195.513412 169.929495 
L 195.855933 169.088335 
L 196.198453 170.311841 
L 196.540974 168.858927 
L 196.883494 171.382409 
L 197.226014 170.847125 
L 197.568535 171.30594 
L 197.911055 170.311841 
L 198.253576 168.782458 
L 198.596096 169.317742 
L 198.938616 170.235372 
L 199.281137 169.54715 
L 199.623657 171.076532 
L 199.966178 168.247174 
L 200.308698 169.853026 
L 200.651218 170.694187 
L 201.336259 168.62952 
L 201.67878 167.941298 
L 202.0213 170.617718 
L 202.363821 168.247174 
L 202.706341 170.541248 
L 203.048861 168.094236 
L 203.391382 169.853026 
L 203.733902 169.54715 
L 204.418943 170.235372 
L 204.761463 169.700088 
L 205.103984 169.853026 
L 205.446504 170.770656 
L 205.789025 169.164804 
L 206.131545 170.082434 
L 206.474065 169.164804 
L 207.159106 170.005964 
L 207.501627 169.54715 
L 207.844147 171.458878 
L 208.186667 168.782458 
L 208.529188 170.158903 
L 209.214229 170.082434 
L 209.556749 170.38831 
L 209.89927 168.476582 
L 210.24179 170.235372 
L 210.58431 170.847125 
L 210.926831 168.858927 
L 211.269351 169.776557 
L 211.611872 169.853026 
L 211.954392 169.394211 
L 212.296912 170.464779 
L 212.639433 169.47068 
L 212.981953 170.311841 
L 213.324474 167.482483 
L 213.666994 171.535347 
L 214.009514 171.841224 
L 214.352035 169.700088 
L 214.694555 169.623619 
L 215.037076 168.935397 
L 215.379596 171.153002 
L 216.064637 169.47068 
L 216.407157 169.929495 
L 216.749678 169.011866 
L 217.092198 170.694187 
L 217.777239 169.164804 
L 218.119759 169.853026 
L 218.46228 170.005964 
L 218.8048 170.694187 
L 219.489841 169.853026 
L 219.832361 169.776557 
L 220.174882 168.094236 
L 220.517402 170.082434 
L 220.859923 170.235372 
L 221.202443 170.617718 
L 221.544963 170.311841 
L 221.887484 169.241273 
L 222.230004 171.535347 
L 222.572525 169.54715 
L 222.915045 170.770656 
L 223.257566 171.076532 
L 223.600086 167.558952 
L 223.942606 171.611816 
L 224.285127 170.235372 
L 224.627647 170.311841 
L 224.970168 170.541248 
L 225.655208 169.394211 
L 225.997729 168.935397 
L 226.68277 173.523545 
L 227.02529 168.935397 
L 227.36781 169.394211 
L 227.710331 171.841224 
L 228.052851 169.088335 
L 228.395372 170.38831 
L 228.737892 169.317742 
L 229.080412 170.311841 
L 229.422933 170.005964 
L 229.765453 170.694187 
L 230.107974 169.088335 
L 230.450494 169.394211 
L 230.793015 171.382409 
L 231.135535 169.54715 
L 231.478055 169.853026 
L 231.820576 170.311841 
L 232.163096 168.323643 
L 232.505617 171.076532 
L 232.848137 169.700088 
L 233.190657 169.088335 
L 233.533178 171.382409 
L 233.875698 169.776557 
L 234.218219 170.158903 
L 234.560739 169.241273 
L 234.903259 170.311841 
L 235.5883 168.858927 
L 235.930821 170.847125 
L 236.273341 169.623619 
L 236.615862 171.535347 
L 236.958382 169.164804 
L 237.300902 168.782458 
L 237.643423 171.841224 
L 237.985943 168.553051 
L 238.328464 170.38831 
L 238.670984 167.941298 
L 239.013504 169.623619 
L 239.356025 165.9531 
L 239.698545 170.770656 
L 240.041066 167.558952 
L 240.383586 165.723693 
L 240.726106 165.800162 
L 241.068627 166.641322 
L 241.753668 164.117841 
L 242.096188 165.800162 
L 242.438708 169.54715 
L 243.123749 165.647223 
L 243.46627 167.482483 
L 243.80879 167.176606 
L 244.151311 168.400113 
L 244.493831 167.100137 
L 244.836351 167.329545 
L 245.178872 166.335446 
L 245.521392 166.717791 
L 245.863913 166.717791 
L 246.206433 167.71189 
L 246.548953 167.100137 
L 246.891474 166.258977 
L 247.233994 167.941298 
L 247.576515 166.335446 
L 248.261555 167.635421 
L 248.604076 167.482483 
L 248.946596 166.411915 
L 249.631637 167.788359 
L 249.974158 166.182507 
L 250.316678 167.482483 
L 250.659198 166.717791 
L 251.001719 166.335446 
L 251.344239 166.564853 
L 251.68676 167.482483 
L 252.02928 165.876631 
L 252.3718 167.788359 
L 252.714321 165.11194 
L 253.056841 166.564853 
L 253.399362 167.482483 
L 253.741882 165.9531 
L 254.084402 168.323643 
L 254.426923 166.335446 
L 254.769443 167.406014 
L 255.111964 166.106038 
L 255.454484 167.788359 
L 255.797004 167.253075 
L 256.139525 166.182507 
L 256.482045 167.788359 
L 256.824566 166.717791 
L 257.167086 167.253075 
L 257.509607 166.87073 
L 257.852127 158.229717 
L 258.194647 173.141199 
L 258.537168 169.088335 
L 258.879688 167.253075 
L 259.222209 161.212013 
L 259.564729 170.158903 
L 259.907249 163.735495 
L 260.24977 170.770656 
L 260.59229 163.123742 
L 260.934811 167.100137 
L 261.277331 168.017767 
L 261.619851 168.323643 
L 261.962372 166.335446 
L 262.304892 161.823766 
L 262.647413 168.858927 
L 262.989933 170.311841 
L 263.332454 168.170705 
L 263.674974 163.888433 
L 264.017494 165.800162 
L 264.360015 166.106038 
L 264.702535 171.229471 
L 265.045056 167.864829 
L 265.387576 167.941298 
L 265.730096 167.635421 
L 266.072617 165.494285 
L 266.415137 169.623619 
L 266.757658 168.170705 
L 267.100178 167.253075 
L 267.442698 167.635421 
L 267.785219 166.182507 
L 268.127739 169.164804 
L 268.47026 163.506088 
L 268.81278 171.841224 
L 269.1553 168.323643 
L 269.840341 166.258977 
L 270.182862 168.017767 
L 270.525382 167.176606 
L 270.867903 168.170705 
L 271.552943 165.417816 
L 271.895464 160.294384 
L 272.237984 167.788359 
L 272.580505 168.247174 
L 272.923025 163.429618 
L 273.265545 165.647223 
L 273.608066 165.647223 
L 273.950586 164.729594 
L 274.293107 166.641322 
L 274.635627 167.864829 
L 274.978147 172.22357 
L 275.320668 169.394211 
L 275.663188 165.417816 
L 276.005709 166.106038 
L 276.348229 166.335446 
L 277.03327 170.311841 
L 277.718311 166.641322 
L 278.060831 167.558952 
L 278.403352 164.500186 
L 278.745872 171.688286 
L 279.088392 169.776557 
L 279.430913 170.158903 
L 279.773433 168.247174 
L 280.115954 165.570754 
L 280.458474 165.341347 
L 280.800994 165.800162 
L 281.143515 168.170705 
L 281.486035 164.882532 
L 281.828556 165.11194 
L 282.171076 166.87073 
L 282.513596 165.876631 
L 282.856117 167.176606 
L 283.198637 167.100137 
L 283.541158 167.482483 
L 283.883678 169.164804 
L 284.226199 166.106038 
L 284.568719 166.564853 
L 284.911239 168.476582 
L 285.25376 167.864829 
L 285.59628 168.935397 
L 285.938801 167.482483 
L 286.623841 168.323643 
L 286.966362 166.488384 
L 287.308882 167.864829 
L 287.651403 168.094236 
L 287.993923 166.641322 
L 288.336443 168.017767 
L 288.678964 168.62952 
L 289.021484 168.170705 
L 289.364005 167.100137 
L 289.706525 167.71189 
L 290.049045 167.71189 
L 290.391566 165.9531 
L 290.734086 165.876631 
L 291.076607 166.641322 
L 291.419127 168.62952 
L 291.761648 167.788359 
L 292.104168 166.258977 
L 292.446688 167.71189 
L 292.789209 168.247174 
L 293.131729 167.864829 
L 293.47425 166.564853 
L 293.81677 168.476582 
L 294.15929 167.558952 
L 294.501811 167.023668 
L 294.844331 169.241273 
L 295.186852 168.400113 
L 295.529372 166.717791 
L 295.871892 168.476582 
L 296.556933 167.941298 
L 296.899454 167.100137 
L 297.584495 167.558952 
L 297.927015 168.400113 
L 298.269535 167.788359 
L 298.612056 168.094236 
L 298.954576 167.482483 
L 299.297097 166.411915 
L 299.982137 169.164804 
L 300.324658 166.029569 
L 300.667178 167.100137 
L 301.009699 167.788359 
L 301.352219 167.482483 
L 301.694739 167.406014 
L 302.03726 166.794261 
L 302.37978 168.094236 
L 302.722301 166.411915 
L 303.064821 167.558952 
L 303.407341 165.876631 
L 303.749862 168.400113 
L 304.092382 166.947199 
L 304.434903 166.717791 
L 304.777423 167.635421 
L 305.119944 166.258977 
L 305.462464 168.247174 
L 306.147505 167.558952 
L 306.490025 166.564853 
L 306.832546 167.788359 
L 307.175066 167.253075 
L 307.860107 167.482483 
L 308.545148 167.71189 
L 308.887668 166.947199 
L 309.230188 168.094236 
L 309.572709 167.482483 
L 309.915229 166.641322 
L 310.25775 166.564853 
L 310.60027 166.794261 
L 310.94279 166.794261 
L 311.285311 167.635421 
L 311.627831 165.876631 
L 311.970352 166.947199 
L 312.312872 166.564853 
L 312.655393 167.023668 
L 312.997913 168.247174 
L 313.340433 166.335446 
L 313.682954 168.553051 
L 314.025474 165.723693 
L 314.367995 167.635421 
L 314.710515 166.794261 
L 315.053035 166.335446 
L 315.395556 167.788359 
L 315.738076 166.029569 
L 316.080597 165.876631 
L 316.423117 166.947199 
L 316.765637 165.03547 
L 317.450678 166.488384 
L 317.793199 165.11194 
L 318.135719 167.253075 
L 318.47824 165.876631 
L 318.82076 166.335446 
L 319.16328 166.335446 
L 319.505801 167.482483 
L 320.190842 165.494285 
L 320.533362 168.017767 
L 320.875882 165.647223 
L 321.218403 166.794261 
L 321.560923 164.959001 
L 321.903444 165.03547 
L 322.588484 166.335446 
L 322.931005 165.723693 
L 323.273525 164.500186 
L 323.616046 166.411915 
L 323.958566 164.806063 
L 324.301086 166.182507 
L 324.643607 165.264878 
L 324.986127 163.811964 
L 325.328648 166.106038 
L 325.671168 165.417816 
L 326.013689 166.029569 
L 326.356209 164.19431 
L 326.698729 165.570754 
L 327.04125 165.188409 
L 327.38377 162.282581 
L 327.726291 161.747297 
L 328.068811 163.353149 
L 328.411331 161.670828 
L 328.753852 162.43552 
L 329.096372 164.423717 
L 329.438893 160.906137 
L 329.781413 162.664927 
L 330.123933 163.582557 
L 330.466454 164.041372 
L 330.808974 161.059075 
L 331.151495 164.041372 
L 331.494015 164.041372 
L 331.836536 162.511989 
L 332.179056 164.041372 
L 332.521576 161.059075 
L 332.864097 164.806063 
L 333.206617 159.453223 
L 333.549138 159.606161 
L 333.891658 160.60026 
L 334.234178 159.300285 
L 334.576699 159.606161 
L 334.919219 159.070877 
L 335.26174 159.300285 
L 335.60426 159.912038 
L 335.94678 159.606161 
L 336.289301 160.370853 
L 336.631821 160.447322 
L 336.974342 160.982606 
L 337.316862 159.682631 
L 337.659382 160.523791 
L 338.001903 160.064976 
L 338.344423 161.288483 
L 338.686944 160.753199 
L 339.029464 158.535593 
L 339.371985 154.482729 
L 339.714505 154.635667 
L 340.057025 156.394458 
L 340.399546 153.106285 
L 340.742066 155.859174 
L 341.084587 155.170951 
L 341.427107 157.006211 
L 341.769627 155.629766 
L 342.112148 156.088581 
L 342.454668 155.170951 
L 343.139709 156.088581 
L 343.482229 157.159149 
L 343.82475 155.706235 
L 344.16727 156.16505 
L 344.509791 159.070877 
L 344.852311 159.223816 
L 345.194832 154.865075 
L 345.537352 152.188655 
L 345.879872 147.600506 
L 346.222393 149.97105 
L 346.564913 149.206358 
L 346.907434 151.500433 
L 347.249954 150.506334 
L 347.592474 150.888679 
L 347.934995 150.582803 
L 348.277515 150.659272 
L 348.620036 153.718038 
L 348.962556 151.041618 
L 349.305076 151.500433 
L 349.647597 152.265124 
L 350.675158 153.641568 
L 351.017678 152.571001 
L 351.360199 154.100383 
L 351.702719 153.870976 
L 352.04524 143.777049 
L 352.38776 142.247667 
L 352.730281 143.853519 
L 353.072801 142.171197 
L 353.415321 144.312333 
L 353.757842 143.777049 
L 354.442883 145.765247 
L 354.785403 144.388803 
L 355.127923 146.529938 
L 355.470444 146.377 
L 355.812964 145.841716 
L 356.155485 146.453469 
L 356.498005 147.371099 
L 356.840525 147.676976 
L 357.183046 145.000556 
L 357.868087 147.906383 
L 358.210607 147.906383 
L 358.553127 147.676976 
L 358.895648 134.065469 
L 359.238168 131.31258 
L 359.580689 131.31258 
L 359.923209 131.847864 
L 360.26573 130.777296 
L 360.60825 134.141938 
L 360.95077 133.147839 
L 361.293291 129.630258 
L 361.978332 135.288975 
L 362.320852 135.212506 
L 362.663372 132.077271 
L 363.005893 135.136037 
L 363.348413 136.053666 
L 363.690934 133.836061 
L 364.033454 136.741889 
L 364.375974 135.288975 
L 364.718495 135.136037 
L 365.061015 135.136037 
L 365.403536 136.359543 
L 365.746056 136.665419 
L 366.088577 131.924333 
L 366.431097 116.17169 
L 367.116138 111.430603 
L 367.458658 114.642307 
L 368.143699 113.418801 
L 368.486219 116.248159 
L 369.17126 116.783443 
L 369.513781 115.101122 
L 369.856301 117.242258 
L 370.198821 115.559937 
L 370.541342 117.701073 
L 370.883862 118.618702 
L 371.226383 117.701073 
L 371.568903 119.995147 
L 371.911423 118.618702 
L 372.253944 118.083418 
L 372.596464 121.065715 
L 372.938985 118.312826 
L 373.281505 120.912777 
L 373.624026 120.377493 
L 373.966546 120.377493 
L 374.309066 119.383394 
L 374.651587 91.319219 
L 374.994107 88.260454 
L 375.336628 89.407491 
L 375.679148 85.04875 
L 376.021668 91.013343 
L 376.364189 91.089812 
L 376.706709 87.801639 
L 377.39175 91.166281 
L 377.73427 90.860404 
L 378.076791 90.172182 
L 378.419311 92.083911 
L 378.761832 89.331022 
L 379.446873 93.766232 
L 379.789393 92.619195 
L 380.131913 92.466256 
L 380.474434 91.778034 
L 380.816954 93.995639 
L 381.159475 91.24275 
L 381.501995 94.913269 
L 381.844515 96.060306 
L 382.187036 95.142676 
L 382.529556 95.219145 
L 382.872077 92.772133 
L 383.214597 96.289713 
L 383.557117 94.683861 
L 383.899638 96.289713 
L 384.242158 57.749267 
L 384.584679 48.496501 
L 384.927199 53.00818 
L 385.269719 45.590673 
L 385.61224 50.178822 
L 385.95476 50.33176 
L 386.297281 46.661241 
L 386.639801 44.443636 
L 386.982322 44.749513 
L 387.324842 46.202427 
L 387.667362 45.590673 
L 388.009883 47.578871 
L 388.352403 51.402328 
L 388.694924 53.619933 
L 389.037444 46.81418 
L 389.379964 47.272995 
L 389.722485 49.4906 
L 390.065005 48.802377 
L 390.407526 51.555266 
L 390.750046 51.937612 
L 391.777607 49.031785 
L 392.120128 53.772871 
L 392.462648 133.147839 
L 392.805168 168.705989 
L 393.147689 171.229471 
L 393.83273 171.611816 
L 394.17525 171.535347 
L 394.517771 172.300039 
L 394.860291 171.994162 
L 395.202811 171.917693 
L 395.545332 170.847125 
L 395.887852 170.158903 
L 396.230373 171.688286 
L 396.572893 171.535347 
L 396.915413 170.847125 
L 397.257934 169.011866 
L 397.600454 172.376508 
L 397.942975 170.311841 
L 398.285495 170.464779 
L 398.628015 171.611816 
L 398.970536 170.847125 
L 399.313056 172.682384 
L 399.655577 170.923594 
L 399.998097 171.30594 
L 400.340618 171.458878 
L 400.683138 170.770656 
L 401.025658 172.835323 
L 401.368179 172.376508 
L 401.710699 170.464779 
L 402.05322 171.841224 
L 402.39574 170.158903 
L 402.73826 171.535347 
L 403.080781 170.694187 
L 403.423301 171.764755 
L 403.765822 171.382409 
L 404.108342 172.22357 
L 404.450862 170.617718 
L 404.793383 170.694187 
L 405.135903 171.688286 
L 405.478424 171.229471 
L 405.820944 171.611816 
L 406.163464 171.535347 
L 406.505985 170.770656 
L 406.848505 169.011866 
L 407.191026 169.54715 
L 407.533546 169.776557 
L 407.876067 170.464779 
L 408.218587 170.005964 
L 408.561107 168.62952 
L 408.903628 168.553051 
L 409.246148 162.588458 
L 409.588669 161.976705 
L 409.931189 158.765001 
L 410.273709 164.806063 
L 410.61623 164.729594 
L 410.95875 165.264878 
L 411.301271 164.806063 
L 411.643791 163.964902 
L 411.986311 163.582557 
L 412.328832 161.823766 
L 412.671352 162.894334 
L 413.013873 165.188409 
L 413.698914 164.117841 
L 414.041434 164.041372 
L 414.383954 161.364952 
L 414.726475 161.288483 
L 415.068995 160.982606 
L 415.411516 162.129643 
L 415.754036 167.253075 
L 416.096556 168.094236 
L 416.439077 167.864829 
L 416.781597 167.406014 
L 417.124118 167.635421 
L 417.809158 163.735495 
L 418.151679 164.117841 
L 418.494199 167.100137 
L 418.83672 167.635421 
L 419.52176 160.60026 
L 419.864281 158.535593 
L 420.206801 157.235618 
L 420.549322 157.006211 
L 420.891842 160.370853 
L 421.234363 158.306186 
L 421.576883 158.076779 
L 421.919403 159.147347 
L 422.261924 157.92384 
L 422.604444 158.000309 
L 422.946965 157.159149 
L 423.289485 163.200211 
L 423.632005 158.917939 
L 423.974526 161.364952 
L 424.659567 162.282581 
L 425.344607 166.258977 
L 425.687128 165.800162 
L 426.029648 166.794261 
L 426.372169 166.335446 
L 426.714689 167.941298 
L 427.05721 166.947199 
L 427.39973 167.329545 
L 427.74225 168.858927 
L 428.084771 168.935397 
L 428.427291 166.794261 
L 428.769812 166.794261 
L 429.112332 166.106038 
L 429.454852 164.653125 
L 429.797373 165.876631 
L 430.139893 167.941298 
L 430.482414 167.941298 
L 430.824934 169.164804 
L 431.167454 166.794261 
L 431.509975 166.717791 
L 431.852495 168.935397 
L 432.195016 167.176606 
L 432.537536 169.011866 
L 432.880056 167.176606 
L 433.222577 167.558952 
L 433.565097 167.406014 
L 433.907618 165.723693 
L 434.250138 167.635421 
L 434.592659 167.482483 
L 434.935179 168.782458 
L 435.277699 168.247174 
L 435.62022 166.564853 
L 435.96274 165.9531 
L 436.305261 166.335446 
L 436.647781 166.106038 
L 436.990301 167.253075 
L 437.332822 166.106038 
L 437.675342 166.182507 
L 438.017863 165.03547 
L 438.360383 166.717791 
L 438.702903 167.253075 
L 439.045424 166.335446 
L 439.387944 167.253075 
L 439.730465 167.482483 
L 440.072985 166.641322 
L 440.415505 166.411915 
L 440.758026 166.335446 
L 441.100546 167.176606 
L 441.443067 165.9531 
L 441.785587 166.641322 
L 442.128108 166.87073 
L 442.470628 168.094236 
L 442.813148 165.9531 
L 443.155669 165.876631 
L 443.498189 166.029569 
L 444.18323 167.329545 
L 444.52575 165.647223 
L 445.210791 167.406014 
L 445.553312 167.71189 
L 445.895832 167.558952 
L 446.238352 169.011866 
L 446.580873 167.482483 
L 446.923393 169.317742 
L 447.265914 168.247174 
L 447.608434 168.323643 
L 447.950955 166.794261 
L 448.293475 167.864829 
L 448.635995 166.258977 
L 448.978516 167.329545 
L 449.321036 169.088335 
L 449.663557 168.323643 
L 450.006077 169.776557 
L 450.348597 168.247174 
L 450.691118 167.864829 
L 451.033638 169.088335 
L 451.376159 169.088335 
L 451.718679 168.705989 
L 452.061199 169.394211 
L 452.40372 167.558952 
L 452.74624 169.700088 
L 453.088761 167.406014 
L 453.431281 166.182507 
L 453.773801 167.558952 
L 454.116322 166.947199 
L 454.458842 167.788359 
L 454.801363 167.176606 
L 455.486404 164.959001 
L 455.828924 165.264878 
L 456.171444 163.735495 
L 456.513965 166.335446 
L 456.856485 166.794261 
L 457.199006 164.729594 
L 457.541526 163.353149 
L 457.884046 165.876631 
L 458.226567 166.564853 
L 458.569087 163.123742 
L 458.911608 162.970804 
L 459.254128 166.106038 
L 459.939169 162.053174 
L 460.281689 163.429618 
L 460.96673 162.206112 
L 461.309251 164.500186 
L 461.651771 164.806063 
L 461.994291 165.417816 
L 462.336812 164.041372 
L 462.679332 164.19431 
L 463.021853 163.659026 
L 463.364373 164.653125 
L 463.706893 164.500186 
L 464.049414 164.729594 
L 464.391934 161.976705 
L 464.734455 163.888433 
L 465.076975 162.664927 
L 465.419495 163.888433 
L 465.762016 161.747297 
L 466.447057 162.511989 
L 466.789577 163.353149 
L 467.132097 162.282581 
L 467.474618 163.123742 
L 467.817138 160.447322 
L 468.502179 164.347248 
L 468.8447 161.747297 
L 469.18722 163.888433 
L 469.52974 163.582557 
L 469.872261 162.206112 
L 470.214781 162.511989 
L 470.557302 162.43552 
L 470.899822 163.123742 
L 471.242342 161.594359 
L 471.584863 163.582557 
L 471.927383 162.053174 
L 472.269904 162.664927 
L 472.612424 162.741396 
L 472.954944 163.047273 
L 473.297465 162.282581 
L 473.639985 161.976705 
L 473.982506 162.35905 
L 474.325026 163.964902 
L 475.010067 164.041372 
L 475.352587 164.423717 
L 475.695108 166.488384 
L 476.037628 166.87073 
L 476.380149 167.788359 
L 476.722669 165.11194 
L 477.40771 166.947199 
L 477.75023 165.264878 
L 478.092751 167.329545 
L 478.435271 166.488384 
L 478.777791 162.43552 
L 479.120312 164.653125 
L 479.462832 165.723693 
L 479.805353 164.423717 
L 480.147873 164.423717 
L 480.490393 166.947199 
L 480.832914 166.258977 
L 481.175434 167.864829 
L 481.517955 165.03547 
L 481.860475 165.800162 
L 482.202996 165.341347 
L 482.545516 166.106038 
L 482.888036 165.264878 
L 483.230557 163.429618 
L 483.573077 166.335446 
L 483.915598 165.03547 
L 484.258118 167.558952 
L 484.600638 168.017767 
L 484.943159 167.100137 
L 485.6282 169.241273 
L 485.97072 165.494285 
L 486.31324 166.641322 
L 486.655761 163.735495 
L 486.998281 164.882532 
L 487.340802 164.729594 
L 487.683322 168.247174 
L 488.025842 167.406014 
L 488.368363 165.417816 
L 488.710883 164.500186 
L 489.053404 166.029569 
L 489.395924 165.264878 
L 489.738445 166.029569 
L 490.080965 167.941298 
L 490.423485 168.017767 
L 491.108526 166.641322 
L 491.451047 165.417816 
L 491.793567 165.264878 
L 492.136087 166.258977 
L 492.478608 167.635421 
L 492.821128 167.176606 
L 493.506169 165.723693 
L 493.848689 167.71189 
L 494.19121 167.023668 
L 494.53373 166.641322 
L 494.876251 167.329545 
L 495.218771 164.959001 
L 495.561292 165.723693 
L 495.903812 167.100137 
L 496.246332 167.176606 
L 496.588853 167.100137 
L 496.931373 165.264878 
L 497.616414 167.100137 
L 498.301455 167.558952 
L 498.986496 165.647223 
L 499.329016 167.100137 
L 499.671536 166.411915 
L 500.014057 167.558952 
L 500.356577 167.482483 
L 501.041618 165.9531 
L 501.726659 167.329545 
L 502.069179 165.494285 
L 502.4117 168.62952 
L 502.75422 165.800162 
L 503.096741 167.558952 
L 503.439261 167.329545 
L 503.781781 168.858927 
L 504.124302 166.335446 
L 504.466822 166.794261 
L 504.809343 166.029569 
L 505.151863 167.71189 
L 505.494383 167.558952 
L 505.836904 168.782458 
L 506.179424 168.094236 
L 506.521945 168.858927 
L 506.864465 168.935397 
L 507.206985 169.776557 
L 507.549506 169.54715 
L 507.892026 167.635421 
L 508.234547 169.623619 
L 508.577067 168.017767 
L 508.919588 169.47068 
L 509.262108 168.476582 
L 509.604628 169.47068 
L 509.947149 169.241273 
L 510.289669 169.623619 
L 510.63219 169.700088 
L 510.97471 168.935397 
L 511.31723 169.47068 
L 512.002271 170.005964 
L 512.344792 169.776557 
L 512.687312 170.694187 
L 513.029832 169.164804 
L 513.372353 170.235372 
L 513.714873 169.241273 
L 514.057394 171.458878 
L 514.399914 171.764755 
L 515.084955 169.929495 
L 515.427475 170.464779 
L 515.769996 170.158903 
L 516.112516 170.464779 
L 516.455037 170.464779 
L 516.797557 170.770656 
L 517.140077 169.47068 
L 517.482598 169.700088 
L 517.825118 169.776557 
L 518.167639 170.082434 
L 518.510159 169.011866 
L 518.852679 170.38831 
L 519.53772 168.62952 
L 519.880241 170.541248 
L 520.907802 169.700088 
L 521.250322 168.782458 
L 521.592843 170.311841 
L 521.935363 170.158903 
L 522.277883 168.782458 
L 522.620404 170.235372 
L 522.962924 169.394211 
L 523.305445 169.164804 
L 523.990486 169.776557 
L 524.333006 168.935397 
L 524.675526 169.241273 
L 525.018047 169.929495 
L 525.360567 168.858927 
L 525.703088 169.623619 
L 526.045608 169.47068 
L 526.388128 169.853026 
L 526.730649 170.541248 
L 527.073169 169.700088 
L 527.41569 168.553051 
L 527.75821 169.011866 
L 528.10073 170.770656 
L 528.443251 169.47068 
L 528.785771 170.158903 
L 529.128292 168.017767 
L 529.470812 168.400113 
L 529.813333 169.776557 
L 530.155853 168.247174 
L 530.498373 169.394211 
L 531.183414 169.853026 
L 531.525935 168.858927 
L 531.868455 167.329545 
L 532.210975 167.71189 
L 532.553496 169.54715 
L 532.896016 168.476582 
L 533.238537 168.170705 
L 533.581057 168.553051 
L 533.923577 168.094236 
L 534.608618 166.411915 
L 534.951139 167.406014 
L 535.293659 166.947199 
L 535.636179 168.017767 
L 535.9787 168.705989 
L 536.32122 170.617718 
L 536.663741 166.87073 
L 537.006261 168.476582 
L 537.348782 168.476582 
L 537.691302 167.482483 
L 538.033822 168.247174 
L 539.061384 164.729594 
L 539.403904 164.500186 
L 540.088945 164.806063 
L 540.431465 166.029569 
L 540.773986 164.882532 
L 541.459026 166.717791 
L 541.801547 166.488384 
L 542.486588 164.959001 
L 542.829108 165.341347 
L 543.171629 163.964902 
L 543.514149 164.653125 
L 543.856669 163.659026 
L 544.19919 164.806063 
L 544.54171 157.847371 
L 544.884231 157.235618 
L 545.226751 158.688532 
L 545.569271 157.92384 
L 545.911792 158.382655 
L 546.254312 157.465025 
L 546.596833 158.459124 
L 546.939353 157.541495 
L 547.281873 157.541495 
L 547.624394 157.006211 
L 547.966914 160.141445 
L 548.309435 160.217915 
L 548.651955 159.7591 
L 548.994475 157.465025 
L 549.679516 159.376754 
L 550.022037 160.982606 
L 550.364557 159.300285 
L 550.707078 147.600506 
L 551.049598 146.912284 
L 551.392118 145.077025 
L 551.734639 147.524037 
L 552.077159 147.829914 
L 552.41968 146.377 
L 552.7622 145.841716 
L 553.10472 142.247667 
L 553.447241 142.094728 
L 553.789761 143.929988 
L 554.132282 143.70058 
L 554.474802 141.10063 
L 554.817322 143.088827 
L 555.159843 141.02416 
L 555.502363 143.241765 
L 555.844884 142.094728 
L 556.187404 142.018259 
L 556.529924 142.85942 
L 556.872445 142.935889 
L 557.214965 142.477074 
L 557.557486 123.28332 
L 557.900006 119.612801 
L 558.242527 122.36569 
L 558.585047 119.612801 
L 558.927567 118.542233 
L 559.270088 118.083418 
L 559.612608 120.301023 
L 559.955129 117.471665 
L 560.297649 119.68927 
L 560.640169 123.359789 
L 560.98269 122.136283 
L 561.667731 121.142184 
L 562.010251 125.118579 
L 562.352771 122.36569 
L 562.695292 121.753937 
L 563.037812 122.595098 
L 563.380333 122.977443 
L 563.722853 126.265616 
L 564.065374 166.87073 
L 564.407894 174.135298 
L 564.750414 173.600014 
L 565.092935 173.676483 
L 565.435455 174.211767 
L 565.777976 173.752952 
L 566.120496 174.364705 
L 566.463016 173.676483 
L 566.805537 173.523545 
L 567.148057 175.664681 
L 567.490578 173.905891 
L 567.833098 175.435273 
L 568.175618 174.441175 
L 568.518139 174.976459 
L 568.860659 174.441175 
L 569.20318 175.970557 
L 569.5457 174.211767 
L 569.88822 174.211767 
L 570.230741 174.747051 
L 570.573261 175.664681 
L 570.915782 173.752952 
L 571.600823 174.82352 
L 572.285863 174.594113 
L 572.628384 173.600014 
L 572.970904 175.282335 
L 573.313425 173.905891 
L 573.998465 173.905891 
L 574.683506 175.052928 
L 575.026027 174.441175 
L 575.368547 173.600014 
L 575.711067 174.594113 
L 576.053588 175.205866 
L 576.396108 174.899989 
L 576.738629 175.817619 
L 577.081149 175.129397 
L 577.42367 175.358804 
L 577.76619 175.435273 
L 578.10871 174.441175 
L 578.451231 174.670582 
L 578.793751 176.199965 
L 579.136272 174.82352 
L 579.478792 175.588212 
L 579.821312 175.205866 
L 580.163833 174.517644 
L 580.506353 174.747051 
L 580.848874 175.358804 
L 581.191394 174.288236 
L 581.533914 175.511743 
L 581.876435 175.052928 
L 582.218955 172.911792 
L 582.561476 174.747051 
L 582.903996 175.74115 
L 583.246516 175.588212 
L 583.589037 175.817619 
L 583.931557 175.052928 
L 584.274078 175.205866 
L 584.616598 174.976459 
L 584.959119 175.894088 
L 585.301639 175.205866 
L 585.644159 173.905891 
L 585.98668 176.735249 
L 586.3292 174.747051 
L 586.671721 174.058829 
L 587.014241 174.594113 
L 587.356761 174.058829 
L 587.699282 174.441175 
L 588.041802 175.664681 
L 588.384323 175.358804 
L 588.726843 175.894088 
L 589.069363 175.129397 
L 589.411884 176.199965 
L 589.754404 176.505841 
L 590.096925 173.98236 
L 590.439445 176.276434 
L 590.781966 175.358804 
L 591.124486 174.976459 
L 591.467006 174.364705 
L 591.809527 174.670582 
L 592.152047 175.205866 
L 592.494568 173.905891 
L 593.179608 176.505841 
L 593.522129 175.435273 
L 593.864649 175.205866 
L 594.20717 174.441175 
L 594.54969 177.117595 
L 594.89221 173.676483 
L 595.234731 176.123496 
L 595.577251 174.899989 
L 595.919772 174.976459 
L 596.262292 174.288236 
L 597.289853 176.047027 
L 597.632374 174.211767 
L 597.974894 174.517644 
L 598.317415 174.517644 
L 598.659935 176.429372 
L 599.002455 175.282335 
L 599.344976 174.747051 
L 600.030017 175.511743 
L 600.372537 174.441175 
L 600.715057 175.817619 
L 601.400098 174.670582 
L 602.085139 174.899989 
L 602.427659 174.364705 
L 602.77018 175.970557 
L 603.1127 175.129397 
L 603.455221 176.047027 
L 603.797741 175.511743 
L 604.140261 175.588212 
L 604.482782 174.82352 
L 605.167823 175.435273 
L 605.510343 175.435273 
L 605.852864 175.588212 
L 606.195384 174.899989 
L 606.537904 175.282335 
L 606.880425 175.205866 
L 607.222945 174.976459 
L 607.565466 176.505841 
L 608.250506 176.199965 
L 608.593027 176.582311 
L 608.935547 175.358804 
L 609.278068 175.664681 
L 609.620588 173.905891 
L 610.305629 176.811718 
L 610.648149 174.364705 
L 610.99067 173.98236 
L 611.33319 175.129397 
L 611.675711 176.964656 
L 612.018231 174.594113 
L 612.360751 176.65878 
L 612.703272 175.205866 
L 613.045792 176.276434 
L 613.388313 176.582311 
L 613.730833 176.047027 
L 614.073353 174.517644 
L 614.415874 175.588212 
L 614.758394 176.123496 
L 615.100915 175.74115 
L 615.443435 174.747051 
L 615.785955 176.582311 
L 616.470996 173.98236 
L 616.813517 176.582311 
L 617.498557 175.664681 
L 617.841078 175.970557 
L 618.183598 175.74115 
L 618.526119 176.047027 
L 618.868639 174.82352 
L 619.21116 175.511743 
L 619.55368 176.735249 
L 619.8962 175.511743 
L 620.238721 176.735249 
L 620.581241 175.358804 
L 620.923762 175.894088 
L 621.266282 175.052928 
L 621.608802 176.276434 
L 621.951323 176.276434 
L 622.636364 174.594113 
L 622.636364 174.594113 
" style="fill:none;stroke:#4878cf;stroke-linecap:square;stroke-width:1.5;"/>
   </g>
   <g id="line2d_17">
    <path clip-path="url(#p4fe9565aed)" d="M 90 158.526306 
L 648 158.526306 
" style="fill:none;stroke:#ff0000;stroke-dasharray:5.55,2.4;stroke-dashoffset:0;stroke-width:1.5;"/>
   </g>
   <g id="patch_3">
    <path d="M 90 252 
L 90 34.56 
" style="fill:none;stroke:#000000;stroke-linecap:square;stroke-linejoin:miter;stroke-width:0.8;"/>
   </g>
   <g id="patch_4">
    <path d="M 648 252 
L 648 34.56 
" style="fill:none;stroke:#000000;stroke-linecap:square;stroke-linejoin:miter;stroke-width:0.8;"/>
   </g>
   <g id="patch_5">
    <path d="M 90 252 
L 648 252 
" style="fill:none;stroke:#000000;stroke-linecap:square;stroke-linejoin:miter;stroke-width:0.8;"/>
   </g>
   <g id="patch_6">
    <path d="M 90 34.56 
L 648 34.56 
" style="fill:none;stroke:#000000;stroke-linecap:square;stroke-linejoin:miter;stroke-width:0.8;"/>
   </g>
   <g id="text_18">
    <!-- Mean = 15.391 -->
    <defs>
     <path d="M 10.59375 45.40625 
L 73.1875 45.40625 
L 73.1875 37.203125 
L 10.59375 37.203125 
z
M 10.59375 25.484375 
L 73.1875 25.484375 
L 73.1875 17.1875 
L 10.59375 17.1875 
z
" id="DejaVuSans-61"/>
     <path d="M 10.6875 12.40625 
L 21 12.40625 
L 21 0 
L 10.6875 0 
z
" id="DejaVuSans-46"/>
    </defs>
    <g style="fill:#ff0000;" transform="translate(569.20318 153.106285)scale(0.1 -0.1)">
     <use xlink:href="#DejaVuSans-77"/>
     <use x="86.279297" xlink:href="#DejaVuSans-101"/>
     <use x="147.802734" xlink:href="#DejaVuSans-97"/>
     <use x="209.082031" xlink:href="#DejaVuSans-110"/>
     <use x="272.460938" xlink:href="#DejaVuSans-32"/>
     <use x="304.248047" xlink:href="#DejaVuSans-61"/>
     <use x="388.037109" xlink:href="#DejaVuSans-32"/>
     <use x="419.824219" xlink:href="#DejaVuSans-49"/>
     <use x="483.447266" xlink:href="#DejaVuSans-53"/>
     <use x="547.070312" xlink:href="#DejaVuSans-46"/>
     <use x="578.857422" xlink:href="#DejaVuSans-51"/>
     <use x="642.480469" xlink:href="#DejaVuSans-57"/>
     <use x="706.103516" xlink:href="#DejaVuSans-49"/>
    </g>
   </g>
   <g id="text_19">
    <!-- Ethereum mainnet block confirmation times (seconds) by date -->
    <defs>
     <path d="M 9.8125 72.90625 
L 55.90625 72.90625 
L 55.90625 64.59375 
L 19.671875 64.59375 
L 19.671875 43.015625 
L 54.390625 43.015625 
L 54.390625 34.71875 
L 19.671875 34.71875 
L 19.671875 8.296875 
L 56.78125 8.296875 
L 56.78125 0 
L 9.8125 0 
z
" id="DejaVuSans-69"/>
     <path d="M 54.890625 33.015625 
L 54.890625 0 
L 45.90625 0 
L 45.90625 32.71875 
Q 45.90625 40.484375 42.875 44.328125 
Q 39.84375 48.1875 33.796875 48.1875 
Q 26.515625 48.1875 22.3125 43.546875 
Q 18.109375 38.921875 18.109375 30.90625 
L 18.109375 0 
L 9.078125 0 
L 9.078125 75.984375 
L 18.109375 75.984375 
L 18.109375 46.1875 
Q 21.34375 51.125 25.703125 53.5625 
Q 30.078125 56 35.796875 56 
Q 45.21875 56 50.046875 50.171875 
Q 54.890625 44.34375 54.890625 33.015625 
z
" id="DejaVuSans-104"/>
    </defs>
    <g transform="translate(180.643125 28.56)scale(0.12 -0.12)">
     <use xlink:href="#DejaVuSans-69"/>
     <use x="63.183594" xlink:href="#DejaVuSans-116"/>
     <use x="102.392578" xlink:href="#DejaVuSans-104"/>
     <use x="165.771484" xlink:href="#DejaVuSans-101"/>
     <use x="227.294922" xlink:href="#DejaVuSans-114"/>
     <use x="268.376953" xlink:href="#DejaVuSans-101"/>
     <use x="329.900391" xlink:href="#DejaVuSans-117"/>
     <use x="393.279297" xlink:href="#DejaVuSans-109"/>
     <use x="490.691406" xlink:href="#DejaVuSans-32"/>
     <use x="522.478516" xlink:href="#DejaVuSans-109"/>
     <use x="619.890625" xlink:href="#DejaVuSans-97"/>
     <use x="681.169922" xlink:href="#DejaVuSans-105"/>
     <use x="708.953125" xlink:href="#DejaVuSans-110"/>
     <use x="772.332031" xlink:href="#DejaVuSans-110"/>
     <use x="835.710938" xlink:href="#DejaVuSans-101"/>
     <use x="897.234375" xlink:href="#DejaVuSans-116"/>
     <use x="936.443359" xlink:href="#DejaVuSans-32"/>
     <use x="968.230469" xlink:href="#DejaVuSans-98"/>
     <use x="1031.707031" xlink:href="#DejaVuSans-108"/>
     <use x="1059.490234" xlink:href="#DejaVuSans-111"/>
     <use x="1120.671875" xlink:href="#DejaVuSans-99"/>
     <use x="1175.652344" xlink:href="#DejaVuSans-107"/>
     <use x="1233.5625" xlink:href="#DejaVuSans-32"/>
     <use x="1265.349609" xlink:href="#DejaVuSans-99"/>
     <use x="1320.330078" xlink:href="#DejaVuSans-111"/>
     <use x="1381.511719" xlink:href="#DejaVuSans-110"/>
     <use x="1444.890625" xlink:href="#DejaVuSans-102"/>
     <use x="1480.095703" xlink:href="#DejaVuSans-105"/>
     <use x="1507.878906" xlink:href="#DejaVuSans-114"/>
     <use x="1548.976562" xlink:href="#DejaVuSans-109"/>
     <use x="1646.388672" xlink:href="#DejaVuSans-97"/>
     <use x="1707.667969" xlink:href="#DejaVuSans-116"/>
     <use x="1746.876953" xlink:href="#DejaVuSans-105"/>
     <use x="1774.660156" xlink:href="#DejaVuSans-111"/>
     <use x="1835.841797" xlink:href="#DejaVuSans-110"/>
     <use x="1899.220703" xlink:href="#DejaVuSans-32"/>
     <use x="1931.007812" xlink:href="#DejaVuSans-116"/>
     <use x="1970.216797" xlink:href="#DejaVuSans-105"/>
     <use x="1998" xlink:href="#DejaVuSans-109"/>
     <use x="2095.412109" xlink:href="#DejaVuSans-101"/>
     <use x="2156.935547" xlink:href="#DejaVuSans-115"/>
     <use x="2209.035156" xlink:href="#DejaVuSans-32"/>
     <use x="2240.822266" xlink:href="#DejaVuSans-40"/>
     <use x="2279.835938" xlink:href="#DejaVuSans-115"/>
     <use x="2331.935547" xlink:href="#DejaVuSans-101"/>
     <use x="2393.458984" xlink:href="#DejaVuSans-99"/>
     <use x="2448.439453" xlink:href="#DejaVuSans-111"/>
     <use x="2509.621094" xlink:href="#DejaVuSans-110"/>
     <use x="2573" xlink:href="#DejaVuSans-100"/>
     <use x="2636.476562" xlink:href="#DejaVuSans-115"/>
     <use x="2688.576172" xlink:href="#DejaVuSans-41"/>
     <use x="2727.589844" xlink:href="#DejaVuSans-32"/>
     <use x="2759.376953" xlink:href="#DejaVuSans-98"/>
     <use x="2822.853516" xlink:href="#DejaVuSans-121"/>
     <use x="2882.033203" xlink:href="#DejaVuSans-32"/>
     <use x="2913.820312" xlink:href="#DejaVuSans-100"/>
     <use x="2977.296875" xlink:href="#DejaVuSans-97"/>
     <use x="3038.576172" xlink:href="#DejaVuSans-116"/>
     <use x="3077.785156" xlink:href="#DejaVuSans-101"/>
    </g>
   </g>
  </g>
 </g>
 <defs>
  <clipPath id="p4fe9565aed">
   <rect height="217.44" width="558" x="90" y="34.56"/>
  </clipPath>
 </defs>
</svg>
